%TF.GenerationSoftware,KiCad,Pcbnew,9.0.2*%
%TF.CreationDate,2025-07-02T17:03:21+05:30*%
%TF.ProjectId,ESP32-RoboCore V1,45535033-322d-4526-9f62-6f436f726520,rev?*%
%TF.SameCoordinates,Original*%
%TF.FileFunction,Copper,L1,Top*%
%TF.FilePolarity,Positive*%
%FSLAX46Y46*%
G04 Gerber Fmt 4.6, Leading zero omitted, Abs format (unit mm)*
G04 Created by KiCad (PCBNEW 9.0.2) date 2025-07-02 17:03:21*
%MOMM*%
%LPD*%
G01*
G04 APERTURE LIST*
G04 Aperture macros list*
%AMRoundRect*
0 Rectangle with rounded corners*
0 $1 Rounding radius*
0 $2 $3 $4 $5 $6 $7 $8 $9 X,Y pos of 4 corners*
0 Add a 4 corners polygon primitive as box body*
4,1,4,$2,$3,$4,$5,$6,$7,$8,$9,$2,$3,0*
0 Add four circle primitives for the rounded corners*
1,1,$1+$1,$2,$3*
1,1,$1+$1,$4,$5*
1,1,$1+$1,$6,$7*
1,1,$1+$1,$8,$9*
0 Add four rect primitives between the rounded corners*
20,1,$1+$1,$2,$3,$4,$5,0*
20,1,$1+$1,$4,$5,$6,$7,0*
20,1,$1+$1,$6,$7,$8,$9,0*
20,1,$1+$1,$8,$9,$2,$3,0*%
G04 Aperture macros list end*
%TA.AperFunction,SMDPad,CuDef*%
%ADD10R,1.050000X1.050000*%
%TD*%
%TA.AperFunction,HeatsinkPad*%
%ADD11C,0.600000*%
%TD*%
%TA.AperFunction,HeatsinkPad*%
%ADD12R,4.200000X4.200000*%
%TD*%
%TA.AperFunction,SMDPad,CuDef*%
%ADD13R,1.500000X0.900000*%
%TD*%
%TA.AperFunction,SMDPad,CuDef*%
%ADD14R,0.900000X1.500000*%
%TD*%
%TA.AperFunction,SMDPad,CuDef*%
%ADD15RoundRect,0.250000X-0.325000X-0.650000X0.325000X-0.650000X0.325000X0.650000X-0.325000X0.650000X0*%
%TD*%
%TA.AperFunction,ComponentPad*%
%ADD16R,1.730000X2.030000*%
%TD*%
%TA.AperFunction,ComponentPad*%
%ADD17O,1.730000X2.030000*%
%TD*%
%TA.AperFunction,SMDPad,CuDef*%
%ADD18RoundRect,0.250000X0.262500X0.450000X-0.262500X0.450000X-0.262500X-0.450000X0.262500X-0.450000X0*%
%TD*%
%TA.AperFunction,SMDPad,CuDef*%
%ADD19RoundRect,0.250000X-0.300000X2.050000X-0.300000X-2.050000X0.300000X-2.050000X0.300000X2.050000X0*%
%TD*%
%TA.AperFunction,SMDPad,CuDef*%
%ADD20RoundRect,0.250002X-5.149998X4.449998X-5.149998X-4.449998X5.149998X-4.449998X5.149998X4.449998X0*%
%TD*%
%TA.AperFunction,ComponentPad*%
%ADD21R,1.700000X1.700000*%
%TD*%
%TA.AperFunction,ComponentPad*%
%ADD22C,1.700000*%
%TD*%
%TA.AperFunction,SMDPad,CuDef*%
%ADD23RoundRect,0.250000X-0.262500X-0.450000X0.262500X-0.450000X0.262500X0.450000X-0.262500X0.450000X0*%
%TD*%
%TA.AperFunction,SMDPad,CuDef*%
%ADD24RoundRect,0.250000X-0.275000X0.450000X-0.275000X-0.450000X0.275000X-0.450000X0.275000X0.450000X0*%
%TD*%
%TA.AperFunction,SMDPad,CuDef*%
%ADD25RoundRect,0.150000X0.825000X0.150000X-0.825000X0.150000X-0.825000X-0.150000X0.825000X-0.150000X0*%
%TD*%
%TA.AperFunction,SMDPad,CuDef*%
%ADD26RoundRect,0.243750X0.243750X0.456250X-0.243750X0.456250X-0.243750X-0.456250X0.243750X-0.456250X0*%
%TD*%
%TA.AperFunction,SMDPad,CuDef*%
%ADD27RoundRect,0.250000X-0.450000X0.262500X-0.450000X-0.262500X0.450000X-0.262500X0.450000X0.262500X0*%
%TD*%
%TA.AperFunction,SMDPad,CuDef*%
%ADD28R,1.450000X0.600000*%
%TD*%
%TA.AperFunction,SMDPad,CuDef*%
%ADD29R,1.450000X0.300000*%
%TD*%
%TA.AperFunction,HeatsinkPad*%
%ADD30O,2.100000X1.000000*%
%TD*%
%TA.AperFunction,HeatsinkPad*%
%ADD31O,1.600000X1.000000*%
%TD*%
%TA.AperFunction,ComponentPad*%
%ADD32R,2.600000X2.600000*%
%TD*%
%TA.AperFunction,ComponentPad*%
%ADD33C,2.600000*%
%TD*%
%TA.AperFunction,SMDPad,CuDef*%
%ADD34RoundRect,0.250000X-0.650000X0.325000X-0.650000X-0.325000X0.650000X-0.325000X0.650000X0.325000X0*%
%TD*%
%TA.AperFunction,SMDPad,CuDef*%
%ADD35RoundRect,0.250000X0.450000X-0.262500X0.450000X0.262500X-0.450000X0.262500X-0.450000X-0.262500X0*%
%TD*%
%TA.AperFunction,SMDPad,CuDef*%
%ADD36RoundRect,0.375000X0.625000X0.375000X-0.625000X0.375000X-0.625000X-0.375000X0.625000X-0.375000X0*%
%TD*%
%TA.AperFunction,SMDPad,CuDef*%
%ADD37RoundRect,0.500000X0.500000X1.400000X-0.500000X1.400000X-0.500000X-1.400000X0.500000X-1.400000X0*%
%TD*%
%TA.AperFunction,ViaPad*%
%ADD38C,0.600000*%
%TD*%
%TA.AperFunction,Conductor*%
%ADD39C,0.200000*%
%TD*%
G04 APERTURE END LIST*
D10*
%TO.P,U1,39,GND*%
%TO.N,GND*%
X86595000Y-52535000D03*
D11*
X86595000Y-51772500D03*
D10*
X86595000Y-51010000D03*
D11*
X86595000Y-50247500D03*
D10*
X86595000Y-49485000D03*
D11*
X85832500Y-52535000D03*
X85832500Y-51010000D03*
X85832500Y-49485000D03*
D10*
X85070000Y-52535000D03*
D11*
X85070000Y-51772500D03*
D12*
X85070000Y-51010000D03*
D10*
X85070000Y-51010000D03*
D11*
X85070000Y-50247500D03*
D10*
X85070000Y-49485000D03*
D11*
X84307500Y-52535000D03*
X84307500Y-51010000D03*
X84307500Y-49485000D03*
D10*
X83545000Y-52535000D03*
D11*
X83545000Y-51772500D03*
D10*
X83545000Y-51010000D03*
D11*
X83545000Y-50247500D03*
D10*
X83545000Y-49485000D03*
D13*
%TO.P,U1,38,GND*%
X94500000Y-43670000D03*
%TO.P,U1,37,IO23*%
%TO.N,unconnected-(U1-IO23-Pad37)*%
X94500000Y-44940000D03*
%TO.P,U1,36,IO22*%
%TO.N,/IO22*%
X94500000Y-46210000D03*
%TO.P,U1,35,TXD0/IO1*%
%TO.N,/IO1*%
X94500000Y-47480000D03*
%TO.P,U1,34,RXD0/IO3*%
%TO.N,/IO3*%
X94500000Y-48750000D03*
%TO.P,U1,33,IO21*%
%TO.N,/IO21*%
X94500000Y-50020000D03*
%TO.P,U1,32,NC*%
%TO.N,unconnected-(U1-NC-Pad32)*%
X94500000Y-51290000D03*
%TO.P,U1,31,IO19*%
%TO.N,unconnected-(U1-IO19-Pad31)*%
X94500000Y-52560000D03*
%TO.P,U1,30,IO18*%
%TO.N,unconnected-(U1-IO18-Pad30)*%
X94500000Y-53830000D03*
%TO.P,U1,29,IO5*%
%TO.N,unconnected-(U1-IO5-Pad29)*%
X94500000Y-55100000D03*
%TO.P,U1,28,IO17*%
%TO.N,Net-(J4-Pin_2)*%
X94500000Y-56370000D03*
%TO.P,U1,27,IO16*%
%TO.N,Net-(J3-Pin_2)*%
X94500000Y-57640000D03*
%TO.P,U1,26,IO4*%
%TO.N,Net-(J3-Pin_1)*%
X94500000Y-58910000D03*
%TO.P,U1,25,IO0*%
%TO.N,Net-(J4-Pin_1)*%
X94500000Y-60180000D03*
D14*
%TO.P,U1,24,IO2*%
%TO.N,unconnected-(U1-IO2-Pad24)*%
X91470000Y-61430000D03*
%TO.P,U1,23,IO15*%
%TO.N,unconnected-(U1-IO15-Pad23)*%
X90200000Y-61430000D03*
%TO.P,U1,22,SDI/SD1*%
%TO.N,unconnected-(U1-SDI{slash}SD1-Pad22)*%
X88930000Y-61430000D03*
%TO.P,U1,21,SDO/SD0*%
%TO.N,unconnected-(U1-SDO{slash}SD0-Pad21)*%
X87660000Y-61430000D03*
%TO.P,U1,20,SCK/CLK*%
%TO.N,unconnected-(U1-SCK{slash}CLK-Pad20)*%
X86390000Y-61430000D03*
%TO.P,U1,19,SCS/CMD*%
%TO.N,unconnected-(U1-SCS{slash}CMD-Pad19)*%
X85120000Y-61430000D03*
%TO.P,U1,18,SWP/SD3*%
%TO.N,unconnected-(U1-SWP{slash}SD3-Pad18)*%
X83850000Y-61430000D03*
%TO.P,U1,17,SHD/SD2*%
%TO.N,Net-(U1-SHD{slash}SD2)*%
X82580000Y-61430000D03*
%TO.P,U1,16,IO13*%
%TO.N,Net-(U1-IO13)*%
X81310000Y-61430000D03*
%TO.P,U1,15,GND*%
%TO.N,GND*%
X80040000Y-61430000D03*
D13*
%TO.P,U1,14,IO12*%
%TO.N,unconnected-(U1-IO12-Pad14)*%
X77000000Y-60180000D03*
%TO.P,U1,13,IO14*%
%TO.N,unconnected-(U1-IO14-Pad13)*%
X77000000Y-58910000D03*
%TO.P,U1,12,IO27*%
%TO.N,unconnected-(U1-IO27-Pad12)*%
X77000000Y-57640000D03*
%TO.P,U1,11,IO26*%
%TO.N,unconnected-(U1-IO26-Pad11)*%
X77000000Y-56370000D03*
%TO.P,U1,10,IO25*%
%TO.N,Net-(J5-Pin_3)*%
X77000000Y-55100000D03*
%TO.P,U1,9,IO33*%
%TO.N,Net-(J5-Pin_2)*%
X77000000Y-53830000D03*
%TO.P,U1,8,IO32*%
%TO.N,Net-(J5-Pin_1)*%
X77000000Y-52560000D03*
%TO.P,U1,7,IO35*%
%TO.N,Net-(J5-Pin_4)*%
X77000000Y-51290000D03*
%TO.P,U1,6,IO34*%
%TO.N,/IO34*%
X77000000Y-50020000D03*
%TO.P,U1,5,SENSOR_VN*%
%TO.N,unconnected-(U1-SENSOR_VN-Pad5)*%
X77000000Y-48750000D03*
%TO.P,U1,4,SENSOR_VP*%
%TO.N,unconnected-(U1-SENSOR_VP-Pad4)*%
X77000000Y-47480000D03*
%TO.P,U1,3,EN*%
%TO.N,Net-(U1-EN)*%
X77000000Y-46210000D03*
%TO.P,U1,2,VDD*%
%TO.N,unconnected-(U1-VDD-Pad2)*%
X77000000Y-44940000D03*
%TO.P,U1,1,GND*%
%TO.N,GND*%
X77000000Y-43670000D03*
%TD*%
D15*
%TO.P,C4,1*%
%TO.N,GND*%
X99275000Y-56000000D03*
%TO.P,C4,2*%
%TO.N,/+3.3v*%
X102225000Y-56000000D03*
%TD*%
D16*
%TO.P,J3,1,Pin_1*%
%TO.N,Net-(J3-Pin_1)*%
X108080000Y-65250000D03*
D17*
%TO.P,J3,2,Pin_2*%
%TO.N,Net-(J3-Pin_2)*%
X105540000Y-65250000D03*
%TO.P,J3,3,Pin_3*%
%TO.N,GND*%
X103000000Y-65250000D03*
%TD*%
D18*
%TO.P,R6,1*%
%TO.N,GND*%
X113075000Y-23000000D03*
%TO.P,R6,2*%
%TO.N,Net-(J1-CC1)*%
X111250000Y-23000000D03*
%TD*%
D19*
%TO.P,U3,1,VIN*%
%TO.N,Net-(U3-VIN)*%
X55625000Y-35775000D03*
%TO.P,U3,2,OUT*%
%TO.N,/+5v*%
X53925000Y-35775000D03*
%TO.P,U3,3,GND*%
%TO.N,GND*%
X52225000Y-35775000D03*
D20*
X52225000Y-44925000D03*
D19*
%TO.P,U3,4,FB*%
%TO.N,unconnected-(U3-FB-Pad4)*%
X50525000Y-35775000D03*
%TO.P,U3,5,~{ON}/OFF*%
%TO.N,/+5v*%
X48825000Y-35775000D03*
%TD*%
D15*
%TO.P,C3,1*%
%TO.N,/+3.3v*%
X54000000Y-62500000D03*
%TO.P,C3,2*%
%TO.N,GND*%
X56950000Y-62500000D03*
%TD*%
D21*
%TO.P,J6,1,Pin_1*%
%TO.N,/IO21*%
X60370000Y-66750000D03*
D22*
%TO.P,J6,2,Pin_2*%
%TO.N,/IO22*%
X57830000Y-66750000D03*
%TO.P,J6,3,Pin_3*%
%TO.N,GND*%
X55290000Y-66750000D03*
%TO.P,J6,4,Pin_4*%
%TO.N,/+3.3v*%
X52750000Y-66750000D03*
%TD*%
D23*
%TO.P,R2,1*%
%TO.N,Net-(D2-A)*%
X109425000Y-59000000D03*
%TO.P,R2,2*%
%TO.N,Net-(U1-IO13)*%
X111250000Y-59000000D03*
%TD*%
D24*
%TO.P,SW2,1,1*%
%TO.N,GND*%
X118870000Y-63200000D03*
X118870000Y-66800000D03*
%TO.P,SW2,2,2*%
%TO.N,Net-(U1-SHD{slash}SD2)*%
X117430000Y-63200000D03*
X117430000Y-66800000D03*
%TD*%
D25*
%TO.P,U4,1,GND*%
%TO.N,GND*%
X117225000Y-46945000D03*
%TO.P,U4,2,TXD*%
%TO.N,/IO3*%
X117225000Y-45675000D03*
%TO.P,U4,3,RXD*%
%TO.N,/IO1*%
X117225000Y-44405000D03*
%TO.P,U4,4,V3*%
%TO.N,/+3.3v*%
X117225000Y-43135000D03*
%TO.P,U4,5,UD+*%
%TO.N,Net-(U4-UD+)*%
X117225000Y-41865000D03*
%TO.P,U4,6,UD-*%
%TO.N,Net-(U4-UD-)*%
X117225000Y-40595000D03*
%TO.P,U4,7,NC*%
%TO.N,unconnected-(U4-NC-Pad7)*%
X117225000Y-39325000D03*
%TO.P,U4,8,NC*%
%TO.N,unconnected-(U4-NC-Pad8)*%
X117225000Y-38055000D03*
%TO.P,U4,9,~{CTS}*%
%TO.N,unconnected-(U4-~{CTS}-Pad9)*%
X112275000Y-38055000D03*
%TO.P,U4,10,~{DSR}*%
%TO.N,unconnected-(U4-~{DSR}-Pad10)*%
X112275000Y-39325000D03*
%TO.P,U4,11,~{RI}*%
%TO.N,unconnected-(U4-~{RI}-Pad11)*%
X112275000Y-40595000D03*
%TO.P,U4,12,~{DCD}*%
%TO.N,unconnected-(U4-~{DCD}-Pad12)*%
X112275000Y-41865000D03*
%TO.P,U4,13,~{DTR}*%
%TO.N,unconnected-(U4-~{DTR}-Pad13)*%
X112275000Y-43135000D03*
%TO.P,U4,14,~{RTS}*%
%TO.N,unconnected-(U4-~{RTS}-Pad14)*%
X112275000Y-44405000D03*
%TO.P,U4,15,R232*%
%TO.N,unconnected-(U4-R232-Pad15)*%
X112275000Y-45675000D03*
%TO.P,U4,16,VCC*%
%TO.N,Net-(U4-VCC)*%
X112275000Y-46945000D03*
%TD*%
D26*
%TO.P,D2,1,K*%
%TO.N,GND*%
X118250000Y-59250000D03*
%TO.P,D2,2,A*%
%TO.N,Net-(D2-A)*%
X116375000Y-59250000D03*
%TD*%
D27*
%TO.P,R3,1*%
%TO.N,/+3.3v*%
X106250000Y-56000000D03*
%TO.P,R3,2*%
%TO.N,Net-(U1-SHD{slash}SD2)*%
X106250000Y-57825000D03*
%TD*%
D28*
%TO.P,J1,A1,GND*%
%TO.N,GND*%
X112265000Y-33750000D03*
%TO.P,J1,A4,VBUS*%
%TO.N,Net-(U4-VCC)*%
X112265000Y-32950000D03*
D29*
%TO.P,J1,A5,CC1*%
%TO.N,Net-(J1-CC1)*%
X112265000Y-31750000D03*
%TO.P,J1,A6,D+*%
%TO.N,unconnected-(J1-D+-PadA6)*%
X112265000Y-30750000D03*
%TO.P,J1,A7,D-*%
%TO.N,unconnected-(J1-D--PadA7)*%
X112265000Y-30250000D03*
%TO.P,J1,A8*%
%TO.N,N/C*%
X112265000Y-29250000D03*
D28*
%TO.P,J1,A9,VBUS*%
%TO.N,Net-(U4-VCC)*%
X112265000Y-28050000D03*
%TO.P,J1,A12,GND*%
%TO.N,GND*%
X112265000Y-27250000D03*
%TO.P,J1,B1,GND*%
X112265000Y-27250000D03*
%TO.P,J1,B4,VBUS*%
%TO.N,Net-(U4-VCC)*%
X112265000Y-28050000D03*
D29*
%TO.P,J1,B5,CC2*%
%TO.N,Net-(J1-CC2)*%
X112265000Y-28750000D03*
%TO.P,J1,B6,D+*%
%TO.N,Net-(U4-UD+)*%
X112265000Y-29750000D03*
%TO.P,J1,B7,D-*%
%TO.N,Net-(U4-UD-)*%
X112265000Y-31250000D03*
%TO.P,J1,B8*%
%TO.N,N/C*%
X112265000Y-32250000D03*
D28*
%TO.P,J1,B9,VBUS*%
%TO.N,Net-(U4-VCC)*%
X112265000Y-32950000D03*
%TO.P,J1,B12,GND*%
%TO.N,GND*%
X112265000Y-33750000D03*
D30*
%TO.P,J1,S1,SHIELD*%
X113180000Y-34820000D03*
D31*
X117360000Y-34820000D03*
D30*
X113180000Y-26180000D03*
D31*
X117360000Y-26180000D03*
%TD*%
D32*
%TO.P,J2,1*%
%TO.N,Net-(U3-VIN)*%
X57500000Y-26500000D03*
D33*
%TO.P,J2,2*%
%TO.N,GND*%
X51500000Y-26500000D03*
%TO.P,J2,3*%
%TO.N,N/C*%
X54500000Y-31200000D03*
%TD*%
D21*
%TO.P,J5,1,Pin_1*%
%TO.N,Net-(J5-Pin_1)*%
X50750000Y-53210000D03*
D22*
%TO.P,J5,2,Pin_2*%
%TO.N,Net-(J5-Pin_2)*%
X50750000Y-55750000D03*
%TO.P,J5,3,Pin_3*%
%TO.N,Net-(J5-Pin_3)*%
X50750000Y-58290000D03*
%TO.P,J5,4,Pin_4*%
%TO.N,Net-(J5-Pin_4)*%
X50750000Y-60830000D03*
%TD*%
D23*
%TO.P,R7,1*%
%TO.N,GND*%
X115925000Y-23000000D03*
%TO.P,R7,2*%
%TO.N,Net-(J1-CC2)*%
X117750000Y-23000000D03*
%TD*%
D24*
%TO.P,SW1,1,1*%
%TO.N,GND*%
X119000000Y-51000000D03*
X119000000Y-54600000D03*
%TO.P,SW1,2,2*%
%TO.N,Net-(U1-EN)*%
X117560000Y-51000000D03*
X117560000Y-54600000D03*
%TD*%
D34*
%TO.P,C1,1*%
%TO.N,Net-(U3-VIN)*%
X59750000Y-35750000D03*
%TO.P,C1,2*%
%TO.N,GND*%
X59750000Y-38700000D03*
%TD*%
D35*
%TO.P,R4,1*%
%TO.N,/+3.3v*%
X93250000Y-66912500D03*
%TO.P,R4,2*%
%TO.N,/IO21*%
X93250000Y-65087500D03*
%TD*%
D16*
%TO.P,J4,1,Pin_1*%
%TO.N,Net-(J4-Pin_1)*%
X73580000Y-65250000D03*
D17*
%TO.P,J4,2,Pin_2*%
%TO.N,Net-(J4-Pin_2)*%
X71040000Y-65250000D03*
%TO.P,J4,3,Pin_3*%
%TO.N,GND*%
X68500000Y-65250000D03*
%TO.P,J4,4,Pin_4*%
%TO.N,/+3.3v*%
X65960000Y-65250000D03*
%TD*%
D21*
%TO.P,J7,1,Pin_1*%
%TO.N,/IO21*%
X81170000Y-66500000D03*
D22*
%TO.P,J7,2,Pin_2*%
%TO.N,/IO22*%
X83710000Y-66500000D03*
%TO.P,J7,3,Pin_3*%
%TO.N,GND*%
X86250000Y-66500000D03*
%TO.P,J7,4,Pin_4*%
%TO.N,/+3.3v*%
X88790000Y-66500000D03*
%TD*%
D36*
%TO.P,U2,1,GND*%
%TO.N,GND*%
X66800000Y-50300000D03*
%TO.P,U2,2,VO*%
%TO.N,/+3.3v*%
X66800000Y-48000000D03*
D37*
X60500000Y-48000000D03*
D36*
%TO.P,U2,3,VI*%
%TO.N,/+5v*%
X66800000Y-45700000D03*
%TD*%
D15*
%TO.P,C2,1*%
%TO.N,/+5v*%
X70000000Y-45500000D03*
%TO.P,C2,2*%
%TO.N,GND*%
X72950000Y-45500000D03*
%TD*%
D23*
%TO.P,R1,1*%
%TO.N,/+3.3v*%
X60500000Y-62250000D03*
%TO.P,R1,2*%
%TO.N,Net-(U1-EN)*%
X62325000Y-62250000D03*
%TD*%
D18*
%TO.P,R5,1*%
%TO.N,/+3.3v*%
X99412500Y-52250000D03*
%TO.P,R5,2*%
%TO.N,/IO22*%
X97587500Y-52250000D03*
%TD*%
D38*
%TO.N,Net-(U1-EN)*%
X115136765Y-47636765D03*
X70000000Y-57500000D03*
%TO.N,Net-(U1-SHD{slash}SD2)*%
X102500000Y-60000000D03*
X82500000Y-61881000D03*
%TO.N,Net-(U1-EN)*%
X117500000Y-57500000D03*
X112500000Y-52500000D03*
%TO.N,/IO22*%
X82500000Y-72500000D03*
X97500000Y-45000000D03*
X94500000Y-46210000D03*
X96174800Y-53020400D03*
%TO.N,Net-(J4-Pin_1)*%
X87819700Y-55001000D03*
X92500000Y-55001000D03*
%TO.N,Net-(J3-Pin_1)*%
X96900000Y-61881000D03*
%TO.N,Net-(J3-Pin_2)*%
X97500000Y-57500000D03*
X97500000Y-60600000D03*
X97911000Y-62922900D03*
%TO.N,Net-(J1-CC1)*%
X115000000Y-30000000D03*
X113634000Y-31982500D03*
%TO.N,Net-(U4-VCC)*%
X113634000Y-30000000D03*
X112265000Y-32950000D03*
X110000000Y-45000000D03*
%TO.N,GND*%
X59750000Y-38700000D03*
X99709500Y-59400000D03*
X112500000Y-27250000D03*
X52500000Y-35000000D03*
X55075000Y-62500000D03*
X83625000Y-63875000D03*
X85058800Y-69400000D03*
X100000000Y-71001000D03*
X73750000Y-46250000D03*
X77451000Y-43519000D03*
%TO.N,/+3.3v*%
X90000000Y-69801000D03*
X58500000Y-61849000D03*
X105000000Y-55000000D03*
X117225000Y-43135000D03*
X60000000Y-52500000D03*
X52422200Y-62324000D03*
X100460700Y-53298100D03*
%TD*%
D39*
%TO.N,Net-(U1-EN)*%
X117560000Y-50060000D02*
X117560000Y-51000000D01*
X115136765Y-47636765D02*
X117560000Y-50060000D01*
X70000000Y-52500000D02*
X70000000Y-57500000D01*
X76290000Y-46210000D02*
X70000000Y-52500000D01*
%TO.N,/IO1*%
X116878000Y-44405000D02*
X117225000Y-44405000D01*
X113737000Y-47546000D02*
X116878000Y-44405000D01*
X94566000Y-47546000D02*
X113737000Y-47546000D01*
X94500000Y-47480000D02*
X94566000Y-47546000D01*
%TO.N,/IO3*%
X113175000Y-48750000D02*
X94500000Y-48750000D01*
X116250000Y-45675000D02*
X113175000Y-48750000D01*
X117225000Y-45675000D02*
X116250000Y-45675000D01*
%TO.N,Net-(U1-SHD{slash}SD2)*%
X104675000Y-57825000D02*
X106250000Y-57825000D01*
X102500000Y-60000000D02*
X104675000Y-57825000D01*
X82580000Y-61801000D02*
X82500000Y-61881000D01*
X82580000Y-61430000D02*
X82580000Y-61801000D01*
X111625000Y-63200000D02*
X106250000Y-57825000D01*
X117430000Y-63200000D02*
X111625000Y-63200000D01*
X116549000Y-64081000D02*
X117430000Y-63200000D01*
X116549000Y-65919000D02*
X116549000Y-64081000D01*
X117430000Y-66800000D02*
X116549000Y-65919000D01*
%TO.N,Net-(U1-IO13)*%
X81310000Y-62380000D02*
X81310000Y-61430000D01*
X81411000Y-62481000D02*
X81310000Y-62380000D01*
X97505200Y-62481000D02*
X81411000Y-62481000D01*
X102975000Y-57011500D02*
X97505200Y-62481000D01*
X109262000Y-57011500D02*
X102975000Y-57011500D01*
X111250000Y-59000000D02*
X109262000Y-57011500D01*
%TO.N,Net-(U1-EN)*%
X114000000Y-51000000D02*
X112500000Y-52500000D01*
X117560000Y-51000000D02*
X114000000Y-51000000D01*
X117560000Y-54940000D02*
X117500000Y-55000000D01*
X77000000Y-46210000D02*
X77131000Y-46210000D01*
X62325000Y-60175000D02*
X62325000Y-62250000D01*
X76290000Y-46210000D02*
X62325000Y-60175000D01*
X77000000Y-46210000D02*
X76290000Y-46210000D01*
X117560000Y-57440000D02*
X117560000Y-54940000D01*
X117500000Y-57500000D02*
X117560000Y-57440000D01*
X117560000Y-54940000D02*
X117560000Y-54600000D01*
%TO.N,/IO21*%
X84670000Y-70000000D02*
X81170000Y-66500000D01*
X88337500Y-70000000D02*
X84670000Y-70000000D01*
X93250000Y-65087500D02*
X88337500Y-70000000D01*
X93968000Y-50020000D02*
X94500000Y-50020000D01*
X83609000Y-60379000D02*
X93968000Y-50020000D01*
X79289000Y-60379000D02*
X83609000Y-60379000D01*
X79289000Y-62481000D02*
X79289000Y-60379000D01*
X81895500Y-65087500D02*
X79289000Y-62481000D01*
X93250000Y-65087500D02*
X81895500Y-65087500D01*
%TO.N,/IO22*%
X63580000Y-72500000D02*
X82500000Y-72500000D01*
X57830000Y-66750000D02*
X63580000Y-72500000D01*
X96945200Y-52250000D02*
X96174800Y-53020400D01*
X97587500Y-52250000D02*
X96945200Y-52250000D01*
%TO.N,Net-(J5-Pin_1)*%
X68155800Y-53210000D02*
X50750000Y-53210000D01*
X75548000Y-45817800D02*
X68155800Y-53210000D01*
X75548000Y-42752900D02*
X75548000Y-45817800D01*
X75782900Y-42518000D02*
X75548000Y-42752900D01*
X78217100Y-42518000D02*
X75782900Y-42518000D01*
X78452000Y-42752900D02*
X78217100Y-42518000D01*
X78452000Y-52058000D02*
X78452000Y-42752900D01*
X77950000Y-52560000D02*
X78452000Y-52058000D01*
X77000000Y-52560000D02*
X77950000Y-52560000D01*
%TO.N,Net-(J5-Pin_2)*%
X49599000Y-56901000D02*
X50750000Y-55750000D01*
X49599000Y-61306800D02*
X49599000Y-56901000D01*
X50273200Y-61981000D02*
X49599000Y-61306800D01*
X51226800Y-61981000D02*
X50273200Y-61981000D01*
X51958800Y-61249000D02*
X51226800Y-61981000D01*
X61195700Y-61249000D02*
X51958800Y-61249000D01*
X61511500Y-61564800D02*
X61195700Y-61249000D01*
X61511500Y-62935200D02*
X61511500Y-61564800D01*
X61827300Y-63251000D02*
X61511500Y-62935200D01*
X66909000Y-63251000D02*
X61827300Y-63251000D01*
X76330000Y-53830000D02*
X66909000Y-63251000D01*
X77000000Y-53830000D02*
X76330000Y-53830000D01*
%TO.N,Net-(J5-Pin_4)*%
X61102900Y-60830000D02*
X50750000Y-60830000D01*
X75949000Y-45983900D02*
X61102900Y-60830000D01*
X75949000Y-42919000D02*
X75949000Y-45983900D01*
X78051000Y-42919000D02*
X75949000Y-42919000D01*
X78051000Y-50771000D02*
X78051000Y-42919000D01*
X77532000Y-51290000D02*
X78051000Y-50771000D01*
X77000000Y-51290000D02*
X77532000Y-51290000D01*
%TO.N,Net-(J5-Pin_3)*%
X51901000Y-57139000D02*
X50750000Y-58290000D01*
X51901000Y-55273200D02*
X51901000Y-57139000D01*
X51226800Y-54599000D02*
X51901000Y-55273200D01*
X50273200Y-54599000D02*
X51226800Y-54599000D01*
X49198000Y-55674200D02*
X50273200Y-54599000D01*
X49198000Y-61472900D02*
X49198000Y-55674200D01*
X51659100Y-63934000D02*
X49198000Y-61472900D01*
X66793100Y-63934000D02*
X51659100Y-63934000D01*
X75627100Y-55100000D02*
X66793100Y-63934000D01*
X77000000Y-55100000D02*
X75627100Y-55100000D01*
%TO.N,Net-(J4-Pin_2)*%
X94972000Y-56370000D02*
X94500000Y-56370000D01*
X98599000Y-52743000D02*
X94972000Y-56370000D01*
X98599000Y-51564800D02*
X98599000Y-52743000D01*
X98914800Y-51249000D02*
X98599000Y-51564800D01*
X99910200Y-51249000D02*
X98914800Y-51249000D01*
X102260000Y-53599000D02*
X99910200Y-51249000D01*
X119510000Y-53599000D02*
X102260000Y-53599000D01*
X119826000Y-53914800D02*
X119510000Y-53599000D01*
X119826000Y-67355200D02*
X119826000Y-53914800D01*
X116780000Y-70401000D02*
X119826000Y-67355200D01*
X76191000Y-70401000D02*
X116780000Y-70401000D01*
X71040000Y-65250000D02*
X76191000Y-70401000D01*
%TO.N,Net-(J4-Pin_1)*%
X93550000Y-60180000D02*
X94500000Y-60180000D01*
X92500000Y-59130000D02*
X93550000Y-60180000D01*
X92500000Y-55001000D02*
X92500000Y-59130000D01*
X83829000Y-55001000D02*
X87819700Y-55001000D01*
X73580000Y-65250000D02*
X83829000Y-55001000D01*
%TO.N,Net-(J3-Pin_1)*%
X96900000Y-60778000D02*
X96900000Y-61881000D01*
X95032000Y-58910000D02*
X96900000Y-60778000D01*
X94500000Y-58910000D02*
X95032000Y-58910000D01*
%TO.N,Net-(J3-Pin_2)*%
X97500000Y-59690000D02*
X95450000Y-57640000D01*
X97500000Y-60600000D02*
X97500000Y-59690000D01*
X103213000Y-62922900D02*
X97911000Y-62922900D01*
X105540000Y-65250000D02*
X103213000Y-62922900D01*
X95450000Y-57640000D02*
X94500000Y-57640000D01*
X94500000Y-57640000D02*
X95450000Y-57640000D01*
X97360000Y-57640000D02*
X97500000Y-57500000D01*
X95450000Y-57640000D02*
X97360000Y-57640000D01*
%TO.N,Net-(U4-UD-)*%
X117572000Y-40595000D02*
X117225000Y-40595000D01*
X118501000Y-39666000D02*
X117572000Y-40595000D01*
X118501000Y-37393800D02*
X118501000Y-39666000D01*
X116259000Y-35151800D02*
X118501000Y-37393800D01*
X116259000Y-33759000D02*
X116259000Y-35151800D01*
X113750000Y-31250000D02*
X116259000Y-33759000D01*
X112265000Y-31250000D02*
X113750000Y-31250000D01*
%TO.N,Net-(J1-CC1)*%
X115000000Y-26317200D02*
X115000000Y-30000000D01*
X114062000Y-25379000D02*
X115000000Y-26317200D01*
X113629000Y-25379000D02*
X114062000Y-25379000D01*
X111250000Y-23000000D02*
X113629000Y-25379000D01*
X113401000Y-31750000D02*
X113634000Y-31982500D01*
X112265000Y-31750000D02*
X113401000Y-31750000D01*
%TO.N,Net-(J1-CC2)*%
X111338000Y-28750000D02*
X112265000Y-28750000D01*
X110036000Y-27447500D02*
X111338000Y-28750000D01*
X110036000Y-22148700D02*
X110036000Y-27447500D01*
X110586000Y-21598000D02*
X110036000Y-22148700D01*
X116348000Y-21598000D02*
X110586000Y-21598000D01*
X117750000Y-23000000D02*
X116348000Y-21598000D01*
%TO.N,Net-(U4-UD+)*%
X116250000Y-41865000D02*
X117225000Y-41865000D01*
X115949000Y-41564000D02*
X116250000Y-41865000D01*
X115949000Y-39734000D02*
X115949000Y-41564000D01*
X111239000Y-35024000D02*
X115949000Y-39734000D01*
X111239000Y-29799000D02*
X111239000Y-35024000D01*
X111288000Y-29750000D02*
X111239000Y-29799000D01*
X112265000Y-29750000D02*
X111288000Y-29750000D01*
%TO.N,Net-(U4-VCC)*%
X113634000Y-28494000D02*
X113634000Y-30000000D01*
X113190000Y-28050000D02*
X113634000Y-28494000D01*
X112265000Y-28050000D02*
X113190000Y-28050000D01*
X111300000Y-46945000D02*
X112275000Y-46945000D01*
X110000000Y-45645000D02*
X111300000Y-46945000D01*
X110000000Y-45000000D02*
X110000000Y-45645000D01*
%TO.N,Net-(D2-A)*%
X115624000Y-60001000D02*
X116375000Y-59250000D01*
X110426000Y-60001000D02*
X115624000Y-60001000D01*
X109425000Y-59000000D02*
X110426000Y-60001000D01*
%TO.N,/+5v*%
X69800000Y-45700000D02*
X70000000Y-45500000D01*
X66800000Y-45700000D02*
X69800000Y-45700000D01*
X48825000Y-33475000D02*
X48825000Y-35775000D01*
X49126000Y-33174000D02*
X48825000Y-33475000D01*
X52760200Y-33174000D02*
X49126000Y-33174000D01*
X53925000Y-34338800D02*
X52760200Y-33174000D01*
X53925000Y-35775000D02*
X53925000Y-34338800D01*
X63386200Y-45700000D02*
X66800000Y-45700000D01*
X57610200Y-39924000D02*
X63386200Y-45700000D01*
X55774000Y-39924000D02*
X57610200Y-39924000D01*
X53925000Y-38075000D02*
X55774000Y-39924000D01*
X53925000Y-35775000D02*
X53925000Y-38075000D01*
%TO.N,Net-(U3-VIN)*%
X55650000Y-35750000D02*
X55625000Y-35775000D01*
X59750000Y-35750000D02*
X55650000Y-35750000D01*
X57500000Y-33500000D02*
X59750000Y-35750000D01*
X57500000Y-26500000D02*
X57500000Y-33500000D01*
X57500000Y-33900000D02*
X57500000Y-26500000D01*
X55625000Y-35775000D02*
X57500000Y-33900000D01*
%TO.N,GND*%
X113075000Y-23000000D02*
X115925000Y-23000000D01*
X48797000Y-48353000D02*
X52225000Y-44925000D01*
X48797000Y-61639000D02*
X48797000Y-48353000D01*
X51493000Y-64335000D02*
X48797000Y-61639000D01*
X52875000Y-64335000D02*
X51493000Y-64335000D01*
X55290000Y-66750000D02*
X52875000Y-64335000D01*
X118349000Y-63721000D02*
X118870000Y-63200000D01*
X118349000Y-66279000D02*
X118349000Y-63721000D01*
X118870000Y-66800000D02*
X118349000Y-66279000D01*
X99709500Y-56434500D02*
X99709500Y-59400000D01*
X99275000Y-56000000D02*
X99709500Y-56434500D01*
X52225000Y-35775000D02*
X52225000Y-44925000D01*
X56950000Y-62500000D02*
X55075000Y-62500000D01*
X119000000Y-48720000D02*
X119000000Y-51000000D01*
X117225000Y-46945000D02*
X119000000Y-48720000D01*
X118870000Y-59870000D02*
X118250000Y-59250000D01*
X118870000Y-63200000D02*
X118870000Y-59870000D01*
X119000000Y-58500000D02*
X118250000Y-59250000D01*
X119000000Y-54600000D02*
X119000000Y-58500000D01*
X116747000Y-71001000D02*
X100000000Y-71001000D01*
X120227000Y-67521300D02*
X116747000Y-71001000D01*
X120227000Y-52227000D02*
X120227000Y-67521300D01*
X119000000Y-51000000D02*
X120227000Y-52227000D01*
X112630000Y-26180000D02*
X113180000Y-26180000D01*
X110436000Y-23986500D02*
X112630000Y-26180000D01*
X110436000Y-22314800D02*
X110436000Y-23986500D01*
X110752000Y-21999000D02*
X110436000Y-22314800D01*
X112074000Y-21999000D02*
X110752000Y-21999000D01*
X113075000Y-23000000D02*
X112074000Y-21999000D01*
X105551000Y-67801000D02*
X103000000Y-65250000D01*
X117940000Y-67801000D02*
X105551000Y-67801000D01*
X118256000Y-67485200D02*
X117940000Y-67801000D01*
X118256000Y-55415200D02*
X118256000Y-67485200D01*
X119000000Y-54671200D02*
X118256000Y-55415200D01*
X119000000Y-54600000D02*
X119000000Y-54671200D01*
X82002000Y-63875000D02*
X83625000Y-63875000D01*
X80040000Y-61913000D02*
X82002000Y-63875000D01*
X80040000Y-61430000D02*
X80040000Y-61913000D01*
X77300000Y-43670000D02*
X77451000Y-43519000D01*
X77000000Y-43670000D02*
X77300000Y-43670000D01*
X84307500Y-52535000D02*
X83545000Y-52535000D01*
X84307500Y-49485000D02*
X85070000Y-49485000D01*
X85832500Y-49485000D02*
X86595000Y-49485000D01*
X112500000Y-27250000D02*
X112265000Y-27250000D01*
X84307500Y-51010000D02*
X83545000Y-51010000D01*
X111828300Y-34186700D02*
X112265000Y-33750000D01*
X111828300Y-34820000D02*
X111828300Y-34186700D01*
X113180000Y-34820000D02*
X111828300Y-34820000D01*
X85832500Y-52535000D02*
X86595000Y-52535000D01*
X66800000Y-50300000D02*
X68150000Y-50300000D01*
X68150000Y-50300000D02*
X72950000Y-45500000D01*
X66800000Y-50300000D02*
X68150000Y-50300000D01*
X69700000Y-50300000D02*
X73750000Y-46250000D01*
X68150000Y-50300000D02*
X69700000Y-50300000D01*
X86490000Y-51010000D02*
X85832500Y-51010000D01*
X93830000Y-43670000D02*
X86490000Y-51010000D01*
X94500000Y-43670000D02*
X93830000Y-43670000D01*
X85832500Y-51010000D02*
X85070000Y-51010000D01*
%TO.N,/+3.3v*%
X60500000Y-52000000D02*
X60000000Y-52500000D01*
X60500000Y-48000000D02*
X60500000Y-52000000D01*
X106000000Y-56000000D02*
X105000000Y-55000000D01*
X106250000Y-56000000D02*
X106000000Y-56000000D01*
X66800000Y-48000000D02*
X60500000Y-48000000D01*
X90000000Y-69462500D02*
X90000000Y-69801000D01*
X92550000Y-66912500D02*
X90000000Y-69462500D01*
X93250000Y-66912500D02*
X92550000Y-66912500D01*
X58901000Y-62250000D02*
X58500000Y-61849000D01*
X60500000Y-62250000D02*
X58901000Y-62250000D01*
X53824000Y-62324000D02*
X54000000Y-62500000D01*
X52422200Y-62324000D02*
X53824000Y-62324000D01*
X102225000Y-55062500D02*
X100460700Y-53298100D01*
X102225000Y-56000000D02*
X102225000Y-55062500D01*
X100460700Y-53298100D02*
X99412500Y-52250000D01*
%TD*%
M02*
