%TF.GenerationSoftware,KiCad,Pcbnew,9.0.2*%
%TF.CreationDate,2025-07-02T17:04:08+05:30*%
%TF.ProjectId,ESP32-RoboCore V1,45535033-322d-4526-9f62-6f436f726520,rev?*%
%TF.SameCoordinates,Original*%
%TF.FileFunction,Drillmap*%
%TF.FilePolarity,Positive*%
%FSLAX45Y45*%
G04 Gerber Fmt 4.5, Leading zero omitted, Abs format (unit mm)*
G04 Created by KiCad (PCBNEW 9.0.2) date 2025-07-02 17:04:08*
%MOMM*%
%LPD*%
G01*
G04 APERTURE LIST*
%ADD10C,0.200000*%
%ADD11C,0.100000*%
%ADD12C,0.102000*%
%ADD13C,0.160000*%
G04 APERTURE END LIST*
D10*
D11*
X8344500Y-5014750D02*
X8364500Y-5034750D01*
X8364500Y-5014750D02*
X8344500Y-5034750D01*
X8344500Y-5167250D02*
X8364500Y-5187250D01*
X8364500Y-5167250D02*
X8344500Y-5187250D01*
X8420750Y-4938500D02*
X8440750Y-4958500D01*
X8440750Y-4938500D02*
X8420750Y-4958500D01*
X8420750Y-5091000D02*
X8440750Y-5111000D01*
X8440750Y-5091000D02*
X8420750Y-5111000D01*
X8420750Y-5243500D02*
X8440750Y-5263500D01*
X8440750Y-5243500D02*
X8420750Y-5263500D01*
X8497000Y-5014750D02*
X8517000Y-5034750D01*
X8517000Y-5014750D02*
X8497000Y-5034750D01*
X8497000Y-5167250D02*
X8517000Y-5187250D01*
X8517000Y-5167250D02*
X8497000Y-5187250D01*
X8573250Y-4938500D02*
X8593250Y-4958500D01*
X8593250Y-4938500D02*
X8573250Y-4958500D01*
X8573250Y-5091000D02*
X8593250Y-5111000D01*
X8593250Y-5091000D02*
X8573250Y-5111000D01*
X8573250Y-5243500D02*
X8593250Y-5263500D01*
X8593250Y-5243500D02*
X8573250Y-5263500D01*
X8649500Y-5014750D02*
X8669500Y-5034750D01*
X8669500Y-5014750D02*
X8649500Y-5034750D01*
X8649500Y-5167250D02*
X8669500Y-5187250D01*
X8669500Y-5167250D02*
X8649500Y-5187250D01*
X5257220Y-6232400D02*
G75*
G02*
X5227220Y-6232400I-15000J0D01*
G01*
X5227220Y-6232400D02*
G75*
G02*
X5257220Y-6232400I15000J0D01*
G01*
X5265000Y-3500000D02*
G75*
G02*
X5235000Y-3500000I-15000J0D01*
G01*
X5235000Y-3500000D02*
G75*
G02*
X5265000Y-3500000I15000J0D01*
G01*
X5522500Y-6250000D02*
G75*
G02*
X5492500Y-6250000I-15000J0D01*
G01*
X5492500Y-6250000D02*
G75*
G02*
X5522500Y-6250000I15000J0D01*
G01*
X5865000Y-6184900D02*
G75*
G02*
X5835000Y-6184900I-15000J0D01*
G01*
X5835000Y-6184900D02*
G75*
G02*
X5865000Y-6184900I15000J0D01*
G01*
X5990000Y-3870000D02*
G75*
G02*
X5960000Y-3870000I-15000J0D01*
G01*
X5960000Y-3870000D02*
G75*
G02*
X5990000Y-3870000I15000J0D01*
G01*
X6015000Y-5250000D02*
G75*
G02*
X5985000Y-5250000I-15000J0D01*
G01*
X5985000Y-5250000D02*
G75*
G02*
X6015000Y-5250000I15000J0D01*
G01*
X7015000Y-5750000D02*
G75*
G02*
X6985000Y-5750000I-15000J0D01*
G01*
X6985000Y-5750000D02*
G75*
G02*
X7015000Y-5750000I15000J0D01*
G01*
X7390000Y-4625000D02*
G75*
G02*
X7360000Y-4625000I-15000J0D01*
G01*
X7360000Y-4625000D02*
G75*
G02*
X7390000Y-4625000I15000J0D01*
G01*
X7760100Y-4351900D02*
G75*
G02*
X7730100Y-4351900I-15000J0D01*
G01*
X7730100Y-4351900D02*
G75*
G02*
X7760100Y-4351900I15000J0D01*
G01*
X8265000Y-6188100D02*
G75*
G02*
X8235000Y-6188100I-15000J0D01*
G01*
X8235000Y-6188100D02*
G75*
G02*
X8265000Y-6188100I15000J0D01*
G01*
X8265000Y-7250000D02*
G75*
G02*
X8235000Y-7250000I-15000J0D01*
G01*
X8235000Y-7250000D02*
G75*
G02*
X8265000Y-7250000I15000J0D01*
G01*
X8377500Y-6387500D02*
G75*
G02*
X8347500Y-6387500I-15000J0D01*
G01*
X8347500Y-6387500D02*
G75*
G02*
X8377500Y-6387500I15000J0D01*
G01*
X8520880Y-6940000D02*
G75*
G02*
X8490880Y-6940000I-15000J0D01*
G01*
X8490880Y-6940000D02*
G75*
G02*
X8520880Y-6940000I15000J0D01*
G01*
X8796970Y-5500100D02*
G75*
G02*
X8766970Y-5500100I-15000J0D01*
G01*
X8766970Y-5500100D02*
G75*
G02*
X8796970Y-5500100I15000J0D01*
G01*
X9015000Y-6980100D02*
G75*
G02*
X8985000Y-6980100I-15000J0D01*
G01*
X8985000Y-6980100D02*
G75*
G02*
X9015000Y-6980100I15000J0D01*
G01*
X9265000Y-5500100D02*
G75*
G02*
X9235000Y-5500100I-15000J0D01*
G01*
X9235000Y-5500100D02*
G75*
G02*
X9265000Y-5500100I15000J0D01*
G01*
X9465000Y-4621000D02*
G75*
G02*
X9435000Y-4621000I-15000J0D01*
G01*
X9435000Y-4621000D02*
G75*
G02*
X9465000Y-4621000I15000J0D01*
G01*
X9632480Y-5302040D02*
G75*
G02*
X9602480Y-5302040I-15000J0D01*
G01*
X9602480Y-5302040D02*
G75*
G02*
X9632480Y-5302040I15000J0D01*
G01*
X9705000Y-6188100D02*
G75*
G02*
X9675000Y-6188100I-15000J0D01*
G01*
X9675000Y-6188100D02*
G75*
G02*
X9705000Y-6188100I15000J0D01*
G01*
X9765000Y-4500000D02*
G75*
G02*
X9735000Y-4500000I-15000J0D01*
G01*
X9735000Y-4500000D02*
G75*
G02*
X9765000Y-4500000I15000J0D01*
G01*
X9765000Y-5750000D02*
G75*
G02*
X9735000Y-5750000I-15000J0D01*
G01*
X9735000Y-5750000D02*
G75*
G02*
X9765000Y-5750000I15000J0D01*
G01*
X9765000Y-6060000D02*
G75*
G02*
X9735000Y-6060000I-15000J0D01*
G01*
X9735000Y-6060000D02*
G75*
G02*
X9765000Y-6060000I15000J0D01*
G01*
X9806100Y-6292290D02*
G75*
G02*
X9776100Y-6292290I-15000J0D01*
G01*
X9776100Y-6292290D02*
G75*
G02*
X9806100Y-6292290I15000J0D01*
G01*
X9985950Y-5940000D02*
G75*
G02*
X9955950Y-5940000I-15000J0D01*
G01*
X9955950Y-5940000D02*
G75*
G02*
X9985950Y-5940000I15000J0D01*
G01*
X10015000Y-7100100D02*
G75*
G02*
X9985000Y-7100100I-15000J0D01*
G01*
X9985000Y-7100100D02*
G75*
G02*
X10015000Y-7100100I15000J0D01*
G01*
X10061070Y-5329810D02*
G75*
G02*
X10031070Y-5329810I-15000J0D01*
G01*
X10031070Y-5329810D02*
G75*
G02*
X10061070Y-5329810I15000J0D01*
G01*
X10265000Y-6000000D02*
G75*
G02*
X10235000Y-6000000I-15000J0D01*
G01*
X10235000Y-6000000D02*
G75*
G02*
X10265000Y-6000000I15000J0D01*
G01*
X10515000Y-5500000D02*
G75*
G02*
X10485000Y-5500000I-15000J0D01*
G01*
X10485000Y-5500000D02*
G75*
G02*
X10515000Y-5500000I15000J0D01*
G01*
X11015000Y-4500000D02*
G75*
G02*
X10985000Y-4500000I-15000J0D01*
G01*
X10985000Y-4500000D02*
G75*
G02*
X11015000Y-4500000I15000J0D01*
G01*
X11241500Y-3295000D02*
G75*
G02*
X11211500Y-3295000I-15000J0D01*
G01*
X11211500Y-3295000D02*
G75*
G02*
X11241500Y-3295000I15000J0D01*
G01*
X11265000Y-2725000D02*
G75*
G02*
X11235000Y-2725000I-15000J0D01*
G01*
X11235000Y-2725000D02*
G75*
G02*
X11265000Y-2725000I15000J0D01*
G01*
X11265000Y-5250000D02*
G75*
G02*
X11235000Y-5250000I-15000J0D01*
G01*
X11235000Y-5250000D02*
G75*
G02*
X11265000Y-5250000I15000J0D01*
G01*
X11378400Y-3000000D02*
G75*
G02*
X11348400Y-3000000I-15000J0D01*
G01*
X11348400Y-3000000D02*
G75*
G02*
X11378400Y-3000000I15000J0D01*
G01*
X11378400Y-3198250D02*
G75*
G02*
X11348400Y-3198250I-15000J0D01*
G01*
X11348400Y-3198250D02*
G75*
G02*
X11378400Y-3198250I15000J0D01*
G01*
X11515000Y-3000000D02*
G75*
G02*
X11485000Y-3000000I-15000J0D01*
G01*
X11485000Y-3000000D02*
G75*
G02*
X11515000Y-3000000I15000J0D01*
G01*
X11528676Y-4763677D02*
G75*
G02*
X11498676Y-4763677I-15000J0D01*
G01*
X11498676Y-4763677D02*
G75*
G02*
X11528676Y-4763677I15000J0D01*
G01*
X11737500Y-4313500D02*
G75*
G02*
X11707500Y-4313500I-15000J0D01*
G01*
X11707500Y-4313500D02*
G75*
G02*
X11737500Y-4313500I15000J0D01*
G01*
X11765000Y-5750000D02*
G75*
G02*
X11735000Y-5750000I-15000J0D01*
G01*
X11735000Y-5750000D02*
G75*
G02*
X11765000Y-5750000I15000J0D01*
G01*
X11318000Y-2588000D02*
X11318000Y-2648000D01*
X11288000Y-2618000D02*
X11348000Y-2618000D01*
X11263000Y-2648000D02*
X11373000Y-2648000D01*
X11373000Y-2588000D02*
G75*
G02*
X11373000Y-2648000I0J-30000D01*
G01*
X11373000Y-2588000D02*
X11263000Y-2588000D01*
X11263000Y-2588000D02*
G75*
G03*
X11263000Y-2648000I0J-30000D01*
G01*
X11318000Y-3452000D02*
X11318000Y-3512000D01*
X11288000Y-3482000D02*
X11348000Y-3482000D01*
X11263000Y-3512000D02*
X11373000Y-3512000D01*
X11373000Y-3452000D02*
G75*
G02*
X11373000Y-3512000I0J-30000D01*
G01*
X11373000Y-3452000D02*
X11263000Y-3452000D01*
X11263000Y-3452000D02*
G75*
G03*
X11263000Y-3512000I0J-30000D01*
G01*
X11736000Y-2588000D02*
X11736000Y-2648000D01*
X11706000Y-2618000D02*
X11766000Y-2618000D01*
X11706000Y-2648000D02*
X11766000Y-2648000D01*
X11766000Y-2588000D02*
G75*
G02*
X11766000Y-2648000I0J-30000D01*
G01*
X11766000Y-2588000D02*
X11706000Y-2588000D01*
X11706000Y-2588000D02*
G75*
G03*
X11706000Y-2648000I0J-30000D01*
G01*
X11736000Y-3452000D02*
X11736000Y-3512000D01*
X11706000Y-3482000D02*
X11766000Y-3482000D01*
X11706000Y-3512000D02*
X11766000Y-3512000D01*
X11766000Y-3452000D02*
G75*
G02*
X11766000Y-3512000I0J-30000D01*
G01*
X11766000Y-3452000D02*
X11706000Y-3452000D01*
X11706000Y-3452000D02*
G75*
G03*
X11706000Y-3512000I0J-30000D01*
G01*
X5110356Y-5356356D02*
X5110356Y-5285644D01*
X5039644Y-5285644D01*
X5039644Y-5356356D01*
X5110356Y-5356356D01*
X5110356Y-5610356D02*
X5110356Y-5539644D01*
X5039644Y-5539644D01*
X5039644Y-5610356D01*
X5110356Y-5610356D01*
X5110356Y-5864356D02*
X5110356Y-5793644D01*
X5039644Y-5793644D01*
X5039644Y-5864356D01*
X5110356Y-5864356D01*
X5110356Y-6118356D02*
X5110356Y-6047644D01*
X5039644Y-6047644D01*
X5039644Y-6118356D01*
X5110356Y-6118356D01*
X5310356Y-6710356D02*
X5310356Y-6639644D01*
X5239644Y-6639644D01*
X5239644Y-6710356D01*
X5310356Y-6710356D01*
X5564356Y-6710356D02*
X5564356Y-6639644D01*
X5493644Y-6639644D01*
X5493644Y-6710356D01*
X5564356Y-6710356D01*
X5818356Y-6710356D02*
X5818356Y-6639644D01*
X5747644Y-6639644D01*
X5747644Y-6710356D01*
X5818356Y-6710356D01*
X6072356Y-6710356D02*
X6072356Y-6639644D01*
X6001644Y-6639644D01*
X6001644Y-6710356D01*
X6072356Y-6710356D01*
X8152356Y-6685356D02*
X8152356Y-6614644D01*
X8081644Y-6614644D01*
X8081644Y-6685356D01*
X8152356Y-6685356D01*
X8406356Y-6685356D02*
X8406356Y-6614644D01*
X8335644Y-6614644D01*
X8335644Y-6685356D01*
X8406356Y-6685356D01*
X8660356Y-6685356D02*
X8660356Y-6614644D01*
X8589644Y-6614644D01*
X8589644Y-6685356D01*
X8660356Y-6685356D01*
X8914356Y-6685356D02*
X8914356Y-6614644D01*
X8843644Y-6614644D01*
X8843644Y-6685356D01*
X8914356Y-6685356D01*
D12*
X6596000Y-6576000D02*
X6647000Y-6525000D01*
X6596000Y-6474000D01*
X6545000Y-6525000D01*
X6596000Y-6576000D01*
X6850000Y-6576000D02*
X6901000Y-6525000D01*
X6850000Y-6474000D01*
X6799000Y-6525000D01*
X6850000Y-6576000D01*
X7104000Y-6576000D02*
X7155000Y-6525000D01*
X7104000Y-6474000D01*
X7053000Y-6525000D01*
X7104000Y-6576000D01*
X7358000Y-6576000D02*
X7409000Y-6525000D01*
X7358000Y-6474000D01*
X7307000Y-6525000D01*
X7358000Y-6576000D01*
X10300000Y-6576000D02*
X10351000Y-6525000D01*
X10300000Y-6474000D01*
X10249000Y-6525000D01*
X10300000Y-6576000D01*
X10554000Y-6576000D02*
X10605000Y-6525000D01*
X10554000Y-6474000D01*
X10503000Y-6525000D01*
X10554000Y-6576000D01*
X10808000Y-6576000D02*
X10859000Y-6525000D01*
X10808000Y-6474000D01*
X10757000Y-6525000D01*
X10808000Y-6576000D01*
D13*
X5070000Y-2570000D02*
X5230000Y-2730000D01*
X5230000Y-2570000D02*
X5070000Y-2730000D01*
X5230000Y-2650000D02*
G75*
G02*
X5070000Y-2650000I-80000J0D01*
G01*
X5070000Y-2650000D02*
G75*
G02*
X5230000Y-2650000I80000J0D01*
G01*
X5370000Y-3040000D02*
X5530000Y-3200000D01*
X5530000Y-3040000D02*
X5370000Y-3200000D01*
X5530000Y-3120000D02*
G75*
G02*
X5370000Y-3120000I-80000J0D01*
G01*
X5370000Y-3120000D02*
G75*
G02*
X5530000Y-3120000I80000J0D01*
G01*
X5670000Y-2570000D02*
X5830000Y-2730000D01*
X5830000Y-2570000D02*
X5670000Y-2730000D01*
X5830000Y-2650000D02*
G75*
G02*
X5670000Y-2650000I-80000J0D01*
G01*
X5670000Y-2650000D02*
G75*
G02*
X5830000Y-2650000I80000J0D01*
G01*
D10*
X260777Y-311484D02*
X260777Y-111484D01*
X260777Y-111484D02*
X308396Y-111484D01*
X308396Y-111484D02*
X336967Y-121008D01*
X336967Y-121008D02*
X356015Y-140055D01*
X356015Y-140055D02*
X365539Y-159103D01*
X365539Y-159103D02*
X375062Y-197198D01*
X375062Y-197198D02*
X375062Y-225769D01*
X375062Y-225769D02*
X365539Y-263865D01*
X365539Y-263865D02*
X356015Y-282912D01*
X356015Y-282912D02*
X336967Y-301960D01*
X336967Y-301960D02*
X308396Y-311484D01*
X308396Y-311484D02*
X260777Y-311484D01*
X460777Y-311484D02*
X460777Y-178150D01*
X460777Y-216246D02*
X470301Y-197198D01*
X470301Y-197198D02*
X479824Y-187674D01*
X479824Y-187674D02*
X498872Y-178150D01*
X498872Y-178150D02*
X517920Y-178150D01*
X584586Y-311484D02*
X584586Y-178150D01*
X584586Y-111484D02*
X575063Y-121008D01*
X575063Y-121008D02*
X584586Y-130531D01*
X584586Y-130531D02*
X594110Y-121008D01*
X594110Y-121008D02*
X584586Y-111484D01*
X584586Y-111484D02*
X584586Y-130531D01*
X708396Y-311484D02*
X689348Y-301960D01*
X689348Y-301960D02*
X679824Y-282912D01*
X679824Y-282912D02*
X679824Y-111484D01*
X813158Y-311484D02*
X794110Y-301960D01*
X794110Y-301960D02*
X784586Y-282912D01*
X784586Y-282912D02*
X784586Y-111484D01*
X1041729Y-311484D02*
X1041729Y-111484D01*
X1041729Y-111484D02*
X1108396Y-254341D01*
X1108396Y-254341D02*
X1175063Y-111484D01*
X1175063Y-111484D02*
X1175063Y-311484D01*
X1356015Y-311484D02*
X1356015Y-206722D01*
X1356015Y-206722D02*
X1346491Y-187674D01*
X1346491Y-187674D02*
X1327444Y-178150D01*
X1327444Y-178150D02*
X1289348Y-178150D01*
X1289348Y-178150D02*
X1270301Y-187674D01*
X1356015Y-301960D02*
X1336967Y-311484D01*
X1336967Y-311484D02*
X1289348Y-311484D01*
X1289348Y-311484D02*
X1270301Y-301960D01*
X1270301Y-301960D02*
X1260777Y-282912D01*
X1260777Y-282912D02*
X1260777Y-263865D01*
X1260777Y-263865D02*
X1270301Y-244817D01*
X1270301Y-244817D02*
X1289348Y-235293D01*
X1289348Y-235293D02*
X1336967Y-235293D01*
X1336967Y-235293D02*
X1356015Y-225769D01*
X1451253Y-178150D02*
X1451253Y-378150D01*
X1451253Y-187674D02*
X1470301Y-178150D01*
X1470301Y-178150D02*
X1508396Y-178150D01*
X1508396Y-178150D02*
X1527443Y-187674D01*
X1527443Y-187674D02*
X1536967Y-197198D01*
X1536967Y-197198D02*
X1546491Y-216246D01*
X1546491Y-216246D02*
X1546491Y-273389D01*
X1546491Y-273389D02*
X1536967Y-292436D01*
X1536967Y-292436D02*
X1527443Y-301960D01*
X1527443Y-301960D02*
X1508396Y-311484D01*
X1508396Y-311484D02*
X1470301Y-311484D01*
X1470301Y-311484D02*
X1451253Y-301960D01*
X1632205Y-292436D02*
X1641729Y-301960D01*
X1641729Y-301960D02*
X1632205Y-311484D01*
X1632205Y-311484D02*
X1622682Y-301960D01*
X1622682Y-301960D02*
X1632205Y-292436D01*
X1632205Y-292436D02*
X1632205Y-311484D01*
X1632205Y-187674D02*
X1641729Y-197198D01*
X1641729Y-197198D02*
X1632205Y-206722D01*
X1632205Y-206722D02*
X1622682Y-197198D01*
X1622682Y-197198D02*
X1632205Y-187674D01*
X1632205Y-187674D02*
X1632205Y-206722D01*
D11*
X-20000Y-630000D02*
X0Y-650000D01*
X0Y-630000D02*
X-20000Y-650000D01*
D10*
X298872Y-531484D02*
X317920Y-531484D01*
X317920Y-531484D02*
X336967Y-541008D01*
X336967Y-541008D02*
X346491Y-550531D01*
X346491Y-550531D02*
X356015Y-569579D01*
X356015Y-569579D02*
X365539Y-607674D01*
X365539Y-607674D02*
X365539Y-655293D01*
X365539Y-655293D02*
X356015Y-693389D01*
X356015Y-693389D02*
X346491Y-712436D01*
X346491Y-712436D02*
X336967Y-721960D01*
X336967Y-721960D02*
X317920Y-731484D01*
X317920Y-731484D02*
X298872Y-731484D01*
X298872Y-731484D02*
X279824Y-721960D01*
X279824Y-721960D02*
X270301Y-712436D01*
X270301Y-712436D02*
X260777Y-693389D01*
X260777Y-693389D02*
X251253Y-655293D01*
X251253Y-655293D02*
X251253Y-607674D01*
X251253Y-607674D02*
X260777Y-569579D01*
X260777Y-569579D02*
X270301Y-550531D01*
X270301Y-550531D02*
X279824Y-541008D01*
X279824Y-541008D02*
X298872Y-531484D01*
X451253Y-712436D02*
X460777Y-721960D01*
X460777Y-721960D02*
X451253Y-731484D01*
X451253Y-731484D02*
X441729Y-721960D01*
X441729Y-721960D02*
X451253Y-712436D01*
X451253Y-712436D02*
X451253Y-731484D01*
X536967Y-550531D02*
X546491Y-541008D01*
X546491Y-541008D02*
X565539Y-531484D01*
X565539Y-531484D02*
X613158Y-531484D01*
X613158Y-531484D02*
X632205Y-541008D01*
X632205Y-541008D02*
X641729Y-550531D01*
X641729Y-550531D02*
X651253Y-569579D01*
X651253Y-569579D02*
X651253Y-588627D01*
X651253Y-588627D02*
X641729Y-617198D01*
X641729Y-617198D02*
X527444Y-731484D01*
X527444Y-731484D02*
X651253Y-731484D01*
X775062Y-531484D02*
X794110Y-531484D01*
X794110Y-531484D02*
X813158Y-541008D01*
X813158Y-541008D02*
X822682Y-550531D01*
X822682Y-550531D02*
X832205Y-569579D01*
X832205Y-569579D02*
X841729Y-607674D01*
X841729Y-607674D02*
X841729Y-655293D01*
X841729Y-655293D02*
X832205Y-693389D01*
X832205Y-693389D02*
X822682Y-712436D01*
X822682Y-712436D02*
X813158Y-721960D01*
X813158Y-721960D02*
X794110Y-731484D01*
X794110Y-731484D02*
X775062Y-731484D01*
X775062Y-731484D02*
X756015Y-721960D01*
X756015Y-721960D02*
X746491Y-712436D01*
X746491Y-712436D02*
X736967Y-693389D01*
X736967Y-693389D02*
X727443Y-655293D01*
X727443Y-655293D02*
X727443Y-607674D01*
X727443Y-607674D02*
X736967Y-569579D01*
X736967Y-569579D02*
X746491Y-550531D01*
X746491Y-550531D02*
X756015Y-541008D01*
X756015Y-541008D02*
X775062Y-531484D01*
X965539Y-531484D02*
X984586Y-531484D01*
X984586Y-531484D02*
X1003634Y-541008D01*
X1003634Y-541008D02*
X1013158Y-550531D01*
X1013158Y-550531D02*
X1022682Y-569579D01*
X1022682Y-569579D02*
X1032205Y-607674D01*
X1032205Y-607674D02*
X1032205Y-655293D01*
X1032205Y-655293D02*
X1022682Y-693389D01*
X1022682Y-693389D02*
X1013158Y-712436D01*
X1013158Y-712436D02*
X1003634Y-721960D01*
X1003634Y-721960D02*
X984586Y-731484D01*
X984586Y-731484D02*
X965539Y-731484D01*
X965539Y-731484D02*
X946491Y-721960D01*
X946491Y-721960D02*
X936967Y-712436D01*
X936967Y-712436D02*
X927443Y-693389D01*
X927443Y-693389D02*
X917920Y-655293D01*
X917920Y-655293D02*
X917920Y-607674D01*
X917920Y-607674D02*
X927443Y-569579D01*
X927443Y-569579D02*
X936967Y-550531D01*
X936967Y-550531D02*
X946491Y-541008D01*
X946491Y-541008D02*
X965539Y-531484D01*
X1117920Y-731484D02*
X1117920Y-598150D01*
X1117920Y-617198D02*
X1127444Y-607674D01*
X1127444Y-607674D02*
X1146491Y-598150D01*
X1146491Y-598150D02*
X1175063Y-598150D01*
X1175063Y-598150D02*
X1194110Y-607674D01*
X1194110Y-607674D02*
X1203634Y-626722D01*
X1203634Y-626722D02*
X1203634Y-731484D01*
X1203634Y-626722D02*
X1213158Y-607674D01*
X1213158Y-607674D02*
X1232205Y-598150D01*
X1232205Y-598150D02*
X1260777Y-598150D01*
X1260777Y-598150D02*
X1279825Y-607674D01*
X1279825Y-607674D02*
X1289348Y-626722D01*
X1289348Y-626722D02*
X1289348Y-731484D01*
X1384586Y-731484D02*
X1384586Y-598150D01*
X1384586Y-617198D02*
X1394110Y-607674D01*
X1394110Y-607674D02*
X1413158Y-598150D01*
X1413158Y-598150D02*
X1441729Y-598150D01*
X1441729Y-598150D02*
X1460777Y-607674D01*
X1460777Y-607674D02*
X1470301Y-626722D01*
X1470301Y-626722D02*
X1470301Y-731484D01*
X1470301Y-626722D02*
X1479824Y-607674D01*
X1479824Y-607674D02*
X1498872Y-598150D01*
X1498872Y-598150D02*
X1527443Y-598150D01*
X1527443Y-598150D02*
X1546491Y-607674D01*
X1546491Y-607674D02*
X1556015Y-626722D01*
X1556015Y-626722D02*
X1556015Y-731484D01*
X1946491Y-521960D02*
X1775063Y-779103D01*
X2203634Y-531484D02*
X2222682Y-531484D01*
X2222682Y-531484D02*
X2241729Y-541008D01*
X2241729Y-541008D02*
X2251253Y-550531D01*
X2251253Y-550531D02*
X2260777Y-569579D01*
X2260777Y-569579D02*
X2270301Y-607674D01*
X2270301Y-607674D02*
X2270301Y-655293D01*
X2270301Y-655293D02*
X2260777Y-693389D01*
X2260777Y-693389D02*
X2251253Y-712436D01*
X2251253Y-712436D02*
X2241729Y-721960D01*
X2241729Y-721960D02*
X2222682Y-731484D01*
X2222682Y-731484D02*
X2203634Y-731484D01*
X2203634Y-731484D02*
X2184587Y-721960D01*
X2184587Y-721960D02*
X2175063Y-712436D01*
X2175063Y-712436D02*
X2165539Y-693389D01*
X2165539Y-693389D02*
X2156015Y-655293D01*
X2156015Y-655293D02*
X2156015Y-607674D01*
X2156015Y-607674D02*
X2165539Y-569579D01*
X2165539Y-569579D02*
X2175063Y-550531D01*
X2175063Y-550531D02*
X2184587Y-541008D01*
X2184587Y-541008D02*
X2203634Y-531484D01*
X2356015Y-712436D02*
X2365539Y-721960D01*
X2365539Y-721960D02*
X2356015Y-731484D01*
X2356015Y-731484D02*
X2346491Y-721960D01*
X2346491Y-721960D02*
X2356015Y-712436D01*
X2356015Y-712436D02*
X2356015Y-731484D01*
X2489348Y-531484D02*
X2508396Y-531484D01*
X2508396Y-531484D02*
X2527444Y-541008D01*
X2527444Y-541008D02*
X2536968Y-550531D01*
X2536968Y-550531D02*
X2546491Y-569579D01*
X2546491Y-569579D02*
X2556015Y-607674D01*
X2556015Y-607674D02*
X2556015Y-655293D01*
X2556015Y-655293D02*
X2546491Y-693389D01*
X2546491Y-693389D02*
X2536968Y-712436D01*
X2536968Y-712436D02*
X2527444Y-721960D01*
X2527444Y-721960D02*
X2508396Y-731484D01*
X2508396Y-731484D02*
X2489348Y-731484D01*
X2489348Y-731484D02*
X2470301Y-721960D01*
X2470301Y-721960D02*
X2460777Y-712436D01*
X2460777Y-712436D02*
X2451253Y-693389D01*
X2451253Y-693389D02*
X2441729Y-655293D01*
X2441729Y-655293D02*
X2441729Y-607674D01*
X2441729Y-607674D02*
X2451253Y-569579D01*
X2451253Y-569579D02*
X2460777Y-550531D01*
X2460777Y-550531D02*
X2470301Y-541008D01*
X2470301Y-541008D02*
X2489348Y-531484D01*
X2679825Y-531484D02*
X2698872Y-531484D01*
X2698872Y-531484D02*
X2717920Y-541008D01*
X2717920Y-541008D02*
X2727444Y-550531D01*
X2727444Y-550531D02*
X2736968Y-569579D01*
X2736968Y-569579D02*
X2746491Y-607674D01*
X2746491Y-607674D02*
X2746491Y-655293D01*
X2746491Y-655293D02*
X2736968Y-693389D01*
X2736968Y-693389D02*
X2727444Y-712436D01*
X2727444Y-712436D02*
X2717920Y-721960D01*
X2717920Y-721960D02*
X2698872Y-731484D01*
X2698872Y-731484D02*
X2679825Y-731484D01*
X2679825Y-731484D02*
X2660777Y-721960D01*
X2660777Y-721960D02*
X2651253Y-712436D01*
X2651253Y-712436D02*
X2641729Y-693389D01*
X2641729Y-693389D02*
X2632206Y-655293D01*
X2632206Y-655293D02*
X2632206Y-607674D01*
X2632206Y-607674D02*
X2641729Y-569579D01*
X2641729Y-569579D02*
X2651253Y-550531D01*
X2651253Y-550531D02*
X2660777Y-541008D01*
X2660777Y-541008D02*
X2679825Y-531484D01*
X2813158Y-531484D02*
X2946491Y-531484D01*
X2946491Y-531484D02*
X2860777Y-731484D01*
X3032206Y-731484D02*
X3070301Y-731484D01*
X3070301Y-731484D02*
X3089348Y-721960D01*
X3089348Y-721960D02*
X3098872Y-712436D01*
X3098872Y-712436D02*
X3117920Y-683865D01*
X3117920Y-683865D02*
X3127444Y-645770D01*
X3127444Y-645770D02*
X3127444Y-569579D01*
X3127444Y-569579D02*
X3117920Y-550531D01*
X3117920Y-550531D02*
X3108396Y-541008D01*
X3108396Y-541008D02*
X3089348Y-531484D01*
X3089348Y-531484D02*
X3051253Y-531484D01*
X3051253Y-531484D02*
X3032206Y-541008D01*
X3032206Y-541008D02*
X3022682Y-550531D01*
X3022682Y-550531D02*
X3013158Y-569579D01*
X3013158Y-569579D02*
X3013158Y-617198D01*
X3013158Y-617198D02*
X3022682Y-636246D01*
X3022682Y-636246D02*
X3032206Y-645770D01*
X3032206Y-645770D02*
X3051253Y-655293D01*
X3051253Y-655293D02*
X3089348Y-655293D01*
X3089348Y-655293D02*
X3108396Y-645770D01*
X3108396Y-645770D02*
X3117920Y-636246D01*
X3117920Y-636246D02*
X3127444Y-617198D01*
X3203634Y-531484D02*
X3203634Y-569579D01*
X3279825Y-531484D02*
X3279825Y-569579D01*
X3575063Y-807674D02*
X3565539Y-798150D01*
X3565539Y-798150D02*
X3546491Y-769579D01*
X3546491Y-769579D02*
X3536968Y-750531D01*
X3536968Y-750531D02*
X3527444Y-721960D01*
X3527444Y-721960D02*
X3517920Y-674341D01*
X3517920Y-674341D02*
X3517920Y-636246D01*
X3517920Y-636246D02*
X3527444Y-588627D01*
X3527444Y-588627D02*
X3536968Y-560055D01*
X3536968Y-560055D02*
X3546491Y-541008D01*
X3546491Y-541008D02*
X3565539Y-512436D01*
X3565539Y-512436D02*
X3575063Y-502912D01*
X3756015Y-731484D02*
X3641729Y-731484D01*
X3698872Y-731484D02*
X3698872Y-531484D01*
X3698872Y-531484D02*
X3679825Y-560055D01*
X3679825Y-560055D02*
X3660777Y-579103D01*
X3660777Y-579103D02*
X3641729Y-588627D01*
X3832206Y-550531D02*
X3841729Y-541008D01*
X3841729Y-541008D02*
X3860777Y-531484D01*
X3860777Y-531484D02*
X3908396Y-531484D01*
X3908396Y-531484D02*
X3927444Y-541008D01*
X3927444Y-541008D02*
X3936968Y-550531D01*
X3936968Y-550531D02*
X3946491Y-569579D01*
X3946491Y-569579D02*
X3946491Y-588627D01*
X3946491Y-588627D02*
X3936968Y-617198D01*
X3936968Y-617198D02*
X3822682Y-731484D01*
X3822682Y-731484D02*
X3946491Y-731484D01*
X4184587Y-731484D02*
X4184587Y-531484D01*
X4270301Y-731484D02*
X4270301Y-626722D01*
X4270301Y-626722D02*
X4260777Y-607674D01*
X4260777Y-607674D02*
X4241730Y-598150D01*
X4241730Y-598150D02*
X4213158Y-598150D01*
X4213158Y-598150D02*
X4194110Y-607674D01*
X4194110Y-607674D02*
X4184587Y-617198D01*
X4394111Y-731484D02*
X4375063Y-721960D01*
X4375063Y-721960D02*
X4365539Y-712436D01*
X4365539Y-712436D02*
X4356015Y-693389D01*
X4356015Y-693389D02*
X4356015Y-636246D01*
X4356015Y-636246D02*
X4365539Y-617198D01*
X4365539Y-617198D02*
X4375063Y-607674D01*
X4375063Y-607674D02*
X4394111Y-598150D01*
X4394111Y-598150D02*
X4422682Y-598150D01*
X4422682Y-598150D02*
X4441730Y-607674D01*
X4441730Y-607674D02*
X4451253Y-617198D01*
X4451253Y-617198D02*
X4460777Y-636246D01*
X4460777Y-636246D02*
X4460777Y-693389D01*
X4460777Y-693389D02*
X4451253Y-712436D01*
X4451253Y-712436D02*
X4441730Y-721960D01*
X4441730Y-721960D02*
X4422682Y-731484D01*
X4422682Y-731484D02*
X4394111Y-731484D01*
X4575063Y-731484D02*
X4556015Y-721960D01*
X4556015Y-721960D02*
X4546492Y-702912D01*
X4546492Y-702912D02*
X4546492Y-531484D01*
X4727444Y-721960D02*
X4708396Y-731484D01*
X4708396Y-731484D02*
X4670301Y-731484D01*
X4670301Y-731484D02*
X4651253Y-721960D01*
X4651253Y-721960D02*
X4641730Y-702912D01*
X4641730Y-702912D02*
X4641730Y-626722D01*
X4641730Y-626722D02*
X4651253Y-607674D01*
X4651253Y-607674D02*
X4670301Y-598150D01*
X4670301Y-598150D02*
X4708396Y-598150D01*
X4708396Y-598150D02*
X4727444Y-607674D01*
X4727444Y-607674D02*
X4736968Y-626722D01*
X4736968Y-626722D02*
X4736968Y-645770D01*
X4736968Y-645770D02*
X4641730Y-664817D01*
X4813158Y-721960D02*
X4832206Y-731484D01*
X4832206Y-731484D02*
X4870301Y-731484D01*
X4870301Y-731484D02*
X4889349Y-721960D01*
X4889349Y-721960D02*
X4898873Y-702912D01*
X4898873Y-702912D02*
X4898873Y-693389D01*
X4898873Y-693389D02*
X4889349Y-674341D01*
X4889349Y-674341D02*
X4870301Y-664817D01*
X4870301Y-664817D02*
X4841730Y-664817D01*
X4841730Y-664817D02*
X4822682Y-655293D01*
X4822682Y-655293D02*
X4813158Y-636246D01*
X4813158Y-636246D02*
X4813158Y-626722D01*
X4813158Y-626722D02*
X4822682Y-607674D01*
X4822682Y-607674D02*
X4841730Y-598150D01*
X4841730Y-598150D02*
X4870301Y-598150D01*
X4870301Y-598150D02*
X4889349Y-607674D01*
X4965539Y-807674D02*
X4975063Y-798150D01*
X4975063Y-798150D02*
X4994111Y-769579D01*
X4994111Y-769579D02*
X5003634Y-750531D01*
X5003634Y-750531D02*
X5013158Y-721960D01*
X5013158Y-721960D02*
X5022682Y-674341D01*
X5022682Y-674341D02*
X5022682Y-636246D01*
X5022682Y-636246D02*
X5013158Y-588627D01*
X5013158Y-588627D02*
X5003634Y-560055D01*
X5003634Y-560055D02*
X4994111Y-541008D01*
X4994111Y-541008D02*
X4975063Y-512436D01*
X4975063Y-512436D02*
X4965539Y-502912D01*
D11*
X0Y-904000D02*
G75*
G02*
X-30000Y-904000I-15000J0D01*
G01*
X-30000Y-904000D02*
G75*
G02*
X0Y-904000I15000J0D01*
G01*
D10*
X298872Y-795484D02*
X317920Y-795484D01*
X317920Y-795484D02*
X336967Y-805008D01*
X336967Y-805008D02*
X346491Y-814531D01*
X346491Y-814531D02*
X356015Y-833579D01*
X356015Y-833579D02*
X365539Y-871674D01*
X365539Y-871674D02*
X365539Y-919293D01*
X365539Y-919293D02*
X356015Y-957388D01*
X356015Y-957388D02*
X346491Y-976436D01*
X346491Y-976436D02*
X336967Y-985960D01*
X336967Y-985960D02*
X317920Y-995484D01*
X317920Y-995484D02*
X298872Y-995484D01*
X298872Y-995484D02*
X279824Y-985960D01*
X279824Y-985960D02*
X270301Y-976436D01*
X270301Y-976436D02*
X260777Y-957388D01*
X260777Y-957388D02*
X251253Y-919293D01*
X251253Y-919293D02*
X251253Y-871674D01*
X251253Y-871674D02*
X260777Y-833579D01*
X260777Y-833579D02*
X270301Y-814531D01*
X270301Y-814531D02*
X279824Y-805008D01*
X279824Y-805008D02*
X298872Y-795484D01*
X451253Y-976436D02*
X460777Y-985960D01*
X460777Y-985960D02*
X451253Y-995484D01*
X451253Y-995484D02*
X441729Y-985960D01*
X441729Y-985960D02*
X451253Y-976436D01*
X451253Y-976436D02*
X451253Y-995484D01*
X527444Y-795484D02*
X651253Y-795484D01*
X651253Y-795484D02*
X584586Y-871674D01*
X584586Y-871674D02*
X613158Y-871674D01*
X613158Y-871674D02*
X632205Y-881198D01*
X632205Y-881198D02*
X641729Y-890722D01*
X641729Y-890722D02*
X651253Y-909769D01*
X651253Y-909769D02*
X651253Y-957388D01*
X651253Y-957388D02*
X641729Y-976436D01*
X641729Y-976436D02*
X632205Y-985960D01*
X632205Y-985960D02*
X613158Y-995484D01*
X613158Y-995484D02*
X556015Y-995484D01*
X556015Y-995484D02*
X536967Y-985960D01*
X536967Y-985960D02*
X527444Y-976436D01*
X775062Y-795484D02*
X794110Y-795484D01*
X794110Y-795484D02*
X813158Y-805008D01*
X813158Y-805008D02*
X822682Y-814531D01*
X822682Y-814531D02*
X832205Y-833579D01*
X832205Y-833579D02*
X841729Y-871674D01*
X841729Y-871674D02*
X841729Y-919293D01*
X841729Y-919293D02*
X832205Y-957388D01*
X832205Y-957388D02*
X822682Y-976436D01*
X822682Y-976436D02*
X813158Y-985960D01*
X813158Y-985960D02*
X794110Y-995484D01*
X794110Y-995484D02*
X775062Y-995484D01*
X775062Y-995484D02*
X756015Y-985960D01*
X756015Y-985960D02*
X746491Y-976436D01*
X746491Y-976436D02*
X736967Y-957388D01*
X736967Y-957388D02*
X727443Y-919293D01*
X727443Y-919293D02*
X727443Y-871674D01*
X727443Y-871674D02*
X736967Y-833579D01*
X736967Y-833579D02*
X746491Y-814531D01*
X746491Y-814531D02*
X756015Y-805008D01*
X756015Y-805008D02*
X775062Y-795484D01*
X965539Y-795484D02*
X984586Y-795484D01*
X984586Y-795484D02*
X1003634Y-805008D01*
X1003634Y-805008D02*
X1013158Y-814531D01*
X1013158Y-814531D02*
X1022682Y-833579D01*
X1022682Y-833579D02*
X1032205Y-871674D01*
X1032205Y-871674D02*
X1032205Y-919293D01*
X1032205Y-919293D02*
X1022682Y-957388D01*
X1022682Y-957388D02*
X1013158Y-976436D01*
X1013158Y-976436D02*
X1003634Y-985960D01*
X1003634Y-985960D02*
X984586Y-995484D01*
X984586Y-995484D02*
X965539Y-995484D01*
X965539Y-995484D02*
X946491Y-985960D01*
X946491Y-985960D02*
X936967Y-976436D01*
X936967Y-976436D02*
X927443Y-957388D01*
X927443Y-957388D02*
X917920Y-919293D01*
X917920Y-919293D02*
X917920Y-871674D01*
X917920Y-871674D02*
X927443Y-833579D01*
X927443Y-833579D02*
X936967Y-814531D01*
X936967Y-814531D02*
X946491Y-805008D01*
X946491Y-805008D02*
X965539Y-795484D01*
X1117920Y-995484D02*
X1117920Y-862150D01*
X1117920Y-881198D02*
X1127444Y-871674D01*
X1127444Y-871674D02*
X1146491Y-862150D01*
X1146491Y-862150D02*
X1175063Y-862150D01*
X1175063Y-862150D02*
X1194110Y-871674D01*
X1194110Y-871674D02*
X1203634Y-890722D01*
X1203634Y-890722D02*
X1203634Y-995484D01*
X1203634Y-890722D02*
X1213158Y-871674D01*
X1213158Y-871674D02*
X1232205Y-862150D01*
X1232205Y-862150D02*
X1260777Y-862150D01*
X1260777Y-862150D02*
X1279825Y-871674D01*
X1279825Y-871674D02*
X1289348Y-890722D01*
X1289348Y-890722D02*
X1289348Y-995484D01*
X1384586Y-995484D02*
X1384586Y-862150D01*
X1384586Y-881198D02*
X1394110Y-871674D01*
X1394110Y-871674D02*
X1413158Y-862150D01*
X1413158Y-862150D02*
X1441729Y-862150D01*
X1441729Y-862150D02*
X1460777Y-871674D01*
X1460777Y-871674D02*
X1470301Y-890722D01*
X1470301Y-890722D02*
X1470301Y-995484D01*
X1470301Y-890722D02*
X1479824Y-871674D01*
X1479824Y-871674D02*
X1498872Y-862150D01*
X1498872Y-862150D02*
X1527443Y-862150D01*
X1527443Y-862150D02*
X1546491Y-871674D01*
X1546491Y-871674D02*
X1556015Y-890722D01*
X1556015Y-890722D02*
X1556015Y-995484D01*
X1946491Y-785960D02*
X1775063Y-1043103D01*
X2203634Y-795484D02*
X2222682Y-795484D01*
X2222682Y-795484D02*
X2241729Y-805008D01*
X2241729Y-805008D02*
X2251253Y-814531D01*
X2251253Y-814531D02*
X2260777Y-833579D01*
X2260777Y-833579D02*
X2270301Y-871674D01*
X2270301Y-871674D02*
X2270301Y-919293D01*
X2270301Y-919293D02*
X2260777Y-957388D01*
X2260777Y-957388D02*
X2251253Y-976436D01*
X2251253Y-976436D02*
X2241729Y-985960D01*
X2241729Y-985960D02*
X2222682Y-995484D01*
X2222682Y-995484D02*
X2203634Y-995484D01*
X2203634Y-995484D02*
X2184587Y-985960D01*
X2184587Y-985960D02*
X2175063Y-976436D01*
X2175063Y-976436D02*
X2165539Y-957388D01*
X2165539Y-957388D02*
X2156015Y-919293D01*
X2156015Y-919293D02*
X2156015Y-871674D01*
X2156015Y-871674D02*
X2165539Y-833579D01*
X2165539Y-833579D02*
X2175063Y-814531D01*
X2175063Y-814531D02*
X2184587Y-805008D01*
X2184587Y-805008D02*
X2203634Y-795484D01*
X2356015Y-976436D02*
X2365539Y-985960D01*
X2365539Y-985960D02*
X2356015Y-995484D01*
X2356015Y-995484D02*
X2346491Y-985960D01*
X2346491Y-985960D02*
X2356015Y-976436D01*
X2356015Y-976436D02*
X2356015Y-995484D01*
X2489348Y-795484D02*
X2508396Y-795484D01*
X2508396Y-795484D02*
X2527444Y-805008D01*
X2527444Y-805008D02*
X2536968Y-814531D01*
X2536968Y-814531D02*
X2546491Y-833579D01*
X2546491Y-833579D02*
X2556015Y-871674D01*
X2556015Y-871674D02*
X2556015Y-919293D01*
X2556015Y-919293D02*
X2546491Y-957388D01*
X2546491Y-957388D02*
X2536968Y-976436D01*
X2536968Y-976436D02*
X2527444Y-985960D01*
X2527444Y-985960D02*
X2508396Y-995484D01*
X2508396Y-995484D02*
X2489348Y-995484D01*
X2489348Y-995484D02*
X2470301Y-985960D01*
X2470301Y-985960D02*
X2460777Y-976436D01*
X2460777Y-976436D02*
X2451253Y-957388D01*
X2451253Y-957388D02*
X2441729Y-919293D01*
X2441729Y-919293D02*
X2441729Y-871674D01*
X2441729Y-871674D02*
X2451253Y-833579D01*
X2451253Y-833579D02*
X2460777Y-814531D01*
X2460777Y-814531D02*
X2470301Y-805008D01*
X2470301Y-805008D02*
X2489348Y-795484D01*
X2746491Y-995484D02*
X2632206Y-995484D01*
X2689348Y-995484D02*
X2689348Y-795484D01*
X2689348Y-795484D02*
X2670301Y-824055D01*
X2670301Y-824055D02*
X2651253Y-843103D01*
X2651253Y-843103D02*
X2632206Y-852627D01*
X2936967Y-995484D02*
X2822682Y-995484D01*
X2879825Y-995484D02*
X2879825Y-795484D01*
X2879825Y-795484D02*
X2860777Y-824055D01*
X2860777Y-824055D02*
X2841729Y-843103D01*
X2841729Y-843103D02*
X2822682Y-852627D01*
X3051253Y-881198D02*
X3032206Y-871674D01*
X3032206Y-871674D02*
X3022682Y-862150D01*
X3022682Y-862150D02*
X3013158Y-843103D01*
X3013158Y-843103D02*
X3013158Y-833579D01*
X3013158Y-833579D02*
X3022682Y-814531D01*
X3022682Y-814531D02*
X3032206Y-805008D01*
X3032206Y-805008D02*
X3051253Y-795484D01*
X3051253Y-795484D02*
X3089348Y-795484D01*
X3089348Y-795484D02*
X3108396Y-805008D01*
X3108396Y-805008D02*
X3117920Y-814531D01*
X3117920Y-814531D02*
X3127444Y-833579D01*
X3127444Y-833579D02*
X3127444Y-843103D01*
X3127444Y-843103D02*
X3117920Y-862150D01*
X3117920Y-862150D02*
X3108396Y-871674D01*
X3108396Y-871674D02*
X3089348Y-881198D01*
X3089348Y-881198D02*
X3051253Y-881198D01*
X3051253Y-881198D02*
X3032206Y-890722D01*
X3032206Y-890722D02*
X3022682Y-900246D01*
X3022682Y-900246D02*
X3013158Y-919293D01*
X3013158Y-919293D02*
X3013158Y-957388D01*
X3013158Y-957388D02*
X3022682Y-976436D01*
X3022682Y-976436D02*
X3032206Y-985960D01*
X3032206Y-985960D02*
X3051253Y-995484D01*
X3051253Y-995484D02*
X3089348Y-995484D01*
X3089348Y-995484D02*
X3108396Y-985960D01*
X3108396Y-985960D02*
X3117920Y-976436D01*
X3117920Y-976436D02*
X3127444Y-957388D01*
X3127444Y-957388D02*
X3127444Y-919293D01*
X3127444Y-919293D02*
X3117920Y-900246D01*
X3117920Y-900246D02*
X3108396Y-890722D01*
X3108396Y-890722D02*
X3089348Y-881198D01*
X3203634Y-795484D02*
X3203634Y-833579D01*
X3279825Y-795484D02*
X3279825Y-833579D01*
X3575063Y-1071674D02*
X3565539Y-1062150D01*
X3565539Y-1062150D02*
X3546491Y-1033579D01*
X3546491Y-1033579D02*
X3536968Y-1014531D01*
X3536968Y-1014531D02*
X3527444Y-985960D01*
X3527444Y-985960D02*
X3517920Y-938341D01*
X3517920Y-938341D02*
X3517920Y-900246D01*
X3517920Y-900246D02*
X3527444Y-852627D01*
X3527444Y-852627D02*
X3536968Y-824055D01*
X3536968Y-824055D02*
X3546491Y-805008D01*
X3546491Y-805008D02*
X3565539Y-776436D01*
X3565539Y-776436D02*
X3575063Y-766912D01*
X3632206Y-795484D02*
X3756015Y-795484D01*
X3756015Y-795484D02*
X3689348Y-871674D01*
X3689348Y-871674D02*
X3717920Y-871674D01*
X3717920Y-871674D02*
X3736968Y-881198D01*
X3736968Y-881198D02*
X3746491Y-890722D01*
X3746491Y-890722D02*
X3756015Y-909769D01*
X3756015Y-909769D02*
X3756015Y-957388D01*
X3756015Y-957388D02*
X3746491Y-976436D01*
X3746491Y-976436D02*
X3736968Y-985960D01*
X3736968Y-985960D02*
X3717920Y-995484D01*
X3717920Y-995484D02*
X3660777Y-995484D01*
X3660777Y-995484D02*
X3641729Y-985960D01*
X3641729Y-985960D02*
X3632206Y-976436D01*
X3870301Y-881198D02*
X3851253Y-871674D01*
X3851253Y-871674D02*
X3841729Y-862150D01*
X3841729Y-862150D02*
X3832206Y-843103D01*
X3832206Y-843103D02*
X3832206Y-833579D01*
X3832206Y-833579D02*
X3841729Y-814531D01*
X3841729Y-814531D02*
X3851253Y-805008D01*
X3851253Y-805008D02*
X3870301Y-795484D01*
X3870301Y-795484D02*
X3908396Y-795484D01*
X3908396Y-795484D02*
X3927444Y-805008D01*
X3927444Y-805008D02*
X3936968Y-814531D01*
X3936968Y-814531D02*
X3946491Y-833579D01*
X3946491Y-833579D02*
X3946491Y-843103D01*
X3946491Y-843103D02*
X3936968Y-862150D01*
X3936968Y-862150D02*
X3927444Y-871674D01*
X3927444Y-871674D02*
X3908396Y-881198D01*
X3908396Y-881198D02*
X3870301Y-881198D01*
X3870301Y-881198D02*
X3851253Y-890722D01*
X3851253Y-890722D02*
X3841729Y-900246D01*
X3841729Y-900246D02*
X3832206Y-919293D01*
X3832206Y-919293D02*
X3832206Y-957388D01*
X3832206Y-957388D02*
X3841729Y-976436D01*
X3841729Y-976436D02*
X3851253Y-985960D01*
X3851253Y-985960D02*
X3870301Y-995484D01*
X3870301Y-995484D02*
X3908396Y-995484D01*
X3908396Y-995484D02*
X3927444Y-985960D01*
X3927444Y-985960D02*
X3936968Y-976436D01*
X3936968Y-976436D02*
X3946491Y-957388D01*
X3946491Y-957388D02*
X3946491Y-919293D01*
X3946491Y-919293D02*
X3936968Y-900246D01*
X3936968Y-900246D02*
X3927444Y-890722D01*
X3927444Y-890722D02*
X3908396Y-881198D01*
X4184587Y-995484D02*
X4184587Y-795484D01*
X4270301Y-995484D02*
X4270301Y-890722D01*
X4270301Y-890722D02*
X4260777Y-871674D01*
X4260777Y-871674D02*
X4241730Y-862150D01*
X4241730Y-862150D02*
X4213158Y-862150D01*
X4213158Y-862150D02*
X4194110Y-871674D01*
X4194110Y-871674D02*
X4184587Y-881198D01*
X4394111Y-995484D02*
X4375063Y-985960D01*
X4375063Y-985960D02*
X4365539Y-976436D01*
X4365539Y-976436D02*
X4356015Y-957388D01*
X4356015Y-957388D02*
X4356015Y-900246D01*
X4356015Y-900246D02*
X4365539Y-881198D01*
X4365539Y-881198D02*
X4375063Y-871674D01*
X4375063Y-871674D02*
X4394111Y-862150D01*
X4394111Y-862150D02*
X4422682Y-862150D01*
X4422682Y-862150D02*
X4441730Y-871674D01*
X4441730Y-871674D02*
X4451253Y-881198D01*
X4451253Y-881198D02*
X4460777Y-900246D01*
X4460777Y-900246D02*
X4460777Y-957388D01*
X4460777Y-957388D02*
X4451253Y-976436D01*
X4451253Y-976436D02*
X4441730Y-985960D01*
X4441730Y-985960D02*
X4422682Y-995484D01*
X4422682Y-995484D02*
X4394111Y-995484D01*
X4575063Y-995484D02*
X4556015Y-985960D01*
X4556015Y-985960D02*
X4546492Y-966912D01*
X4546492Y-966912D02*
X4546492Y-795484D01*
X4727444Y-985960D02*
X4708396Y-995484D01*
X4708396Y-995484D02*
X4670301Y-995484D01*
X4670301Y-995484D02*
X4651253Y-985960D01*
X4651253Y-985960D02*
X4641730Y-966912D01*
X4641730Y-966912D02*
X4641730Y-890722D01*
X4641730Y-890722D02*
X4651253Y-871674D01*
X4651253Y-871674D02*
X4670301Y-862150D01*
X4670301Y-862150D02*
X4708396Y-862150D01*
X4708396Y-862150D02*
X4727444Y-871674D01*
X4727444Y-871674D02*
X4736968Y-890722D01*
X4736968Y-890722D02*
X4736968Y-909769D01*
X4736968Y-909769D02*
X4641730Y-928817D01*
X4813158Y-985960D02*
X4832206Y-995484D01*
X4832206Y-995484D02*
X4870301Y-995484D01*
X4870301Y-995484D02*
X4889349Y-985960D01*
X4889349Y-985960D02*
X4898873Y-966912D01*
X4898873Y-966912D02*
X4898873Y-957388D01*
X4898873Y-957388D02*
X4889349Y-938341D01*
X4889349Y-938341D02*
X4870301Y-928817D01*
X4870301Y-928817D02*
X4841730Y-928817D01*
X4841730Y-928817D02*
X4822682Y-919293D01*
X4822682Y-919293D02*
X4813158Y-900246D01*
X4813158Y-900246D02*
X4813158Y-890722D01*
X4813158Y-890722D02*
X4822682Y-871674D01*
X4822682Y-871674D02*
X4841730Y-862150D01*
X4841730Y-862150D02*
X4870301Y-862150D01*
X4870301Y-862150D02*
X4889349Y-871674D01*
X4965539Y-1071674D02*
X4975063Y-1062150D01*
X4975063Y-1062150D02*
X4994111Y-1033579D01*
X4994111Y-1033579D02*
X5003634Y-1014531D01*
X5003634Y-1014531D02*
X5013158Y-985960D01*
X5013158Y-985960D02*
X5022682Y-938341D01*
X5022682Y-938341D02*
X5022682Y-900246D01*
X5022682Y-900246D02*
X5013158Y-852627D01*
X5013158Y-852627D02*
X5003634Y-824055D01*
X5003634Y-824055D02*
X4994111Y-805008D01*
X4994111Y-805008D02*
X4975063Y-776436D01*
X4975063Y-776436D02*
X4965539Y-766912D01*
D11*
X-30000Y-1138000D02*
X-30000Y-1198000D01*
X-60000Y-1168000D02*
X0Y-1168000D01*
D10*
X298872Y-1059484D02*
X317920Y-1059484D01*
X317920Y-1059484D02*
X336967Y-1069008D01*
X336967Y-1069008D02*
X346491Y-1078531D01*
X346491Y-1078531D02*
X356015Y-1097579D01*
X356015Y-1097579D02*
X365539Y-1135674D01*
X365539Y-1135674D02*
X365539Y-1183293D01*
X365539Y-1183293D02*
X356015Y-1221389D01*
X356015Y-1221389D02*
X346491Y-1240436D01*
X346491Y-1240436D02*
X336967Y-1249960D01*
X336967Y-1249960D02*
X317920Y-1259484D01*
X317920Y-1259484D02*
X298872Y-1259484D01*
X298872Y-1259484D02*
X279824Y-1249960D01*
X279824Y-1249960D02*
X270301Y-1240436D01*
X270301Y-1240436D02*
X260777Y-1221389D01*
X260777Y-1221389D02*
X251253Y-1183293D01*
X251253Y-1183293D02*
X251253Y-1135674D01*
X251253Y-1135674D02*
X260777Y-1097579D01*
X260777Y-1097579D02*
X270301Y-1078531D01*
X270301Y-1078531D02*
X279824Y-1069008D01*
X279824Y-1069008D02*
X298872Y-1059484D01*
X451253Y-1240436D02*
X460777Y-1249960D01*
X460777Y-1249960D02*
X451253Y-1259484D01*
X451253Y-1259484D02*
X441729Y-1249960D01*
X441729Y-1249960D02*
X451253Y-1240436D01*
X451253Y-1240436D02*
X451253Y-1259484D01*
X632205Y-1059484D02*
X594110Y-1059484D01*
X594110Y-1059484D02*
X575063Y-1069008D01*
X575063Y-1069008D02*
X565539Y-1078531D01*
X565539Y-1078531D02*
X546491Y-1107103D01*
X546491Y-1107103D02*
X536967Y-1145198D01*
X536967Y-1145198D02*
X536967Y-1221389D01*
X536967Y-1221389D02*
X546491Y-1240436D01*
X546491Y-1240436D02*
X556015Y-1249960D01*
X556015Y-1249960D02*
X575063Y-1259484D01*
X575063Y-1259484D02*
X613158Y-1259484D01*
X613158Y-1259484D02*
X632205Y-1249960D01*
X632205Y-1249960D02*
X641729Y-1240436D01*
X641729Y-1240436D02*
X651253Y-1221389D01*
X651253Y-1221389D02*
X651253Y-1173770D01*
X651253Y-1173770D02*
X641729Y-1154722D01*
X641729Y-1154722D02*
X632205Y-1145198D01*
X632205Y-1145198D02*
X613158Y-1135674D01*
X613158Y-1135674D02*
X575063Y-1135674D01*
X575063Y-1135674D02*
X556015Y-1145198D01*
X556015Y-1145198D02*
X546491Y-1154722D01*
X546491Y-1154722D02*
X536967Y-1173770D01*
X775062Y-1059484D02*
X794110Y-1059484D01*
X794110Y-1059484D02*
X813158Y-1069008D01*
X813158Y-1069008D02*
X822682Y-1078531D01*
X822682Y-1078531D02*
X832205Y-1097579D01*
X832205Y-1097579D02*
X841729Y-1135674D01*
X841729Y-1135674D02*
X841729Y-1183293D01*
X841729Y-1183293D02*
X832205Y-1221389D01*
X832205Y-1221389D02*
X822682Y-1240436D01*
X822682Y-1240436D02*
X813158Y-1249960D01*
X813158Y-1249960D02*
X794110Y-1259484D01*
X794110Y-1259484D02*
X775062Y-1259484D01*
X775062Y-1259484D02*
X756015Y-1249960D01*
X756015Y-1249960D02*
X746491Y-1240436D01*
X746491Y-1240436D02*
X736967Y-1221389D01*
X736967Y-1221389D02*
X727443Y-1183293D01*
X727443Y-1183293D02*
X727443Y-1135674D01*
X727443Y-1135674D02*
X736967Y-1097579D01*
X736967Y-1097579D02*
X746491Y-1078531D01*
X746491Y-1078531D02*
X756015Y-1069008D01*
X756015Y-1069008D02*
X775062Y-1059484D01*
X965539Y-1059484D02*
X984586Y-1059484D01*
X984586Y-1059484D02*
X1003634Y-1069008D01*
X1003634Y-1069008D02*
X1013158Y-1078531D01*
X1013158Y-1078531D02*
X1022682Y-1097579D01*
X1022682Y-1097579D02*
X1032205Y-1135674D01*
X1032205Y-1135674D02*
X1032205Y-1183293D01*
X1032205Y-1183293D02*
X1022682Y-1221389D01*
X1022682Y-1221389D02*
X1013158Y-1240436D01*
X1013158Y-1240436D02*
X1003634Y-1249960D01*
X1003634Y-1249960D02*
X984586Y-1259484D01*
X984586Y-1259484D02*
X965539Y-1259484D01*
X965539Y-1259484D02*
X946491Y-1249960D01*
X946491Y-1249960D02*
X936967Y-1240436D01*
X936967Y-1240436D02*
X927443Y-1221389D01*
X927443Y-1221389D02*
X917920Y-1183293D01*
X917920Y-1183293D02*
X917920Y-1135674D01*
X917920Y-1135674D02*
X927443Y-1097579D01*
X927443Y-1097579D02*
X936967Y-1078531D01*
X936967Y-1078531D02*
X946491Y-1069008D01*
X946491Y-1069008D02*
X965539Y-1059484D01*
X1117920Y-1259484D02*
X1117920Y-1126150D01*
X1117920Y-1145198D02*
X1127444Y-1135674D01*
X1127444Y-1135674D02*
X1146491Y-1126150D01*
X1146491Y-1126150D02*
X1175063Y-1126150D01*
X1175063Y-1126150D02*
X1194110Y-1135674D01*
X1194110Y-1135674D02*
X1203634Y-1154722D01*
X1203634Y-1154722D02*
X1203634Y-1259484D01*
X1203634Y-1154722D02*
X1213158Y-1135674D01*
X1213158Y-1135674D02*
X1232205Y-1126150D01*
X1232205Y-1126150D02*
X1260777Y-1126150D01*
X1260777Y-1126150D02*
X1279825Y-1135674D01*
X1279825Y-1135674D02*
X1289348Y-1154722D01*
X1289348Y-1154722D02*
X1289348Y-1259484D01*
X1384586Y-1259484D02*
X1384586Y-1126150D01*
X1384586Y-1145198D02*
X1394110Y-1135674D01*
X1394110Y-1135674D02*
X1413158Y-1126150D01*
X1413158Y-1126150D02*
X1441729Y-1126150D01*
X1441729Y-1126150D02*
X1460777Y-1135674D01*
X1460777Y-1135674D02*
X1470301Y-1154722D01*
X1470301Y-1154722D02*
X1470301Y-1259484D01*
X1470301Y-1154722D02*
X1479824Y-1135674D01*
X1479824Y-1135674D02*
X1498872Y-1126150D01*
X1498872Y-1126150D02*
X1527443Y-1126150D01*
X1527443Y-1126150D02*
X1546491Y-1135674D01*
X1546491Y-1135674D02*
X1556015Y-1154722D01*
X1556015Y-1154722D02*
X1556015Y-1259484D01*
X1946491Y-1049960D02*
X1775063Y-1307103D01*
X2203634Y-1059484D02*
X2222682Y-1059484D01*
X2222682Y-1059484D02*
X2241729Y-1069008D01*
X2241729Y-1069008D02*
X2251253Y-1078531D01*
X2251253Y-1078531D02*
X2260777Y-1097579D01*
X2260777Y-1097579D02*
X2270301Y-1135674D01*
X2270301Y-1135674D02*
X2270301Y-1183293D01*
X2270301Y-1183293D02*
X2260777Y-1221389D01*
X2260777Y-1221389D02*
X2251253Y-1240436D01*
X2251253Y-1240436D02*
X2241729Y-1249960D01*
X2241729Y-1249960D02*
X2222682Y-1259484D01*
X2222682Y-1259484D02*
X2203634Y-1259484D01*
X2203634Y-1259484D02*
X2184587Y-1249960D01*
X2184587Y-1249960D02*
X2175063Y-1240436D01*
X2175063Y-1240436D02*
X2165539Y-1221389D01*
X2165539Y-1221389D02*
X2156015Y-1183293D01*
X2156015Y-1183293D02*
X2156015Y-1135674D01*
X2156015Y-1135674D02*
X2165539Y-1097579D01*
X2165539Y-1097579D02*
X2175063Y-1078531D01*
X2175063Y-1078531D02*
X2184587Y-1069008D01*
X2184587Y-1069008D02*
X2203634Y-1059484D01*
X2356015Y-1240436D02*
X2365539Y-1249960D01*
X2365539Y-1249960D02*
X2356015Y-1259484D01*
X2356015Y-1259484D02*
X2346491Y-1249960D01*
X2346491Y-1249960D02*
X2356015Y-1240436D01*
X2356015Y-1240436D02*
X2356015Y-1259484D01*
X2489348Y-1059484D02*
X2508396Y-1059484D01*
X2508396Y-1059484D02*
X2527444Y-1069008D01*
X2527444Y-1069008D02*
X2536968Y-1078531D01*
X2536968Y-1078531D02*
X2546491Y-1097579D01*
X2546491Y-1097579D02*
X2556015Y-1135674D01*
X2556015Y-1135674D02*
X2556015Y-1183293D01*
X2556015Y-1183293D02*
X2546491Y-1221389D01*
X2546491Y-1221389D02*
X2536968Y-1240436D01*
X2536968Y-1240436D02*
X2527444Y-1249960D01*
X2527444Y-1249960D02*
X2508396Y-1259484D01*
X2508396Y-1259484D02*
X2489348Y-1259484D01*
X2489348Y-1259484D02*
X2470301Y-1249960D01*
X2470301Y-1249960D02*
X2460777Y-1240436D01*
X2460777Y-1240436D02*
X2451253Y-1221389D01*
X2451253Y-1221389D02*
X2441729Y-1183293D01*
X2441729Y-1183293D02*
X2441729Y-1135674D01*
X2441729Y-1135674D02*
X2451253Y-1097579D01*
X2451253Y-1097579D02*
X2460777Y-1078531D01*
X2460777Y-1078531D02*
X2470301Y-1069008D01*
X2470301Y-1069008D02*
X2489348Y-1059484D01*
X2632206Y-1078531D02*
X2641729Y-1069008D01*
X2641729Y-1069008D02*
X2660777Y-1059484D01*
X2660777Y-1059484D02*
X2708396Y-1059484D01*
X2708396Y-1059484D02*
X2727444Y-1069008D01*
X2727444Y-1069008D02*
X2736968Y-1078531D01*
X2736968Y-1078531D02*
X2746491Y-1097579D01*
X2746491Y-1097579D02*
X2746491Y-1116627D01*
X2746491Y-1116627D02*
X2736968Y-1145198D01*
X2736968Y-1145198D02*
X2622682Y-1259484D01*
X2622682Y-1259484D02*
X2746491Y-1259484D01*
X2813158Y-1059484D02*
X2936967Y-1059484D01*
X2936967Y-1059484D02*
X2870301Y-1135674D01*
X2870301Y-1135674D02*
X2898872Y-1135674D01*
X2898872Y-1135674D02*
X2917920Y-1145198D01*
X2917920Y-1145198D02*
X2927444Y-1154722D01*
X2927444Y-1154722D02*
X2936967Y-1173770D01*
X2936967Y-1173770D02*
X2936967Y-1221389D01*
X2936967Y-1221389D02*
X2927444Y-1240436D01*
X2927444Y-1240436D02*
X2917920Y-1249960D01*
X2917920Y-1249960D02*
X2898872Y-1259484D01*
X2898872Y-1259484D02*
X2841729Y-1259484D01*
X2841729Y-1259484D02*
X2822682Y-1249960D01*
X2822682Y-1249960D02*
X2813158Y-1240436D01*
X3108396Y-1059484D02*
X3070301Y-1059484D01*
X3070301Y-1059484D02*
X3051253Y-1069008D01*
X3051253Y-1069008D02*
X3041729Y-1078531D01*
X3041729Y-1078531D02*
X3022682Y-1107103D01*
X3022682Y-1107103D02*
X3013158Y-1145198D01*
X3013158Y-1145198D02*
X3013158Y-1221389D01*
X3013158Y-1221389D02*
X3022682Y-1240436D01*
X3022682Y-1240436D02*
X3032206Y-1249960D01*
X3032206Y-1249960D02*
X3051253Y-1259484D01*
X3051253Y-1259484D02*
X3089348Y-1259484D01*
X3089348Y-1259484D02*
X3108396Y-1249960D01*
X3108396Y-1249960D02*
X3117920Y-1240436D01*
X3117920Y-1240436D02*
X3127444Y-1221389D01*
X3127444Y-1221389D02*
X3127444Y-1173770D01*
X3127444Y-1173770D02*
X3117920Y-1154722D01*
X3117920Y-1154722D02*
X3108396Y-1145198D01*
X3108396Y-1145198D02*
X3089348Y-1135674D01*
X3089348Y-1135674D02*
X3051253Y-1135674D01*
X3051253Y-1135674D02*
X3032206Y-1145198D01*
X3032206Y-1145198D02*
X3022682Y-1154722D01*
X3022682Y-1154722D02*
X3013158Y-1173770D01*
X3203634Y-1059484D02*
X3203634Y-1097579D01*
X3279825Y-1059484D02*
X3279825Y-1097579D01*
X3575063Y-1335674D02*
X3565539Y-1326150D01*
X3565539Y-1326150D02*
X3546491Y-1297579D01*
X3546491Y-1297579D02*
X3536968Y-1278531D01*
X3536968Y-1278531D02*
X3527444Y-1249960D01*
X3527444Y-1249960D02*
X3517920Y-1202341D01*
X3517920Y-1202341D02*
X3517920Y-1164246D01*
X3517920Y-1164246D02*
X3527444Y-1116627D01*
X3527444Y-1116627D02*
X3536968Y-1088055D01*
X3536968Y-1088055D02*
X3546491Y-1069008D01*
X3546491Y-1069008D02*
X3565539Y-1040436D01*
X3565539Y-1040436D02*
X3575063Y-1030912D01*
X3689348Y-1059484D02*
X3708396Y-1059484D01*
X3708396Y-1059484D02*
X3727444Y-1069008D01*
X3727444Y-1069008D02*
X3736968Y-1078531D01*
X3736968Y-1078531D02*
X3746491Y-1097579D01*
X3746491Y-1097579D02*
X3756015Y-1135674D01*
X3756015Y-1135674D02*
X3756015Y-1183293D01*
X3756015Y-1183293D02*
X3746491Y-1221389D01*
X3746491Y-1221389D02*
X3736968Y-1240436D01*
X3736968Y-1240436D02*
X3727444Y-1249960D01*
X3727444Y-1249960D02*
X3708396Y-1259484D01*
X3708396Y-1259484D02*
X3689348Y-1259484D01*
X3689348Y-1259484D02*
X3670301Y-1249960D01*
X3670301Y-1249960D02*
X3660777Y-1240436D01*
X3660777Y-1240436D02*
X3651253Y-1221389D01*
X3651253Y-1221389D02*
X3641729Y-1183293D01*
X3641729Y-1183293D02*
X3641729Y-1135674D01*
X3641729Y-1135674D02*
X3651253Y-1097579D01*
X3651253Y-1097579D02*
X3660777Y-1078531D01*
X3660777Y-1078531D02*
X3670301Y-1069008D01*
X3670301Y-1069008D02*
X3689348Y-1059484D01*
X3994110Y-1259484D02*
X3994110Y-1059484D01*
X4079825Y-1259484D02*
X4079825Y-1154722D01*
X4079825Y-1154722D02*
X4070301Y-1135674D01*
X4070301Y-1135674D02*
X4051253Y-1126150D01*
X4051253Y-1126150D02*
X4022682Y-1126150D01*
X4022682Y-1126150D02*
X4003634Y-1135674D01*
X4003634Y-1135674D02*
X3994110Y-1145198D01*
X4203634Y-1259484D02*
X4184587Y-1249960D01*
X4184587Y-1249960D02*
X4175063Y-1240436D01*
X4175063Y-1240436D02*
X4165539Y-1221389D01*
X4165539Y-1221389D02*
X4165539Y-1164246D01*
X4165539Y-1164246D02*
X4175063Y-1145198D01*
X4175063Y-1145198D02*
X4184587Y-1135674D01*
X4184587Y-1135674D02*
X4203634Y-1126150D01*
X4203634Y-1126150D02*
X4232206Y-1126150D01*
X4232206Y-1126150D02*
X4251253Y-1135674D01*
X4251253Y-1135674D02*
X4260777Y-1145198D01*
X4260777Y-1145198D02*
X4270301Y-1164246D01*
X4270301Y-1164246D02*
X4270301Y-1221389D01*
X4270301Y-1221389D02*
X4260777Y-1240436D01*
X4260777Y-1240436D02*
X4251253Y-1249960D01*
X4251253Y-1249960D02*
X4232206Y-1259484D01*
X4232206Y-1259484D02*
X4203634Y-1259484D01*
X4384587Y-1259484D02*
X4365539Y-1249960D01*
X4365539Y-1249960D02*
X4356015Y-1230912D01*
X4356015Y-1230912D02*
X4356015Y-1059484D01*
X4536968Y-1249960D02*
X4517920Y-1259484D01*
X4517920Y-1259484D02*
X4479825Y-1259484D01*
X4479825Y-1259484D02*
X4460777Y-1249960D01*
X4460777Y-1249960D02*
X4451253Y-1230912D01*
X4451253Y-1230912D02*
X4451253Y-1154722D01*
X4451253Y-1154722D02*
X4460777Y-1135674D01*
X4460777Y-1135674D02*
X4479825Y-1126150D01*
X4479825Y-1126150D02*
X4517920Y-1126150D01*
X4517920Y-1126150D02*
X4536968Y-1135674D01*
X4536968Y-1135674D02*
X4546492Y-1154722D01*
X4546492Y-1154722D02*
X4546492Y-1173770D01*
X4546492Y-1173770D02*
X4451253Y-1192817D01*
X4622682Y-1249960D02*
X4641730Y-1259484D01*
X4641730Y-1259484D02*
X4679825Y-1259484D01*
X4679825Y-1259484D02*
X4698873Y-1249960D01*
X4698873Y-1249960D02*
X4708396Y-1230912D01*
X4708396Y-1230912D02*
X4708396Y-1221389D01*
X4708396Y-1221389D02*
X4698873Y-1202341D01*
X4698873Y-1202341D02*
X4679825Y-1192817D01*
X4679825Y-1192817D02*
X4651253Y-1192817D01*
X4651253Y-1192817D02*
X4632206Y-1183293D01*
X4632206Y-1183293D02*
X4622682Y-1164246D01*
X4622682Y-1164246D02*
X4622682Y-1154722D01*
X4622682Y-1154722D02*
X4632206Y-1135674D01*
X4632206Y-1135674D02*
X4651253Y-1126150D01*
X4651253Y-1126150D02*
X4679825Y-1126150D01*
X4679825Y-1126150D02*
X4698873Y-1135674D01*
X4946492Y-1183293D02*
X5098873Y-1183293D01*
X5022682Y-1259484D02*
X5022682Y-1107103D01*
X5432206Y-1126150D02*
X5432206Y-1259484D01*
X5384587Y-1049960D02*
X5336968Y-1192817D01*
X5336968Y-1192817D02*
X5460777Y-1192817D01*
X5679825Y-1249960D02*
X5698873Y-1259484D01*
X5698873Y-1259484D02*
X5736968Y-1259484D01*
X5736968Y-1259484D02*
X5756015Y-1249960D01*
X5756015Y-1249960D02*
X5765539Y-1230912D01*
X5765539Y-1230912D02*
X5765539Y-1221389D01*
X5765539Y-1221389D02*
X5756015Y-1202341D01*
X5756015Y-1202341D02*
X5736968Y-1192817D01*
X5736968Y-1192817D02*
X5708396Y-1192817D01*
X5708396Y-1192817D02*
X5689349Y-1183293D01*
X5689349Y-1183293D02*
X5679825Y-1164246D01*
X5679825Y-1164246D02*
X5679825Y-1154722D01*
X5679825Y-1154722D02*
X5689349Y-1135674D01*
X5689349Y-1135674D02*
X5708396Y-1126150D01*
X5708396Y-1126150D02*
X5736968Y-1126150D01*
X5736968Y-1126150D02*
X5756015Y-1135674D01*
X5879825Y-1259484D02*
X5860777Y-1249960D01*
X5860777Y-1249960D02*
X5851254Y-1230912D01*
X5851254Y-1230912D02*
X5851254Y-1059484D01*
X5984587Y-1259484D02*
X5965539Y-1249960D01*
X5965539Y-1249960D02*
X5956015Y-1240436D01*
X5956015Y-1240436D02*
X5946492Y-1221389D01*
X5946492Y-1221389D02*
X5946492Y-1164246D01*
X5946492Y-1164246D02*
X5956015Y-1145198D01*
X5956015Y-1145198D02*
X5965539Y-1135674D01*
X5965539Y-1135674D02*
X5984587Y-1126150D01*
X5984587Y-1126150D02*
X6013158Y-1126150D01*
X6013158Y-1126150D02*
X6032206Y-1135674D01*
X6032206Y-1135674D02*
X6041730Y-1145198D01*
X6041730Y-1145198D02*
X6051254Y-1164246D01*
X6051254Y-1164246D02*
X6051254Y-1221389D01*
X6051254Y-1221389D02*
X6041730Y-1240436D01*
X6041730Y-1240436D02*
X6032206Y-1249960D01*
X6032206Y-1249960D02*
X6013158Y-1259484D01*
X6013158Y-1259484D02*
X5984587Y-1259484D01*
X6108396Y-1126150D02*
X6184587Y-1126150D01*
X6136968Y-1059484D02*
X6136968Y-1230912D01*
X6136968Y-1230912D02*
X6146492Y-1249960D01*
X6146492Y-1249960D02*
X6165539Y-1259484D01*
X6165539Y-1259484D02*
X6184587Y-1259484D01*
X6241730Y-1249960D02*
X6260777Y-1259484D01*
X6260777Y-1259484D02*
X6298873Y-1259484D01*
X6298873Y-1259484D02*
X6317920Y-1249960D01*
X6317920Y-1249960D02*
X6327444Y-1230912D01*
X6327444Y-1230912D02*
X6327444Y-1221389D01*
X6327444Y-1221389D02*
X6317920Y-1202341D01*
X6317920Y-1202341D02*
X6298873Y-1192817D01*
X6298873Y-1192817D02*
X6270301Y-1192817D01*
X6270301Y-1192817D02*
X6251254Y-1183293D01*
X6251254Y-1183293D02*
X6241730Y-1164246D01*
X6241730Y-1164246D02*
X6241730Y-1154722D01*
X6241730Y-1154722D02*
X6251254Y-1135674D01*
X6251254Y-1135674D02*
X6270301Y-1126150D01*
X6270301Y-1126150D02*
X6298873Y-1126150D01*
X6298873Y-1126150D02*
X6317920Y-1135674D01*
X6394111Y-1335674D02*
X6403635Y-1326150D01*
X6403635Y-1326150D02*
X6422682Y-1297579D01*
X6422682Y-1297579D02*
X6432206Y-1278531D01*
X6432206Y-1278531D02*
X6441730Y-1249960D01*
X6441730Y-1249960D02*
X6451254Y-1202341D01*
X6451254Y-1202341D02*
X6451254Y-1164246D01*
X6451254Y-1164246D02*
X6441730Y-1116627D01*
X6441730Y-1116627D02*
X6432206Y-1088055D01*
X6432206Y-1088055D02*
X6422682Y-1069008D01*
X6422682Y-1069008D02*
X6403635Y-1040436D01*
X6403635Y-1040436D02*
X6394111Y-1030912D01*
D11*
X-14644Y-1467356D02*
X-14644Y-1396644D01*
X-85356Y-1396644D01*
X-85356Y-1467356D01*
X-14644Y-1467356D01*
D10*
X365539Y-1523484D02*
X251253Y-1523484D01*
X308396Y-1523484D02*
X308396Y-1323484D01*
X308396Y-1323484D02*
X289348Y-1352055D01*
X289348Y-1352055D02*
X270301Y-1371103D01*
X270301Y-1371103D02*
X251253Y-1380627D01*
X451253Y-1504436D02*
X460777Y-1513960D01*
X460777Y-1513960D02*
X451253Y-1523484D01*
X451253Y-1523484D02*
X441729Y-1513960D01*
X441729Y-1513960D02*
X451253Y-1504436D01*
X451253Y-1504436D02*
X451253Y-1523484D01*
X584586Y-1323484D02*
X603634Y-1323484D01*
X603634Y-1323484D02*
X622682Y-1333008D01*
X622682Y-1333008D02*
X632205Y-1342531D01*
X632205Y-1342531D02*
X641729Y-1361579D01*
X641729Y-1361579D02*
X651253Y-1399674D01*
X651253Y-1399674D02*
X651253Y-1447293D01*
X651253Y-1447293D02*
X641729Y-1485388D01*
X641729Y-1485388D02*
X632205Y-1504436D01*
X632205Y-1504436D02*
X622682Y-1513960D01*
X622682Y-1513960D02*
X603634Y-1523484D01*
X603634Y-1523484D02*
X584586Y-1523484D01*
X584586Y-1523484D02*
X565539Y-1513960D01*
X565539Y-1513960D02*
X556015Y-1504436D01*
X556015Y-1504436D02*
X546491Y-1485388D01*
X546491Y-1485388D02*
X536967Y-1447293D01*
X536967Y-1447293D02*
X536967Y-1399674D01*
X536967Y-1399674D02*
X546491Y-1361579D01*
X546491Y-1361579D02*
X556015Y-1342531D01*
X556015Y-1342531D02*
X565539Y-1333008D01*
X565539Y-1333008D02*
X584586Y-1323484D01*
X775062Y-1323484D02*
X794110Y-1323484D01*
X794110Y-1323484D02*
X813158Y-1333008D01*
X813158Y-1333008D02*
X822682Y-1342531D01*
X822682Y-1342531D02*
X832205Y-1361579D01*
X832205Y-1361579D02*
X841729Y-1399674D01*
X841729Y-1399674D02*
X841729Y-1447293D01*
X841729Y-1447293D02*
X832205Y-1485388D01*
X832205Y-1485388D02*
X822682Y-1504436D01*
X822682Y-1504436D02*
X813158Y-1513960D01*
X813158Y-1513960D02*
X794110Y-1523484D01*
X794110Y-1523484D02*
X775062Y-1523484D01*
X775062Y-1523484D02*
X756015Y-1513960D01*
X756015Y-1513960D02*
X746491Y-1504436D01*
X746491Y-1504436D02*
X736967Y-1485388D01*
X736967Y-1485388D02*
X727443Y-1447293D01*
X727443Y-1447293D02*
X727443Y-1399674D01*
X727443Y-1399674D02*
X736967Y-1361579D01*
X736967Y-1361579D02*
X746491Y-1342531D01*
X746491Y-1342531D02*
X756015Y-1333008D01*
X756015Y-1333008D02*
X775062Y-1323484D01*
X965539Y-1323484D02*
X984586Y-1323484D01*
X984586Y-1323484D02*
X1003634Y-1333008D01*
X1003634Y-1333008D02*
X1013158Y-1342531D01*
X1013158Y-1342531D02*
X1022682Y-1361579D01*
X1022682Y-1361579D02*
X1032205Y-1399674D01*
X1032205Y-1399674D02*
X1032205Y-1447293D01*
X1032205Y-1447293D02*
X1022682Y-1485388D01*
X1022682Y-1485388D02*
X1013158Y-1504436D01*
X1013158Y-1504436D02*
X1003634Y-1513960D01*
X1003634Y-1513960D02*
X984586Y-1523484D01*
X984586Y-1523484D02*
X965539Y-1523484D01*
X965539Y-1523484D02*
X946491Y-1513960D01*
X946491Y-1513960D02*
X936967Y-1504436D01*
X936967Y-1504436D02*
X927443Y-1485388D01*
X927443Y-1485388D02*
X917920Y-1447293D01*
X917920Y-1447293D02*
X917920Y-1399674D01*
X917920Y-1399674D02*
X927443Y-1361579D01*
X927443Y-1361579D02*
X936967Y-1342531D01*
X936967Y-1342531D02*
X946491Y-1333008D01*
X946491Y-1333008D02*
X965539Y-1323484D01*
X1117920Y-1523484D02*
X1117920Y-1390150D01*
X1117920Y-1409198D02*
X1127444Y-1399674D01*
X1127444Y-1399674D02*
X1146491Y-1390150D01*
X1146491Y-1390150D02*
X1175063Y-1390150D01*
X1175063Y-1390150D02*
X1194110Y-1399674D01*
X1194110Y-1399674D02*
X1203634Y-1418722D01*
X1203634Y-1418722D02*
X1203634Y-1523484D01*
X1203634Y-1418722D02*
X1213158Y-1399674D01*
X1213158Y-1399674D02*
X1232205Y-1390150D01*
X1232205Y-1390150D02*
X1260777Y-1390150D01*
X1260777Y-1390150D02*
X1279825Y-1399674D01*
X1279825Y-1399674D02*
X1289348Y-1418722D01*
X1289348Y-1418722D02*
X1289348Y-1523484D01*
X1384586Y-1523484D02*
X1384586Y-1390150D01*
X1384586Y-1409198D02*
X1394110Y-1399674D01*
X1394110Y-1399674D02*
X1413158Y-1390150D01*
X1413158Y-1390150D02*
X1441729Y-1390150D01*
X1441729Y-1390150D02*
X1460777Y-1399674D01*
X1460777Y-1399674D02*
X1470301Y-1418722D01*
X1470301Y-1418722D02*
X1470301Y-1523484D01*
X1470301Y-1418722D02*
X1479824Y-1399674D01*
X1479824Y-1399674D02*
X1498872Y-1390150D01*
X1498872Y-1390150D02*
X1527443Y-1390150D01*
X1527443Y-1390150D02*
X1546491Y-1399674D01*
X1546491Y-1399674D02*
X1556015Y-1418722D01*
X1556015Y-1418722D02*
X1556015Y-1523484D01*
X1946491Y-1313960D02*
X1775063Y-1571103D01*
X2203634Y-1323484D02*
X2222682Y-1323484D01*
X2222682Y-1323484D02*
X2241729Y-1333008D01*
X2241729Y-1333008D02*
X2251253Y-1342531D01*
X2251253Y-1342531D02*
X2260777Y-1361579D01*
X2260777Y-1361579D02*
X2270301Y-1399674D01*
X2270301Y-1399674D02*
X2270301Y-1447293D01*
X2270301Y-1447293D02*
X2260777Y-1485388D01*
X2260777Y-1485388D02*
X2251253Y-1504436D01*
X2251253Y-1504436D02*
X2241729Y-1513960D01*
X2241729Y-1513960D02*
X2222682Y-1523484D01*
X2222682Y-1523484D02*
X2203634Y-1523484D01*
X2203634Y-1523484D02*
X2184587Y-1513960D01*
X2184587Y-1513960D02*
X2175063Y-1504436D01*
X2175063Y-1504436D02*
X2165539Y-1485388D01*
X2165539Y-1485388D02*
X2156015Y-1447293D01*
X2156015Y-1447293D02*
X2156015Y-1399674D01*
X2156015Y-1399674D02*
X2165539Y-1361579D01*
X2165539Y-1361579D02*
X2175063Y-1342531D01*
X2175063Y-1342531D02*
X2184587Y-1333008D01*
X2184587Y-1333008D02*
X2203634Y-1323484D01*
X2356015Y-1504436D02*
X2365539Y-1513960D01*
X2365539Y-1513960D02*
X2356015Y-1523484D01*
X2356015Y-1523484D02*
X2346491Y-1513960D01*
X2346491Y-1513960D02*
X2356015Y-1504436D01*
X2356015Y-1504436D02*
X2356015Y-1523484D01*
X2489348Y-1323484D02*
X2508396Y-1323484D01*
X2508396Y-1323484D02*
X2527444Y-1333008D01*
X2527444Y-1333008D02*
X2536968Y-1342531D01*
X2536968Y-1342531D02*
X2546491Y-1361579D01*
X2546491Y-1361579D02*
X2556015Y-1399674D01*
X2556015Y-1399674D02*
X2556015Y-1447293D01*
X2556015Y-1447293D02*
X2546491Y-1485388D01*
X2546491Y-1485388D02*
X2536968Y-1504436D01*
X2536968Y-1504436D02*
X2527444Y-1513960D01*
X2527444Y-1513960D02*
X2508396Y-1523484D01*
X2508396Y-1523484D02*
X2489348Y-1523484D01*
X2489348Y-1523484D02*
X2470301Y-1513960D01*
X2470301Y-1513960D02*
X2460777Y-1504436D01*
X2460777Y-1504436D02*
X2451253Y-1485388D01*
X2451253Y-1485388D02*
X2441729Y-1447293D01*
X2441729Y-1447293D02*
X2441729Y-1399674D01*
X2441729Y-1399674D02*
X2451253Y-1361579D01*
X2451253Y-1361579D02*
X2460777Y-1342531D01*
X2460777Y-1342531D02*
X2470301Y-1333008D01*
X2470301Y-1333008D02*
X2489348Y-1323484D01*
X2622682Y-1323484D02*
X2746491Y-1323484D01*
X2746491Y-1323484D02*
X2679825Y-1399674D01*
X2679825Y-1399674D02*
X2708396Y-1399674D01*
X2708396Y-1399674D02*
X2727444Y-1409198D01*
X2727444Y-1409198D02*
X2736968Y-1418722D01*
X2736968Y-1418722D02*
X2746491Y-1437769D01*
X2746491Y-1437769D02*
X2746491Y-1485388D01*
X2746491Y-1485388D02*
X2736968Y-1504436D01*
X2736968Y-1504436D02*
X2727444Y-1513960D01*
X2727444Y-1513960D02*
X2708396Y-1523484D01*
X2708396Y-1523484D02*
X2651253Y-1523484D01*
X2651253Y-1523484D02*
X2632206Y-1513960D01*
X2632206Y-1513960D02*
X2622682Y-1504436D01*
X2841729Y-1523484D02*
X2879825Y-1523484D01*
X2879825Y-1523484D02*
X2898872Y-1513960D01*
X2898872Y-1513960D02*
X2908396Y-1504436D01*
X2908396Y-1504436D02*
X2927444Y-1475865D01*
X2927444Y-1475865D02*
X2936967Y-1437769D01*
X2936967Y-1437769D02*
X2936967Y-1361579D01*
X2936967Y-1361579D02*
X2927444Y-1342531D01*
X2927444Y-1342531D02*
X2917920Y-1333008D01*
X2917920Y-1333008D02*
X2898872Y-1323484D01*
X2898872Y-1323484D02*
X2860777Y-1323484D01*
X2860777Y-1323484D02*
X2841729Y-1333008D01*
X2841729Y-1333008D02*
X2832206Y-1342531D01*
X2832206Y-1342531D02*
X2822682Y-1361579D01*
X2822682Y-1361579D02*
X2822682Y-1409198D01*
X2822682Y-1409198D02*
X2832206Y-1428246D01*
X2832206Y-1428246D02*
X2841729Y-1437769D01*
X2841729Y-1437769D02*
X2860777Y-1447293D01*
X2860777Y-1447293D02*
X2898872Y-1447293D01*
X2898872Y-1447293D02*
X2917920Y-1437769D01*
X2917920Y-1437769D02*
X2927444Y-1428246D01*
X2927444Y-1428246D02*
X2936967Y-1409198D01*
X3108396Y-1390150D02*
X3108396Y-1523484D01*
X3060777Y-1313960D02*
X3013158Y-1456817D01*
X3013158Y-1456817D02*
X3136967Y-1456817D01*
X3203634Y-1323484D02*
X3203634Y-1361579D01*
X3279825Y-1323484D02*
X3279825Y-1361579D01*
X3575063Y-1599674D02*
X3565539Y-1590150D01*
X3565539Y-1590150D02*
X3546491Y-1561579D01*
X3546491Y-1561579D02*
X3536968Y-1542531D01*
X3536968Y-1542531D02*
X3527444Y-1513960D01*
X3527444Y-1513960D02*
X3517920Y-1466341D01*
X3517920Y-1466341D02*
X3517920Y-1428246D01*
X3517920Y-1428246D02*
X3527444Y-1380627D01*
X3527444Y-1380627D02*
X3536968Y-1352055D01*
X3536968Y-1352055D02*
X3546491Y-1333008D01*
X3546491Y-1333008D02*
X3565539Y-1304436D01*
X3565539Y-1304436D02*
X3575063Y-1294912D01*
X3756015Y-1523484D02*
X3641729Y-1523484D01*
X3698872Y-1523484D02*
X3698872Y-1323484D01*
X3698872Y-1323484D02*
X3679825Y-1352055D01*
X3679825Y-1352055D02*
X3660777Y-1371103D01*
X3660777Y-1371103D02*
X3641729Y-1380627D01*
X3832206Y-1342531D02*
X3841729Y-1333008D01*
X3841729Y-1333008D02*
X3860777Y-1323484D01*
X3860777Y-1323484D02*
X3908396Y-1323484D01*
X3908396Y-1323484D02*
X3927444Y-1333008D01*
X3927444Y-1333008D02*
X3936968Y-1342531D01*
X3936968Y-1342531D02*
X3946491Y-1361579D01*
X3946491Y-1361579D02*
X3946491Y-1380627D01*
X3946491Y-1380627D02*
X3936968Y-1409198D01*
X3936968Y-1409198D02*
X3822682Y-1523484D01*
X3822682Y-1523484D02*
X3946491Y-1523484D01*
X4184587Y-1523484D02*
X4184587Y-1323484D01*
X4270301Y-1523484D02*
X4270301Y-1418722D01*
X4270301Y-1418722D02*
X4260777Y-1399674D01*
X4260777Y-1399674D02*
X4241730Y-1390150D01*
X4241730Y-1390150D02*
X4213158Y-1390150D01*
X4213158Y-1390150D02*
X4194110Y-1399674D01*
X4194110Y-1399674D02*
X4184587Y-1409198D01*
X4394111Y-1523484D02*
X4375063Y-1513960D01*
X4375063Y-1513960D02*
X4365539Y-1504436D01*
X4365539Y-1504436D02*
X4356015Y-1485388D01*
X4356015Y-1485388D02*
X4356015Y-1428246D01*
X4356015Y-1428246D02*
X4365539Y-1409198D01*
X4365539Y-1409198D02*
X4375063Y-1399674D01*
X4375063Y-1399674D02*
X4394111Y-1390150D01*
X4394111Y-1390150D02*
X4422682Y-1390150D01*
X4422682Y-1390150D02*
X4441730Y-1399674D01*
X4441730Y-1399674D02*
X4451253Y-1409198D01*
X4451253Y-1409198D02*
X4460777Y-1428246D01*
X4460777Y-1428246D02*
X4460777Y-1485388D01*
X4460777Y-1485388D02*
X4451253Y-1504436D01*
X4451253Y-1504436D02*
X4441730Y-1513960D01*
X4441730Y-1513960D02*
X4422682Y-1523484D01*
X4422682Y-1523484D02*
X4394111Y-1523484D01*
X4575063Y-1523484D02*
X4556015Y-1513960D01*
X4556015Y-1513960D02*
X4546492Y-1494912D01*
X4546492Y-1494912D02*
X4546492Y-1323484D01*
X4727444Y-1513960D02*
X4708396Y-1523484D01*
X4708396Y-1523484D02*
X4670301Y-1523484D01*
X4670301Y-1523484D02*
X4651253Y-1513960D01*
X4651253Y-1513960D02*
X4641730Y-1494912D01*
X4641730Y-1494912D02*
X4641730Y-1418722D01*
X4641730Y-1418722D02*
X4651253Y-1399674D01*
X4651253Y-1399674D02*
X4670301Y-1390150D01*
X4670301Y-1390150D02*
X4708396Y-1390150D01*
X4708396Y-1390150D02*
X4727444Y-1399674D01*
X4727444Y-1399674D02*
X4736968Y-1418722D01*
X4736968Y-1418722D02*
X4736968Y-1437769D01*
X4736968Y-1437769D02*
X4641730Y-1456817D01*
X4813158Y-1513960D02*
X4832206Y-1523484D01*
X4832206Y-1523484D02*
X4870301Y-1523484D01*
X4870301Y-1523484D02*
X4889349Y-1513960D01*
X4889349Y-1513960D02*
X4898873Y-1494912D01*
X4898873Y-1494912D02*
X4898873Y-1485388D01*
X4898873Y-1485388D02*
X4889349Y-1466341D01*
X4889349Y-1466341D02*
X4870301Y-1456817D01*
X4870301Y-1456817D02*
X4841730Y-1456817D01*
X4841730Y-1456817D02*
X4822682Y-1447293D01*
X4822682Y-1447293D02*
X4813158Y-1428246D01*
X4813158Y-1428246D02*
X4813158Y-1418722D01*
X4813158Y-1418722D02*
X4822682Y-1399674D01*
X4822682Y-1399674D02*
X4841730Y-1390150D01*
X4841730Y-1390150D02*
X4870301Y-1390150D01*
X4870301Y-1390150D02*
X4889349Y-1399674D01*
X4965539Y-1599674D02*
X4975063Y-1590150D01*
X4975063Y-1590150D02*
X4994111Y-1561579D01*
X4994111Y-1561579D02*
X5003634Y-1542531D01*
X5003634Y-1542531D02*
X5013158Y-1513960D01*
X5013158Y-1513960D02*
X5022682Y-1466341D01*
X5022682Y-1466341D02*
X5022682Y-1428246D01*
X5022682Y-1428246D02*
X5013158Y-1380627D01*
X5013158Y-1380627D02*
X5003634Y-1352055D01*
X5003634Y-1352055D02*
X4994111Y-1333008D01*
X4994111Y-1333008D02*
X4975063Y-1304436D01*
X4975063Y-1304436D02*
X4965539Y-1294912D01*
D12*
X-51000Y-1747000D02*
X0Y-1696000D01*
X-51000Y-1645000D01*
X-102000Y-1696000D01*
X-51000Y-1747000D01*
D10*
X365539Y-1787484D02*
X251253Y-1787484D01*
X308396Y-1787484D02*
X308396Y-1587484D01*
X308396Y-1587484D02*
X289348Y-1616055D01*
X289348Y-1616055D02*
X270301Y-1635103D01*
X270301Y-1635103D02*
X251253Y-1644627D01*
X451253Y-1768436D02*
X460777Y-1777960D01*
X460777Y-1777960D02*
X451253Y-1787484D01*
X451253Y-1787484D02*
X441729Y-1777960D01*
X441729Y-1777960D02*
X451253Y-1768436D01*
X451253Y-1768436D02*
X451253Y-1787484D01*
X584586Y-1587484D02*
X603634Y-1587484D01*
X603634Y-1587484D02*
X622682Y-1597008D01*
X622682Y-1597008D02*
X632205Y-1606531D01*
X632205Y-1606531D02*
X641729Y-1625579D01*
X641729Y-1625579D02*
X651253Y-1663674D01*
X651253Y-1663674D02*
X651253Y-1711293D01*
X651253Y-1711293D02*
X641729Y-1749388D01*
X641729Y-1749388D02*
X632205Y-1768436D01*
X632205Y-1768436D02*
X622682Y-1777960D01*
X622682Y-1777960D02*
X603634Y-1787484D01*
X603634Y-1787484D02*
X584586Y-1787484D01*
X584586Y-1787484D02*
X565539Y-1777960D01*
X565539Y-1777960D02*
X556015Y-1768436D01*
X556015Y-1768436D02*
X546491Y-1749388D01*
X546491Y-1749388D02*
X536967Y-1711293D01*
X536967Y-1711293D02*
X536967Y-1663674D01*
X536967Y-1663674D02*
X546491Y-1625579D01*
X546491Y-1625579D02*
X556015Y-1606531D01*
X556015Y-1606531D02*
X565539Y-1597008D01*
X565539Y-1597008D02*
X584586Y-1587484D01*
X727443Y-1606531D02*
X736967Y-1597008D01*
X736967Y-1597008D02*
X756015Y-1587484D01*
X756015Y-1587484D02*
X803634Y-1587484D01*
X803634Y-1587484D02*
X822682Y-1597008D01*
X822682Y-1597008D02*
X832205Y-1606531D01*
X832205Y-1606531D02*
X841729Y-1625579D01*
X841729Y-1625579D02*
X841729Y-1644627D01*
X841729Y-1644627D02*
X832205Y-1673198D01*
X832205Y-1673198D02*
X717920Y-1787484D01*
X717920Y-1787484D02*
X841729Y-1787484D01*
X965539Y-1587484D02*
X984586Y-1587484D01*
X984586Y-1587484D02*
X1003634Y-1597008D01*
X1003634Y-1597008D02*
X1013158Y-1606531D01*
X1013158Y-1606531D02*
X1022682Y-1625579D01*
X1022682Y-1625579D02*
X1032205Y-1663674D01*
X1032205Y-1663674D02*
X1032205Y-1711293D01*
X1032205Y-1711293D02*
X1022682Y-1749388D01*
X1022682Y-1749388D02*
X1013158Y-1768436D01*
X1013158Y-1768436D02*
X1003634Y-1777960D01*
X1003634Y-1777960D02*
X984586Y-1787484D01*
X984586Y-1787484D02*
X965539Y-1787484D01*
X965539Y-1787484D02*
X946491Y-1777960D01*
X946491Y-1777960D02*
X936967Y-1768436D01*
X936967Y-1768436D02*
X927443Y-1749388D01*
X927443Y-1749388D02*
X917920Y-1711293D01*
X917920Y-1711293D02*
X917920Y-1663674D01*
X917920Y-1663674D02*
X927443Y-1625579D01*
X927443Y-1625579D02*
X936967Y-1606531D01*
X936967Y-1606531D02*
X946491Y-1597008D01*
X946491Y-1597008D02*
X965539Y-1587484D01*
X1117920Y-1787484D02*
X1117920Y-1654150D01*
X1117920Y-1673198D02*
X1127444Y-1663674D01*
X1127444Y-1663674D02*
X1146491Y-1654150D01*
X1146491Y-1654150D02*
X1175063Y-1654150D01*
X1175063Y-1654150D02*
X1194110Y-1663674D01*
X1194110Y-1663674D02*
X1203634Y-1682722D01*
X1203634Y-1682722D02*
X1203634Y-1787484D01*
X1203634Y-1682722D02*
X1213158Y-1663674D01*
X1213158Y-1663674D02*
X1232205Y-1654150D01*
X1232205Y-1654150D02*
X1260777Y-1654150D01*
X1260777Y-1654150D02*
X1279825Y-1663674D01*
X1279825Y-1663674D02*
X1289348Y-1682722D01*
X1289348Y-1682722D02*
X1289348Y-1787484D01*
X1384586Y-1787484D02*
X1384586Y-1654150D01*
X1384586Y-1673198D02*
X1394110Y-1663674D01*
X1394110Y-1663674D02*
X1413158Y-1654150D01*
X1413158Y-1654150D02*
X1441729Y-1654150D01*
X1441729Y-1654150D02*
X1460777Y-1663674D01*
X1460777Y-1663674D02*
X1470301Y-1682722D01*
X1470301Y-1682722D02*
X1470301Y-1787484D01*
X1470301Y-1682722D02*
X1479824Y-1663674D01*
X1479824Y-1663674D02*
X1498872Y-1654150D01*
X1498872Y-1654150D02*
X1527443Y-1654150D01*
X1527443Y-1654150D02*
X1546491Y-1663674D01*
X1546491Y-1663674D02*
X1556015Y-1682722D01*
X1556015Y-1682722D02*
X1556015Y-1787484D01*
X1946491Y-1577960D02*
X1775063Y-1835103D01*
X2203634Y-1587484D02*
X2222682Y-1587484D01*
X2222682Y-1587484D02*
X2241729Y-1597008D01*
X2241729Y-1597008D02*
X2251253Y-1606531D01*
X2251253Y-1606531D02*
X2260777Y-1625579D01*
X2260777Y-1625579D02*
X2270301Y-1663674D01*
X2270301Y-1663674D02*
X2270301Y-1711293D01*
X2270301Y-1711293D02*
X2260777Y-1749388D01*
X2260777Y-1749388D02*
X2251253Y-1768436D01*
X2251253Y-1768436D02*
X2241729Y-1777960D01*
X2241729Y-1777960D02*
X2222682Y-1787484D01*
X2222682Y-1787484D02*
X2203634Y-1787484D01*
X2203634Y-1787484D02*
X2184587Y-1777960D01*
X2184587Y-1777960D02*
X2175063Y-1768436D01*
X2175063Y-1768436D02*
X2165539Y-1749388D01*
X2165539Y-1749388D02*
X2156015Y-1711293D01*
X2156015Y-1711293D02*
X2156015Y-1663674D01*
X2156015Y-1663674D02*
X2165539Y-1625579D01*
X2165539Y-1625579D02*
X2175063Y-1606531D01*
X2175063Y-1606531D02*
X2184587Y-1597008D01*
X2184587Y-1597008D02*
X2203634Y-1587484D01*
X2356015Y-1768436D02*
X2365539Y-1777960D01*
X2365539Y-1777960D02*
X2356015Y-1787484D01*
X2356015Y-1787484D02*
X2346491Y-1777960D01*
X2346491Y-1777960D02*
X2356015Y-1768436D01*
X2356015Y-1768436D02*
X2356015Y-1787484D01*
X2489348Y-1587484D02*
X2508396Y-1587484D01*
X2508396Y-1587484D02*
X2527444Y-1597008D01*
X2527444Y-1597008D02*
X2536968Y-1606531D01*
X2536968Y-1606531D02*
X2546491Y-1625579D01*
X2546491Y-1625579D02*
X2556015Y-1663674D01*
X2556015Y-1663674D02*
X2556015Y-1711293D01*
X2556015Y-1711293D02*
X2546491Y-1749388D01*
X2546491Y-1749388D02*
X2536968Y-1768436D01*
X2536968Y-1768436D02*
X2527444Y-1777960D01*
X2527444Y-1777960D02*
X2508396Y-1787484D01*
X2508396Y-1787484D02*
X2489348Y-1787484D01*
X2489348Y-1787484D02*
X2470301Y-1777960D01*
X2470301Y-1777960D02*
X2460777Y-1768436D01*
X2460777Y-1768436D02*
X2451253Y-1749388D01*
X2451253Y-1749388D02*
X2441729Y-1711293D01*
X2441729Y-1711293D02*
X2441729Y-1663674D01*
X2441729Y-1663674D02*
X2451253Y-1625579D01*
X2451253Y-1625579D02*
X2460777Y-1606531D01*
X2460777Y-1606531D02*
X2470301Y-1597008D01*
X2470301Y-1597008D02*
X2489348Y-1587484D01*
X2727444Y-1654150D02*
X2727444Y-1787484D01*
X2679825Y-1577960D02*
X2632206Y-1720817D01*
X2632206Y-1720817D02*
X2756015Y-1720817D01*
X2870301Y-1587484D02*
X2889348Y-1587484D01*
X2889348Y-1587484D02*
X2908396Y-1597008D01*
X2908396Y-1597008D02*
X2917920Y-1606531D01*
X2917920Y-1606531D02*
X2927444Y-1625579D01*
X2927444Y-1625579D02*
X2936967Y-1663674D01*
X2936967Y-1663674D02*
X2936967Y-1711293D01*
X2936967Y-1711293D02*
X2927444Y-1749388D01*
X2927444Y-1749388D02*
X2917920Y-1768436D01*
X2917920Y-1768436D02*
X2908396Y-1777960D01*
X2908396Y-1777960D02*
X2889348Y-1787484D01*
X2889348Y-1787484D02*
X2870301Y-1787484D01*
X2870301Y-1787484D02*
X2851253Y-1777960D01*
X2851253Y-1777960D02*
X2841729Y-1768436D01*
X2841729Y-1768436D02*
X2832206Y-1749388D01*
X2832206Y-1749388D02*
X2822682Y-1711293D01*
X2822682Y-1711293D02*
X2822682Y-1663674D01*
X2822682Y-1663674D02*
X2832206Y-1625579D01*
X2832206Y-1625579D02*
X2841729Y-1606531D01*
X2841729Y-1606531D02*
X2851253Y-1597008D01*
X2851253Y-1597008D02*
X2870301Y-1587484D01*
X3013158Y-1606531D02*
X3022682Y-1597008D01*
X3022682Y-1597008D02*
X3041729Y-1587484D01*
X3041729Y-1587484D02*
X3089348Y-1587484D01*
X3089348Y-1587484D02*
X3108396Y-1597008D01*
X3108396Y-1597008D02*
X3117920Y-1606531D01*
X3117920Y-1606531D02*
X3127444Y-1625579D01*
X3127444Y-1625579D02*
X3127444Y-1644627D01*
X3127444Y-1644627D02*
X3117920Y-1673198D01*
X3117920Y-1673198D02*
X3003634Y-1787484D01*
X3003634Y-1787484D02*
X3127444Y-1787484D01*
X3203634Y-1587484D02*
X3203634Y-1625579D01*
X3279825Y-1587484D02*
X3279825Y-1625579D01*
X3575063Y-1863674D02*
X3565539Y-1854150D01*
X3565539Y-1854150D02*
X3546491Y-1825579D01*
X3546491Y-1825579D02*
X3536968Y-1806531D01*
X3536968Y-1806531D02*
X3527444Y-1777960D01*
X3527444Y-1777960D02*
X3517920Y-1730341D01*
X3517920Y-1730341D02*
X3517920Y-1692246D01*
X3517920Y-1692246D02*
X3527444Y-1644627D01*
X3527444Y-1644627D02*
X3536968Y-1616055D01*
X3536968Y-1616055D02*
X3546491Y-1597008D01*
X3546491Y-1597008D02*
X3565539Y-1568436D01*
X3565539Y-1568436D02*
X3575063Y-1558912D01*
X3632206Y-1587484D02*
X3765539Y-1587484D01*
X3765539Y-1587484D02*
X3679825Y-1787484D01*
X3994110Y-1787484D02*
X3994110Y-1587484D01*
X4079825Y-1787484D02*
X4079825Y-1682722D01*
X4079825Y-1682722D02*
X4070301Y-1663674D01*
X4070301Y-1663674D02*
X4051253Y-1654150D01*
X4051253Y-1654150D02*
X4022682Y-1654150D01*
X4022682Y-1654150D02*
X4003634Y-1663674D01*
X4003634Y-1663674D02*
X3994110Y-1673198D01*
X4203634Y-1787484D02*
X4184587Y-1777960D01*
X4184587Y-1777960D02*
X4175063Y-1768436D01*
X4175063Y-1768436D02*
X4165539Y-1749388D01*
X4165539Y-1749388D02*
X4165539Y-1692246D01*
X4165539Y-1692246D02*
X4175063Y-1673198D01*
X4175063Y-1673198D02*
X4184587Y-1663674D01*
X4184587Y-1663674D02*
X4203634Y-1654150D01*
X4203634Y-1654150D02*
X4232206Y-1654150D01*
X4232206Y-1654150D02*
X4251253Y-1663674D01*
X4251253Y-1663674D02*
X4260777Y-1673198D01*
X4260777Y-1673198D02*
X4270301Y-1692246D01*
X4270301Y-1692246D02*
X4270301Y-1749388D01*
X4270301Y-1749388D02*
X4260777Y-1768436D01*
X4260777Y-1768436D02*
X4251253Y-1777960D01*
X4251253Y-1777960D02*
X4232206Y-1787484D01*
X4232206Y-1787484D02*
X4203634Y-1787484D01*
X4384587Y-1787484D02*
X4365539Y-1777960D01*
X4365539Y-1777960D02*
X4356015Y-1758912D01*
X4356015Y-1758912D02*
X4356015Y-1587484D01*
X4536968Y-1777960D02*
X4517920Y-1787484D01*
X4517920Y-1787484D02*
X4479825Y-1787484D01*
X4479825Y-1787484D02*
X4460777Y-1777960D01*
X4460777Y-1777960D02*
X4451253Y-1758912D01*
X4451253Y-1758912D02*
X4451253Y-1682722D01*
X4451253Y-1682722D02*
X4460777Y-1663674D01*
X4460777Y-1663674D02*
X4479825Y-1654150D01*
X4479825Y-1654150D02*
X4517920Y-1654150D01*
X4517920Y-1654150D02*
X4536968Y-1663674D01*
X4536968Y-1663674D02*
X4546492Y-1682722D01*
X4546492Y-1682722D02*
X4546492Y-1701769D01*
X4546492Y-1701769D02*
X4451253Y-1720817D01*
X4622682Y-1777960D02*
X4641730Y-1787484D01*
X4641730Y-1787484D02*
X4679825Y-1787484D01*
X4679825Y-1787484D02*
X4698873Y-1777960D01*
X4698873Y-1777960D02*
X4708396Y-1758912D01*
X4708396Y-1758912D02*
X4708396Y-1749388D01*
X4708396Y-1749388D02*
X4698873Y-1730341D01*
X4698873Y-1730341D02*
X4679825Y-1720817D01*
X4679825Y-1720817D02*
X4651253Y-1720817D01*
X4651253Y-1720817D02*
X4632206Y-1711293D01*
X4632206Y-1711293D02*
X4622682Y-1692246D01*
X4622682Y-1692246D02*
X4622682Y-1682722D01*
X4622682Y-1682722D02*
X4632206Y-1663674D01*
X4632206Y-1663674D02*
X4651253Y-1654150D01*
X4651253Y-1654150D02*
X4679825Y-1654150D01*
X4679825Y-1654150D02*
X4698873Y-1663674D01*
X4775063Y-1863674D02*
X4784587Y-1854150D01*
X4784587Y-1854150D02*
X4803634Y-1825579D01*
X4803634Y-1825579D02*
X4813158Y-1806531D01*
X4813158Y-1806531D02*
X4822682Y-1777960D01*
X4822682Y-1777960D02*
X4832206Y-1730341D01*
X4832206Y-1730341D02*
X4832206Y-1692246D01*
X4832206Y-1692246D02*
X4822682Y-1644627D01*
X4822682Y-1644627D02*
X4813158Y-1616055D01*
X4813158Y-1616055D02*
X4803634Y-1597008D01*
X4803634Y-1597008D02*
X4784587Y-1568436D01*
X4784587Y-1568436D02*
X4775063Y-1558912D01*
D13*
X-160000Y-1880000D02*
X0Y-2040000D01*
X0Y-1880000D02*
X-160000Y-2040000D01*
X0Y-1960000D02*
G75*
G02*
X-160000Y-1960000I-80000J0D01*
G01*
X-160000Y-1960000D02*
G75*
G02*
X0Y-1960000I80000J0D01*
G01*
D10*
X365539Y-2051484D02*
X251253Y-2051484D01*
X308396Y-2051484D02*
X308396Y-1851484D01*
X308396Y-1851484D02*
X289348Y-1880055D01*
X289348Y-1880055D02*
X270301Y-1899103D01*
X270301Y-1899103D02*
X251253Y-1908627D01*
X451253Y-2032436D02*
X460777Y-2041960D01*
X460777Y-2041960D02*
X451253Y-2051484D01*
X451253Y-2051484D02*
X441729Y-2041960D01*
X441729Y-2041960D02*
X451253Y-2032436D01*
X451253Y-2032436D02*
X451253Y-2051484D01*
X632205Y-1851484D02*
X594110Y-1851484D01*
X594110Y-1851484D02*
X575063Y-1861008D01*
X575063Y-1861008D02*
X565539Y-1870531D01*
X565539Y-1870531D02*
X546491Y-1899103D01*
X546491Y-1899103D02*
X536967Y-1937198D01*
X536967Y-1937198D02*
X536967Y-2013388D01*
X536967Y-2013388D02*
X546491Y-2032436D01*
X546491Y-2032436D02*
X556015Y-2041960D01*
X556015Y-2041960D02*
X575063Y-2051484D01*
X575063Y-2051484D02*
X613158Y-2051484D01*
X613158Y-2051484D02*
X632205Y-2041960D01*
X632205Y-2041960D02*
X641729Y-2032436D01*
X641729Y-2032436D02*
X651253Y-2013388D01*
X651253Y-2013388D02*
X651253Y-1965769D01*
X651253Y-1965769D02*
X641729Y-1946722D01*
X641729Y-1946722D02*
X632205Y-1937198D01*
X632205Y-1937198D02*
X613158Y-1927674D01*
X613158Y-1927674D02*
X575063Y-1927674D01*
X575063Y-1927674D02*
X556015Y-1937198D01*
X556015Y-1937198D02*
X546491Y-1946722D01*
X546491Y-1946722D02*
X536967Y-1965769D01*
X775062Y-1851484D02*
X794110Y-1851484D01*
X794110Y-1851484D02*
X813158Y-1861008D01*
X813158Y-1861008D02*
X822682Y-1870531D01*
X822682Y-1870531D02*
X832205Y-1889579D01*
X832205Y-1889579D02*
X841729Y-1927674D01*
X841729Y-1927674D02*
X841729Y-1975293D01*
X841729Y-1975293D02*
X832205Y-2013388D01*
X832205Y-2013388D02*
X822682Y-2032436D01*
X822682Y-2032436D02*
X813158Y-2041960D01*
X813158Y-2041960D02*
X794110Y-2051484D01*
X794110Y-2051484D02*
X775062Y-2051484D01*
X775062Y-2051484D02*
X756015Y-2041960D01*
X756015Y-2041960D02*
X746491Y-2032436D01*
X746491Y-2032436D02*
X736967Y-2013388D01*
X736967Y-2013388D02*
X727443Y-1975293D01*
X727443Y-1975293D02*
X727443Y-1927674D01*
X727443Y-1927674D02*
X736967Y-1889579D01*
X736967Y-1889579D02*
X746491Y-1870531D01*
X746491Y-1870531D02*
X756015Y-1861008D01*
X756015Y-1861008D02*
X775062Y-1851484D01*
X965539Y-1851484D02*
X984586Y-1851484D01*
X984586Y-1851484D02*
X1003634Y-1861008D01*
X1003634Y-1861008D02*
X1013158Y-1870531D01*
X1013158Y-1870531D02*
X1022682Y-1889579D01*
X1022682Y-1889579D02*
X1032205Y-1927674D01*
X1032205Y-1927674D02*
X1032205Y-1975293D01*
X1032205Y-1975293D02*
X1022682Y-2013388D01*
X1022682Y-2013388D02*
X1013158Y-2032436D01*
X1013158Y-2032436D02*
X1003634Y-2041960D01*
X1003634Y-2041960D02*
X984586Y-2051484D01*
X984586Y-2051484D02*
X965539Y-2051484D01*
X965539Y-2051484D02*
X946491Y-2041960D01*
X946491Y-2041960D02*
X936967Y-2032436D01*
X936967Y-2032436D02*
X927443Y-2013388D01*
X927443Y-2013388D02*
X917920Y-1975293D01*
X917920Y-1975293D02*
X917920Y-1927674D01*
X917920Y-1927674D02*
X927443Y-1889579D01*
X927443Y-1889579D02*
X936967Y-1870531D01*
X936967Y-1870531D02*
X946491Y-1861008D01*
X946491Y-1861008D02*
X965539Y-1851484D01*
X1117920Y-2051484D02*
X1117920Y-1918150D01*
X1117920Y-1937198D02*
X1127444Y-1927674D01*
X1127444Y-1927674D02*
X1146491Y-1918150D01*
X1146491Y-1918150D02*
X1175063Y-1918150D01*
X1175063Y-1918150D02*
X1194110Y-1927674D01*
X1194110Y-1927674D02*
X1203634Y-1946722D01*
X1203634Y-1946722D02*
X1203634Y-2051484D01*
X1203634Y-1946722D02*
X1213158Y-1927674D01*
X1213158Y-1927674D02*
X1232205Y-1918150D01*
X1232205Y-1918150D02*
X1260777Y-1918150D01*
X1260777Y-1918150D02*
X1279825Y-1927674D01*
X1279825Y-1927674D02*
X1289348Y-1946722D01*
X1289348Y-1946722D02*
X1289348Y-2051484D01*
X1384586Y-2051484D02*
X1384586Y-1918150D01*
X1384586Y-1937198D02*
X1394110Y-1927674D01*
X1394110Y-1927674D02*
X1413158Y-1918150D01*
X1413158Y-1918150D02*
X1441729Y-1918150D01*
X1441729Y-1918150D02*
X1460777Y-1927674D01*
X1460777Y-1927674D02*
X1470301Y-1946722D01*
X1470301Y-1946722D02*
X1470301Y-2051484D01*
X1470301Y-1946722D02*
X1479824Y-1927674D01*
X1479824Y-1927674D02*
X1498872Y-1918150D01*
X1498872Y-1918150D02*
X1527443Y-1918150D01*
X1527443Y-1918150D02*
X1546491Y-1927674D01*
X1546491Y-1927674D02*
X1556015Y-1946722D01*
X1556015Y-1946722D02*
X1556015Y-2051484D01*
X1946491Y-1841960D02*
X1775063Y-2099103D01*
X2203634Y-1851484D02*
X2222682Y-1851484D01*
X2222682Y-1851484D02*
X2241729Y-1861008D01*
X2241729Y-1861008D02*
X2251253Y-1870531D01*
X2251253Y-1870531D02*
X2260777Y-1889579D01*
X2260777Y-1889579D02*
X2270301Y-1927674D01*
X2270301Y-1927674D02*
X2270301Y-1975293D01*
X2270301Y-1975293D02*
X2260777Y-2013388D01*
X2260777Y-2013388D02*
X2251253Y-2032436D01*
X2251253Y-2032436D02*
X2241729Y-2041960D01*
X2241729Y-2041960D02*
X2222682Y-2051484D01*
X2222682Y-2051484D02*
X2203634Y-2051484D01*
X2203634Y-2051484D02*
X2184587Y-2041960D01*
X2184587Y-2041960D02*
X2175063Y-2032436D01*
X2175063Y-2032436D02*
X2165539Y-2013388D01*
X2165539Y-2013388D02*
X2156015Y-1975293D01*
X2156015Y-1975293D02*
X2156015Y-1927674D01*
X2156015Y-1927674D02*
X2165539Y-1889579D01*
X2165539Y-1889579D02*
X2175063Y-1870531D01*
X2175063Y-1870531D02*
X2184587Y-1861008D01*
X2184587Y-1861008D02*
X2203634Y-1851484D01*
X2356015Y-2032436D02*
X2365539Y-2041960D01*
X2365539Y-2041960D02*
X2356015Y-2051484D01*
X2356015Y-2051484D02*
X2346491Y-2041960D01*
X2346491Y-2041960D02*
X2356015Y-2032436D01*
X2356015Y-2032436D02*
X2356015Y-2051484D01*
X2489348Y-1851484D02*
X2508396Y-1851484D01*
X2508396Y-1851484D02*
X2527444Y-1861008D01*
X2527444Y-1861008D02*
X2536968Y-1870531D01*
X2536968Y-1870531D02*
X2546491Y-1889579D01*
X2546491Y-1889579D02*
X2556015Y-1927674D01*
X2556015Y-1927674D02*
X2556015Y-1975293D01*
X2556015Y-1975293D02*
X2546491Y-2013388D01*
X2546491Y-2013388D02*
X2536968Y-2032436D01*
X2536968Y-2032436D02*
X2527444Y-2041960D01*
X2527444Y-2041960D02*
X2508396Y-2051484D01*
X2508396Y-2051484D02*
X2489348Y-2051484D01*
X2489348Y-2051484D02*
X2470301Y-2041960D01*
X2470301Y-2041960D02*
X2460777Y-2032436D01*
X2460777Y-2032436D02*
X2451253Y-2013388D01*
X2451253Y-2013388D02*
X2441729Y-1975293D01*
X2441729Y-1975293D02*
X2441729Y-1927674D01*
X2441729Y-1927674D02*
X2451253Y-1889579D01*
X2451253Y-1889579D02*
X2460777Y-1870531D01*
X2460777Y-1870531D02*
X2470301Y-1861008D01*
X2470301Y-1861008D02*
X2489348Y-1851484D01*
X2727444Y-1851484D02*
X2689348Y-1851484D01*
X2689348Y-1851484D02*
X2670301Y-1861008D01*
X2670301Y-1861008D02*
X2660777Y-1870531D01*
X2660777Y-1870531D02*
X2641729Y-1899103D01*
X2641729Y-1899103D02*
X2632206Y-1937198D01*
X2632206Y-1937198D02*
X2632206Y-2013388D01*
X2632206Y-2013388D02*
X2641729Y-2032436D01*
X2641729Y-2032436D02*
X2651253Y-2041960D01*
X2651253Y-2041960D02*
X2670301Y-2051484D01*
X2670301Y-2051484D02*
X2708396Y-2051484D01*
X2708396Y-2051484D02*
X2727444Y-2041960D01*
X2727444Y-2041960D02*
X2736968Y-2032436D01*
X2736968Y-2032436D02*
X2746491Y-2013388D01*
X2746491Y-2013388D02*
X2746491Y-1965769D01*
X2746491Y-1965769D02*
X2736968Y-1946722D01*
X2736968Y-1946722D02*
X2727444Y-1937198D01*
X2727444Y-1937198D02*
X2708396Y-1927674D01*
X2708396Y-1927674D02*
X2670301Y-1927674D01*
X2670301Y-1927674D02*
X2651253Y-1937198D01*
X2651253Y-1937198D02*
X2641729Y-1946722D01*
X2641729Y-1946722D02*
X2632206Y-1965769D01*
X2813158Y-1851484D02*
X2936967Y-1851484D01*
X2936967Y-1851484D02*
X2870301Y-1927674D01*
X2870301Y-1927674D02*
X2898872Y-1927674D01*
X2898872Y-1927674D02*
X2917920Y-1937198D01*
X2917920Y-1937198D02*
X2927444Y-1946722D01*
X2927444Y-1946722D02*
X2936967Y-1965769D01*
X2936967Y-1965769D02*
X2936967Y-2013388D01*
X2936967Y-2013388D02*
X2927444Y-2032436D01*
X2927444Y-2032436D02*
X2917920Y-2041960D01*
X2917920Y-2041960D02*
X2898872Y-2051484D01*
X2898872Y-2051484D02*
X2841729Y-2051484D01*
X2841729Y-2051484D02*
X2822682Y-2041960D01*
X2822682Y-2041960D02*
X2813158Y-2032436D01*
X3060777Y-1851484D02*
X3079825Y-1851484D01*
X3079825Y-1851484D02*
X3098872Y-1861008D01*
X3098872Y-1861008D02*
X3108396Y-1870531D01*
X3108396Y-1870531D02*
X3117920Y-1889579D01*
X3117920Y-1889579D02*
X3127444Y-1927674D01*
X3127444Y-1927674D02*
X3127444Y-1975293D01*
X3127444Y-1975293D02*
X3117920Y-2013388D01*
X3117920Y-2013388D02*
X3108396Y-2032436D01*
X3108396Y-2032436D02*
X3098872Y-2041960D01*
X3098872Y-2041960D02*
X3079825Y-2051484D01*
X3079825Y-2051484D02*
X3060777Y-2051484D01*
X3060777Y-2051484D02*
X3041729Y-2041960D01*
X3041729Y-2041960D02*
X3032206Y-2032436D01*
X3032206Y-2032436D02*
X3022682Y-2013388D01*
X3022682Y-2013388D02*
X3013158Y-1975293D01*
X3013158Y-1975293D02*
X3013158Y-1927674D01*
X3013158Y-1927674D02*
X3022682Y-1889579D01*
X3022682Y-1889579D02*
X3032206Y-1870531D01*
X3032206Y-1870531D02*
X3041729Y-1861008D01*
X3041729Y-1861008D02*
X3060777Y-1851484D01*
X3203634Y-1851484D02*
X3203634Y-1889579D01*
X3279825Y-1851484D02*
X3279825Y-1889579D01*
X3575063Y-2127674D02*
X3565539Y-2118150D01*
X3565539Y-2118150D02*
X3546491Y-2089579D01*
X3546491Y-2089579D02*
X3536968Y-2070531D01*
X3536968Y-2070531D02*
X3527444Y-2041960D01*
X3527444Y-2041960D02*
X3517920Y-1994341D01*
X3517920Y-1994341D02*
X3517920Y-1956246D01*
X3517920Y-1956246D02*
X3527444Y-1908627D01*
X3527444Y-1908627D02*
X3536968Y-1880055D01*
X3536968Y-1880055D02*
X3546491Y-1861008D01*
X3546491Y-1861008D02*
X3565539Y-1832436D01*
X3565539Y-1832436D02*
X3575063Y-1822912D01*
X3632206Y-1851484D02*
X3756015Y-1851484D01*
X3756015Y-1851484D02*
X3689348Y-1927674D01*
X3689348Y-1927674D02*
X3717920Y-1927674D01*
X3717920Y-1927674D02*
X3736968Y-1937198D01*
X3736968Y-1937198D02*
X3746491Y-1946722D01*
X3746491Y-1946722D02*
X3756015Y-1965769D01*
X3756015Y-1965769D02*
X3756015Y-2013388D01*
X3756015Y-2013388D02*
X3746491Y-2032436D01*
X3746491Y-2032436D02*
X3736968Y-2041960D01*
X3736968Y-2041960D02*
X3717920Y-2051484D01*
X3717920Y-2051484D02*
X3660777Y-2051484D01*
X3660777Y-2051484D02*
X3641729Y-2041960D01*
X3641729Y-2041960D02*
X3632206Y-2032436D01*
X3994110Y-2051484D02*
X3994110Y-1851484D01*
X4079825Y-2051484D02*
X4079825Y-1946722D01*
X4079825Y-1946722D02*
X4070301Y-1927674D01*
X4070301Y-1927674D02*
X4051253Y-1918150D01*
X4051253Y-1918150D02*
X4022682Y-1918150D01*
X4022682Y-1918150D02*
X4003634Y-1927674D01*
X4003634Y-1927674D02*
X3994110Y-1937198D01*
X4203634Y-2051484D02*
X4184587Y-2041960D01*
X4184587Y-2041960D02*
X4175063Y-2032436D01*
X4175063Y-2032436D02*
X4165539Y-2013388D01*
X4165539Y-2013388D02*
X4165539Y-1956246D01*
X4165539Y-1956246D02*
X4175063Y-1937198D01*
X4175063Y-1937198D02*
X4184587Y-1927674D01*
X4184587Y-1927674D02*
X4203634Y-1918150D01*
X4203634Y-1918150D02*
X4232206Y-1918150D01*
X4232206Y-1918150D02*
X4251253Y-1927674D01*
X4251253Y-1927674D02*
X4260777Y-1937198D01*
X4260777Y-1937198D02*
X4270301Y-1956246D01*
X4270301Y-1956246D02*
X4270301Y-2013388D01*
X4270301Y-2013388D02*
X4260777Y-2032436D01*
X4260777Y-2032436D02*
X4251253Y-2041960D01*
X4251253Y-2041960D02*
X4232206Y-2051484D01*
X4232206Y-2051484D02*
X4203634Y-2051484D01*
X4384587Y-2051484D02*
X4365539Y-2041960D01*
X4365539Y-2041960D02*
X4356015Y-2022912D01*
X4356015Y-2022912D02*
X4356015Y-1851484D01*
X4536968Y-2041960D02*
X4517920Y-2051484D01*
X4517920Y-2051484D02*
X4479825Y-2051484D01*
X4479825Y-2051484D02*
X4460777Y-2041960D01*
X4460777Y-2041960D02*
X4451253Y-2022912D01*
X4451253Y-2022912D02*
X4451253Y-1946722D01*
X4451253Y-1946722D02*
X4460777Y-1927674D01*
X4460777Y-1927674D02*
X4479825Y-1918150D01*
X4479825Y-1918150D02*
X4517920Y-1918150D01*
X4517920Y-1918150D02*
X4536968Y-1927674D01*
X4536968Y-1927674D02*
X4546492Y-1946722D01*
X4546492Y-1946722D02*
X4546492Y-1965769D01*
X4546492Y-1965769D02*
X4451253Y-1984817D01*
X4622682Y-2041960D02*
X4641730Y-2051484D01*
X4641730Y-2051484D02*
X4679825Y-2051484D01*
X4679825Y-2051484D02*
X4698873Y-2041960D01*
X4698873Y-2041960D02*
X4708396Y-2022912D01*
X4708396Y-2022912D02*
X4708396Y-2013388D01*
X4708396Y-2013388D02*
X4698873Y-1994341D01*
X4698873Y-1994341D02*
X4679825Y-1984817D01*
X4679825Y-1984817D02*
X4651253Y-1984817D01*
X4651253Y-1984817D02*
X4632206Y-1975293D01*
X4632206Y-1975293D02*
X4622682Y-1956246D01*
X4622682Y-1956246D02*
X4622682Y-1946722D01*
X4622682Y-1946722D02*
X4632206Y-1927674D01*
X4632206Y-1927674D02*
X4651253Y-1918150D01*
X4651253Y-1918150D02*
X4679825Y-1918150D01*
X4679825Y-1918150D02*
X4698873Y-1927674D01*
X4775063Y-2127674D02*
X4784587Y-2118150D01*
X4784587Y-2118150D02*
X4803634Y-2089579D01*
X4803634Y-2089579D02*
X4813158Y-2070531D01*
X4813158Y-2070531D02*
X4822682Y-2041960D01*
X4822682Y-2041960D02*
X4832206Y-1994341D01*
X4832206Y-1994341D02*
X4832206Y-1956246D01*
X4832206Y-1956246D02*
X4822682Y-1908627D01*
X4822682Y-1908627D02*
X4813158Y-1880055D01*
X4813158Y-1880055D02*
X4803634Y-1861008D01*
X4803634Y-1861008D02*
X4784587Y-1832436D01*
X4784587Y-1832436D02*
X4775063Y-1822912D01*
M02*
