%TF.GenerationSoftware,KiCad,Pcbnew,9.0.2*%
%TF.CreationDate,2025-07-02T17:04:08+05:30*%
%TF.ProjectId,ESP32-RoboCore V1,45535033-322d-4526-9f62-6f436f726520,rev?*%
%TF.SameCoordinates,Original*%
%TF.FileFunction,Plated,1,4,PTH,Mixed*%
%TF.FilePolarity,Positive*%
%FSLAX46Y46*%
G04 Gerber Fmt 4.6, Leading zero omitted, Abs format (unit mm)*
G04 Created by KiCad (PCBNEW 9.0.2) date 2025-07-02 17:04:08*
%MOMM*%
%LPD*%
G01*
G04 APERTURE LIST*
%TA.AperFunction,ComponentDrill*%
%ADD10C,0.200000*%
%TD*%
%TA.AperFunction,ViaDrill*%
%ADD11C,0.300000*%
%TD*%
G04 aperture for slot hole*
%TA.AperFunction,ComponentDrill*%
%ADD12C,0.600000*%
%TD*%
%TA.AperFunction,ComponentDrill*%
%ADD13C,1.000000*%
%TD*%
%TA.AperFunction,ComponentDrill*%
%ADD14C,1.020000*%
%TD*%
%TA.AperFunction,ComponentDrill*%
%ADD15C,1.600000*%
%TD*%
G04 APERTURE END LIST*
D10*
%TO.C,U1*%
X83545000Y-50247500D03*
X83545000Y-51772500D03*
X84307500Y-49485000D03*
X84307500Y-51010000D03*
X84307500Y-52535000D03*
X85070000Y-50247500D03*
X85070000Y-51772500D03*
X85832500Y-49485000D03*
X85832500Y-51010000D03*
X85832500Y-52535000D03*
X86595000Y-50247500D03*
X86595000Y-51772500D03*
%TD*%
D11*
X52422200Y-62324000D03*
X52500000Y-35000000D03*
X55075000Y-62500000D03*
X58500000Y-61849000D03*
X59750000Y-38700000D03*
X60000000Y-52500000D03*
X70000000Y-57500000D03*
X73750000Y-46250000D03*
X77451000Y-43519000D03*
X82500000Y-61881000D03*
X82500000Y-72500000D03*
X83625000Y-63875000D03*
X85058800Y-69400000D03*
X87819700Y-55001000D03*
X90000000Y-69801000D03*
X92500000Y-55001000D03*
X94500000Y-46210000D03*
X96174800Y-53020400D03*
X96900000Y-61881000D03*
X97500000Y-45000000D03*
X97500000Y-57500000D03*
X97500000Y-60600000D03*
X97911000Y-62922900D03*
X99709500Y-59400000D03*
X100000000Y-71001000D03*
X100460700Y-53298100D03*
X102500000Y-60000000D03*
X105000000Y-55000000D03*
X110000000Y-45000000D03*
X112265000Y-32950000D03*
X112500000Y-27250000D03*
X112500000Y-52500000D03*
X113634000Y-30000000D03*
X113634000Y-31982500D03*
X115000000Y-30000000D03*
X115136765Y-47636765D03*
X117225000Y-43135000D03*
X117500000Y-57500000D03*
D12*
%TO.C,J1*%
X113730000Y-26180000D02*
X112630000Y-26180000D01*
X113730000Y-34820000D02*
X112630000Y-34820000D01*
X117660000Y-26180000D02*
X117060000Y-26180000D01*
X117660000Y-34820000D02*
X117060000Y-34820000D01*
D13*
%TO.C,J5*%
X50750000Y-53210000D03*
X50750000Y-55750000D03*
X50750000Y-58290000D03*
X50750000Y-60830000D03*
%TO.C,J6*%
X52750000Y-66750000D03*
X55290000Y-66750000D03*
X57830000Y-66750000D03*
X60370000Y-66750000D03*
%TO.C,J7*%
X81170000Y-66500000D03*
X83710000Y-66500000D03*
X86250000Y-66500000D03*
X88790000Y-66500000D03*
D14*
%TO.C,J4*%
X65960000Y-65250000D03*
X68500000Y-65250000D03*
X71040000Y-65250000D03*
X73580000Y-65250000D03*
%TO.C,J3*%
X103000000Y-65250000D03*
X105540000Y-65250000D03*
X108080000Y-65250000D03*
D15*
%TO.C,J2*%
X51500000Y-26500000D03*
X54500000Y-31200000D03*
X57500000Y-26500000D03*
M02*
