%TF.GenerationSoftware,KiCad,Pcbnew,9.0.2*%
%TF.CreationDate,2025-07-02T17:03:21+05:30*%
%TF.ProjectId,ESP32-RoboCore V1,45535033-322d-4526-9f62-6f436f726520,rev?*%
%TF.SameCoordinates,Original*%
%TF.FileFunction,Copper,L2,Inr*%
%TF.FilePolarity,Positive*%
%FSLAX46Y46*%
G04 Gerber Fmt 4.6, Leading zero omitted, Abs format (unit mm)*
G04 Created by KiCad (PCBNEW 9.0.2) date 2025-07-02 17:03:21*
%MOMM*%
%LPD*%
G01*
G04 APERTURE LIST*
%TA.AperFunction,HeatsinkPad*%
%ADD10C,0.600000*%
%TD*%
%TA.AperFunction,ComponentPad*%
%ADD11R,1.730000X2.030000*%
%TD*%
%TA.AperFunction,ComponentPad*%
%ADD12O,1.730000X2.030000*%
%TD*%
%TA.AperFunction,ComponentPad*%
%ADD13R,1.700000X1.700000*%
%TD*%
%TA.AperFunction,ComponentPad*%
%ADD14C,1.700000*%
%TD*%
%TA.AperFunction,HeatsinkPad*%
%ADD15O,2.100000X1.000000*%
%TD*%
%TA.AperFunction,HeatsinkPad*%
%ADD16O,1.600000X1.000000*%
%TD*%
%TA.AperFunction,ComponentPad*%
%ADD17R,2.600000X2.600000*%
%TD*%
%TA.AperFunction,ComponentPad*%
%ADD18C,2.600000*%
%TD*%
%TA.AperFunction,ViaPad*%
%ADD19C,0.600000*%
%TD*%
%TA.AperFunction,Conductor*%
%ADD20C,0.200000*%
%TD*%
G04 APERTURE END LIST*
D10*
%TO.N,GND*%
%TO.C,U1*%
X86595000Y-51772500D03*
X86595000Y-50247500D03*
X85832500Y-52535000D03*
X85832500Y-51010000D03*
X85832500Y-49485000D03*
X85070000Y-51772500D03*
X85070000Y-50247500D03*
X84307500Y-52535000D03*
X84307500Y-51010000D03*
X84307500Y-49485000D03*
X83545000Y-51772500D03*
X83545000Y-50247500D03*
%TD*%
D11*
%TO.N,Net-(J3-Pin_1)*%
%TO.C,J3*%
X108080000Y-65250000D03*
D12*
%TO.N,Net-(J3-Pin_2)*%
X105540000Y-65250000D03*
%TO.N,GND*%
X103000000Y-65250000D03*
%TD*%
D13*
%TO.N,/IO21*%
%TO.C,J6*%
X60370000Y-66750000D03*
D14*
%TO.N,/IO22*%
X57830000Y-66750000D03*
%TO.N,GND*%
X55290000Y-66750000D03*
%TO.N,/+3.3v*%
X52750000Y-66750000D03*
%TD*%
D15*
%TO.N,GND*%
%TO.C,J1*%
X113180000Y-34820000D03*
D16*
X117360000Y-34820000D03*
D15*
X113180000Y-26180000D03*
D16*
X117360000Y-26180000D03*
%TD*%
D17*
%TO.N,Net-(U3-VIN)*%
%TO.C,J2*%
X57500000Y-26500000D03*
D18*
%TO.N,GND*%
X51500000Y-26500000D03*
%TO.N,N/C*%
X54500000Y-31200000D03*
%TD*%
D13*
%TO.N,Net-(J5-Pin_1)*%
%TO.C,J5*%
X50750000Y-53210000D03*
D14*
%TO.N,Net-(J5-Pin_2)*%
X50750000Y-55750000D03*
%TO.N,Net-(J5-Pin_3)*%
X50750000Y-58290000D03*
%TO.N,Net-(J5-Pin_4)*%
X50750000Y-60830000D03*
%TD*%
D11*
%TO.N,Net-(J4-Pin_1)*%
%TO.C,J4*%
X73580000Y-65250000D03*
D12*
%TO.N,Net-(J4-Pin_2)*%
X71040000Y-65250000D03*
%TO.N,GND*%
X68500000Y-65250000D03*
%TO.N,/+3.3v*%
X65960000Y-65250000D03*
%TD*%
D13*
%TO.N,/IO21*%
%TO.C,J7*%
X81170000Y-66500000D03*
D14*
%TO.N,/IO22*%
X83710000Y-66500000D03*
%TO.N,GND*%
X86250000Y-66500000D03*
%TO.N,/+3.3v*%
X88790000Y-66500000D03*
%TD*%
D19*
%TO.N,Net-(U1-EN)*%
X115136765Y-47636765D03*
X70000000Y-57500000D03*
%TO.N,Net-(U1-SHD{slash}SD2)*%
X102500000Y-60000000D03*
X82500000Y-61881000D03*
%TO.N,Net-(U1-EN)*%
X117500000Y-57500000D03*
X112500000Y-52500000D03*
%TO.N,/IO22*%
X82500000Y-72500000D03*
X97500000Y-45000000D03*
X94500000Y-46210000D03*
X96174800Y-53020400D03*
%TO.N,Net-(J4-Pin_1)*%
X87819700Y-55001000D03*
X92500000Y-55001000D03*
%TO.N,Net-(J3-Pin_1)*%
X96900000Y-61881000D03*
%TO.N,Net-(J3-Pin_2)*%
X97500000Y-57500000D03*
X97500000Y-60600000D03*
X97911000Y-62922900D03*
%TO.N,Net-(J1-CC1)*%
X115000000Y-30000000D03*
X113634000Y-31982500D03*
%TO.N,Net-(U4-VCC)*%
X113634000Y-30000000D03*
X112265000Y-32950000D03*
X110000000Y-45000000D03*
%TO.N,GND*%
X59750000Y-38700000D03*
X99709500Y-59400000D03*
X112500000Y-27250000D03*
X52500000Y-35000000D03*
X55075000Y-62500000D03*
X83625000Y-63875000D03*
X85058800Y-69400000D03*
X100000000Y-71001000D03*
X73750000Y-46250000D03*
X77451000Y-43519000D03*
%TO.N,/+3.3v*%
X90000000Y-69801000D03*
X58500000Y-61849000D03*
X105000000Y-55000000D03*
X117225000Y-43135000D03*
X60000000Y-52500000D03*
X52422200Y-62324000D03*
X100460700Y-53298100D03*
%TD*%
D20*
%TO.N,/IO22*%
X96290000Y-46210000D02*
X97500000Y-45000000D01*
X94500000Y-46210000D02*
X96290000Y-46210000D01*
%TO.N,GND*%
X56441000Y-67901000D02*
X55290000Y-66750000D01*
X65849000Y-67901000D02*
X56441000Y-67901000D01*
X68500000Y-65250000D02*
X65849000Y-67901000D01*
%TD*%
%TA.AperFunction,Conductor*%
%TO.N,GND*%
G36*
X113096468Y-33401436D02*
G01*
X113133188Y-33460879D01*
X113133382Y-33461593D01*
X113173719Y-33612136D01*
X113201002Y-33659390D01*
X113249485Y-33743365D01*
X113356635Y-33850515D01*
X113367998Y-33857075D01*
X113416213Y-33907639D01*
X113430000Y-33964463D01*
X113430000Y-34520000D01*
X112930000Y-34520000D01*
X112930000Y-33820000D01*
X112812589Y-33820000D01*
X112745550Y-33800315D01*
X112699795Y-33747511D01*
X112689851Y-33678353D01*
X112718876Y-33614797D01*
X112743698Y-33592898D01*
X112757887Y-33583416D01*
X112775289Y-33571789D01*
X112886789Y-33460289D01*
X112910505Y-33424794D01*
X112964116Y-33379991D01*
X113033441Y-33371282D01*
X113096468Y-33401436D01*
G37*
%TD.AperFunction*%
%TA.AperFunction,Conductor*%
G36*
X125193039Y-20519685D02*
G01*
X125238794Y-20572489D01*
X125250000Y-20624000D01*
X125250000Y-72698638D01*
X125230315Y-72765677D01*
X125213681Y-72786319D01*
X123536319Y-74463681D01*
X123474996Y-74497166D01*
X123448638Y-74500000D01*
X41624000Y-74500000D01*
X41556961Y-74480315D01*
X41511206Y-74427511D01*
X41500000Y-74376000D01*
X41500000Y-72421153D01*
X81699500Y-72421153D01*
X81699500Y-72578846D01*
X81730261Y-72733489D01*
X81730264Y-72733501D01*
X81790602Y-72879172D01*
X81790609Y-72879185D01*
X81878210Y-73010288D01*
X81878213Y-73010292D01*
X81989707Y-73121786D01*
X81989711Y-73121789D01*
X82120814Y-73209390D01*
X82120827Y-73209397D01*
X82266498Y-73269735D01*
X82266503Y-73269737D01*
X82421153Y-73300499D01*
X82421156Y-73300500D01*
X82421158Y-73300500D01*
X82578844Y-73300500D01*
X82578845Y-73300499D01*
X82733497Y-73269737D01*
X82879179Y-73209394D01*
X83010289Y-73121789D01*
X83121789Y-73010289D01*
X83209394Y-72879179D01*
X83269737Y-72733497D01*
X83300500Y-72578842D01*
X83300500Y-72421158D01*
X83300500Y-72421155D01*
X83300499Y-72421153D01*
X83269738Y-72266510D01*
X83269737Y-72266503D01*
X83269735Y-72266498D01*
X83209397Y-72120827D01*
X83209390Y-72120814D01*
X83121789Y-71989711D01*
X83121786Y-71989707D01*
X83010292Y-71878213D01*
X83010288Y-71878210D01*
X82879185Y-71790609D01*
X82879172Y-71790602D01*
X82733501Y-71730264D01*
X82733489Y-71730261D01*
X82578845Y-71699500D01*
X82578842Y-71699500D01*
X82421158Y-71699500D01*
X82421155Y-71699500D01*
X82266510Y-71730261D01*
X82266498Y-71730264D01*
X82120827Y-71790602D01*
X82120814Y-71790609D01*
X81989711Y-71878210D01*
X81989707Y-71878213D01*
X81878213Y-71989707D01*
X81878210Y-71989711D01*
X81790609Y-72120814D01*
X81790602Y-72120827D01*
X81730264Y-72266498D01*
X81730261Y-72266510D01*
X81699500Y-72421153D01*
X41500000Y-72421153D01*
X41500000Y-69722153D01*
X89199500Y-69722153D01*
X89199500Y-69879846D01*
X89230261Y-70034489D01*
X89230264Y-70034501D01*
X89290602Y-70180172D01*
X89290609Y-70180185D01*
X89378210Y-70311288D01*
X89378213Y-70311292D01*
X89489707Y-70422786D01*
X89489711Y-70422789D01*
X89620814Y-70510390D01*
X89620827Y-70510397D01*
X89766498Y-70570735D01*
X89766503Y-70570737D01*
X89921153Y-70601499D01*
X89921156Y-70601500D01*
X89921158Y-70601500D01*
X90078844Y-70601500D01*
X90078845Y-70601499D01*
X90233497Y-70570737D01*
X90379179Y-70510394D01*
X90510289Y-70422789D01*
X90621789Y-70311289D01*
X90709394Y-70180179D01*
X90769737Y-70034497D01*
X90800500Y-69879842D01*
X90800500Y-69722158D01*
X90800500Y-69722155D01*
X90800499Y-69722153D01*
X90769738Y-69567510D01*
X90769737Y-69567503D01*
X90769735Y-69567498D01*
X90709397Y-69421827D01*
X90709390Y-69421814D01*
X90621789Y-69290711D01*
X90621786Y-69290707D01*
X90510292Y-69179213D01*
X90510288Y-69179210D01*
X90379185Y-69091609D01*
X90379172Y-69091602D01*
X90233501Y-69031264D01*
X90233489Y-69031261D01*
X90078845Y-69000500D01*
X90078842Y-69000500D01*
X89921158Y-69000500D01*
X89921155Y-69000500D01*
X89766510Y-69031261D01*
X89766498Y-69031264D01*
X89620827Y-69091602D01*
X89620814Y-69091609D01*
X89489711Y-69179210D01*
X89489707Y-69179213D01*
X89378213Y-69290707D01*
X89378210Y-69290711D01*
X89290609Y-69421814D01*
X89290602Y-69421827D01*
X89230264Y-69567498D01*
X89230261Y-69567510D01*
X89199500Y-69722153D01*
X41500000Y-69722153D01*
X41500000Y-66643713D01*
X51399500Y-66643713D01*
X51399500Y-66856286D01*
X51427144Y-67030827D01*
X51432754Y-67066243D01*
X51496267Y-67261716D01*
X51498444Y-67268414D01*
X51594951Y-67457820D01*
X51719890Y-67629786D01*
X51870213Y-67780109D01*
X52042179Y-67905048D01*
X52042181Y-67905049D01*
X52042184Y-67905051D01*
X52231588Y-68001557D01*
X52433757Y-68067246D01*
X52643713Y-68100500D01*
X52643714Y-68100500D01*
X52856286Y-68100500D01*
X52856287Y-68100500D01*
X53066243Y-68067246D01*
X53268412Y-68001557D01*
X53457816Y-67905051D01*
X53532901Y-67850499D01*
X53629786Y-67780109D01*
X53629788Y-67780106D01*
X53629792Y-67780104D01*
X53780104Y-67629792D01*
X53780106Y-67629788D01*
X53780109Y-67629786D01*
X53865890Y-67511717D01*
X53905051Y-67457816D01*
X53909793Y-67448508D01*
X53957763Y-67397711D01*
X54025583Y-67380911D01*
X54091719Y-67403445D01*
X54130763Y-67448500D01*
X54135373Y-67457547D01*
X54174728Y-67511716D01*
X54807037Y-66879408D01*
X54824075Y-66942993D01*
X54889901Y-67057007D01*
X54982993Y-67150099D01*
X55097007Y-67215925D01*
X55160590Y-67232962D01*
X54528282Y-67865269D01*
X54528282Y-67865270D01*
X54582449Y-67904624D01*
X54771782Y-68001095D01*
X54973870Y-68066757D01*
X55183754Y-68100000D01*
X55396246Y-68100000D01*
X55606127Y-68066757D01*
X55606130Y-68066757D01*
X55808217Y-68001095D01*
X55997554Y-67904622D01*
X56051716Y-67865270D01*
X56051717Y-67865270D01*
X55419408Y-67232962D01*
X55482993Y-67215925D01*
X55597007Y-67150099D01*
X55690099Y-67057007D01*
X55755925Y-66942993D01*
X55772962Y-66879408D01*
X56405270Y-67511717D01*
X56405270Y-67511716D01*
X56444622Y-67457555D01*
X56449232Y-67448507D01*
X56497205Y-67397709D01*
X56565025Y-67380912D01*
X56631161Y-67403447D01*
X56670204Y-67448504D01*
X56674949Y-67457817D01*
X56799890Y-67629786D01*
X56950213Y-67780109D01*
X57122179Y-67905048D01*
X57122181Y-67905049D01*
X57122184Y-67905051D01*
X57311588Y-68001557D01*
X57513757Y-68067246D01*
X57723713Y-68100500D01*
X57723714Y-68100500D01*
X57936286Y-68100500D01*
X57936287Y-68100500D01*
X58146243Y-68067246D01*
X58348412Y-68001557D01*
X58537816Y-67905051D01*
X58690945Y-67793797D01*
X58709784Y-67780110D01*
X58709784Y-67780109D01*
X58709792Y-67780104D01*
X58823329Y-67666566D01*
X58884648Y-67633084D01*
X58954340Y-67638068D01*
X59010274Y-67679939D01*
X59027189Y-67710917D01*
X59076202Y-67842328D01*
X59076206Y-67842335D01*
X59162452Y-67957544D01*
X59162455Y-67957547D01*
X59277664Y-68043793D01*
X59277671Y-68043797D01*
X59412517Y-68094091D01*
X59412516Y-68094091D01*
X59419444Y-68094835D01*
X59472127Y-68100500D01*
X61267872Y-68100499D01*
X61327483Y-68094091D01*
X61462331Y-68043796D01*
X61577546Y-67957546D01*
X61663796Y-67842331D01*
X61714091Y-67707483D01*
X61720500Y-67647873D01*
X61720499Y-65852128D01*
X61714091Y-65792517D01*
X61714062Y-65792440D01*
X61663797Y-65657671D01*
X61663793Y-65657664D01*
X61577547Y-65542455D01*
X61577544Y-65542452D01*
X61462335Y-65456206D01*
X61462328Y-65456202D01*
X61327482Y-65405908D01*
X61327483Y-65405908D01*
X61267883Y-65399501D01*
X61267881Y-65399500D01*
X61267873Y-65399500D01*
X61267864Y-65399500D01*
X59472129Y-65399500D01*
X59472123Y-65399501D01*
X59412516Y-65405908D01*
X59277671Y-65456202D01*
X59277664Y-65456206D01*
X59162455Y-65542452D01*
X59162452Y-65542455D01*
X59076206Y-65657664D01*
X59076203Y-65657669D01*
X59027189Y-65789083D01*
X58985317Y-65845016D01*
X58919853Y-65869433D01*
X58851580Y-65854581D01*
X58823326Y-65833430D01*
X58709786Y-65719890D01*
X58537820Y-65594951D01*
X58348414Y-65498444D01*
X58348413Y-65498443D01*
X58348412Y-65498443D01*
X58146243Y-65432754D01*
X58146241Y-65432753D01*
X58146240Y-65432753D01*
X57984957Y-65407208D01*
X57936287Y-65399500D01*
X57723713Y-65399500D01*
X57675042Y-65407208D01*
X57513760Y-65432753D01*
X57311585Y-65498444D01*
X57122179Y-65594951D01*
X56950213Y-65719890D01*
X56799890Y-65870213D01*
X56674949Y-66042182D01*
X56670202Y-66051499D01*
X56622227Y-66102293D01*
X56554405Y-66119087D01*
X56488271Y-66096548D01*
X56449234Y-66051495D01*
X56444626Y-66042452D01*
X56405270Y-65988282D01*
X56405269Y-65988282D01*
X55772962Y-66620590D01*
X55755925Y-66557007D01*
X55690099Y-66442993D01*
X55597007Y-66349901D01*
X55482993Y-66284075D01*
X55419409Y-66267037D01*
X56051716Y-65634728D01*
X55997550Y-65595375D01*
X55808217Y-65498904D01*
X55606129Y-65433242D01*
X55396246Y-65400000D01*
X55183754Y-65400000D01*
X54973872Y-65433242D01*
X54973869Y-65433242D01*
X54771782Y-65498904D01*
X54582439Y-65595380D01*
X54528282Y-65634727D01*
X54528282Y-65634728D01*
X55160591Y-66267037D01*
X55097007Y-66284075D01*
X54982993Y-66349901D01*
X54889901Y-66442993D01*
X54824075Y-66557007D01*
X54807037Y-66620591D01*
X54174728Y-65988282D01*
X54174727Y-65988282D01*
X54135380Y-66042440D01*
X54135376Y-66042446D01*
X54130760Y-66051505D01*
X54082781Y-66102297D01*
X54014959Y-66119087D01*
X53948826Y-66096543D01*
X53909794Y-66051493D01*
X53905051Y-66042184D01*
X53905049Y-66042181D01*
X53905048Y-66042179D01*
X53780109Y-65870213D01*
X53629786Y-65719890D01*
X53457820Y-65594951D01*
X53268414Y-65498444D01*
X53268413Y-65498443D01*
X53268412Y-65498443D01*
X53066243Y-65432754D01*
X53066241Y-65432753D01*
X53066240Y-65432753D01*
X52904957Y-65407208D01*
X52856287Y-65399500D01*
X52643713Y-65399500D01*
X52595042Y-65407208D01*
X52433760Y-65432753D01*
X52231585Y-65498444D01*
X52042179Y-65594951D01*
X51870213Y-65719890D01*
X51719890Y-65870213D01*
X51594951Y-66042179D01*
X51498444Y-66231585D01*
X51432753Y-66433760D01*
X51399500Y-66643713D01*
X41500000Y-66643713D01*
X41500000Y-64992533D01*
X64594500Y-64992533D01*
X64594500Y-65507467D01*
X64609235Y-65600499D01*
X64628124Y-65719756D01*
X64628124Y-65719759D01*
X64694540Y-65924167D01*
X64694541Y-65924170D01*
X64784081Y-66099901D01*
X64792120Y-66115678D01*
X64918455Y-66289563D01*
X65070437Y-66441545D01*
X65244322Y-66567880D01*
X65319698Y-66606286D01*
X65435829Y-66665458D01*
X65435832Y-66665459D01*
X65626494Y-66727408D01*
X65640245Y-66731876D01*
X65852533Y-66765500D01*
X65852534Y-66765500D01*
X66067466Y-66765500D01*
X66067467Y-66765500D01*
X66279755Y-66731876D01*
X66279758Y-66731875D01*
X66279759Y-66731875D01*
X66484167Y-66665459D01*
X66484170Y-66665458D01*
X66533618Y-66640263D01*
X66675678Y-66567880D01*
X66849563Y-66441545D01*
X67001545Y-66289563D01*
X67127880Y-66115678D01*
X67127881Y-66115675D01*
X67129990Y-66112773D01*
X67185320Y-66070107D01*
X67254933Y-66064128D01*
X67316728Y-66096734D01*
X67330626Y-66112772D01*
X67458838Y-66289239D01*
X67458838Y-66289240D01*
X67610759Y-66441161D01*
X67784585Y-66567454D01*
X67914645Y-66633722D01*
X67965442Y-66681696D01*
X67982237Y-66749517D01*
X67959700Y-66815652D01*
X67946033Y-66831888D01*
X67878210Y-66899711D01*
X67790609Y-67030814D01*
X67790602Y-67030827D01*
X67730264Y-67176498D01*
X67730261Y-67176510D01*
X67699500Y-67331153D01*
X67699500Y-67488846D01*
X67730261Y-67643489D01*
X67730264Y-67643501D01*
X67790602Y-67789172D01*
X67790609Y-67789185D01*
X67878210Y-67920288D01*
X67878213Y-67920292D01*
X67989707Y-68031786D01*
X67989711Y-68031789D01*
X68120814Y-68119390D01*
X68120827Y-68119397D01*
X68266498Y-68179735D01*
X68266503Y-68179737D01*
X68421153Y-68210499D01*
X68421156Y-68210500D01*
X68421158Y-68210500D01*
X68578844Y-68210500D01*
X68578845Y-68210499D01*
X68733497Y-68179737D01*
X68879179Y-68119394D01*
X69010289Y-68031789D01*
X69121789Y-67920289D01*
X69209394Y-67789179D01*
X69213151Y-67780110D01*
X69267924Y-67647873D01*
X69269737Y-67643497D01*
X69300500Y-67488842D01*
X69300500Y-67331158D01*
X69300500Y-67331155D01*
X69300499Y-67331153D01*
X69286687Y-67261716D01*
X69269737Y-67176503D01*
X69250853Y-67130912D01*
X69209397Y-67030827D01*
X69209390Y-67030814D01*
X69121789Y-66899711D01*
X69121786Y-66899707D01*
X69053967Y-66831888D01*
X69020482Y-66770565D01*
X69025466Y-66700873D01*
X69067338Y-66644940D01*
X69085354Y-66633722D01*
X69215414Y-66567454D01*
X69389240Y-66441161D01*
X69541161Y-66289240D01*
X69541166Y-66289234D01*
X69669373Y-66112773D01*
X69724703Y-66070107D01*
X69794316Y-66064128D01*
X69856111Y-66096734D01*
X69870009Y-66112772D01*
X69872119Y-66115676D01*
X69872120Y-66115678D01*
X69998455Y-66289563D01*
X70150437Y-66441545D01*
X70324322Y-66567880D01*
X70399698Y-66606286D01*
X70515829Y-66665458D01*
X70515832Y-66665459D01*
X70706494Y-66727408D01*
X70720245Y-66731876D01*
X70932533Y-66765500D01*
X70932534Y-66765500D01*
X71147466Y-66765500D01*
X71147467Y-66765500D01*
X71359755Y-66731876D01*
X71359758Y-66731875D01*
X71359759Y-66731875D01*
X71564167Y-66665459D01*
X71564170Y-66665458D01*
X71613618Y-66640263D01*
X71755678Y-66567880D01*
X71929563Y-66441545D01*
X72024092Y-66347015D01*
X72085411Y-66313533D01*
X72155103Y-66318517D01*
X72211037Y-66360388D01*
X72227952Y-66391366D01*
X72271202Y-66507328D01*
X72271206Y-66507335D01*
X72357452Y-66622544D01*
X72357455Y-66622547D01*
X72472664Y-66708793D01*
X72472671Y-66708797D01*
X72607517Y-66759091D01*
X72607516Y-66759091D01*
X72614444Y-66759835D01*
X72667127Y-66765500D01*
X74492872Y-66765499D01*
X74552483Y-66759091D01*
X74687331Y-66708796D01*
X74802546Y-66622546D01*
X74888796Y-66507331D01*
X74939091Y-66372483D01*
X74945500Y-66312873D01*
X74945500Y-65602135D01*
X79819500Y-65602135D01*
X79819500Y-67397870D01*
X79819501Y-67397876D01*
X79825908Y-67457483D01*
X79876202Y-67592328D01*
X79876206Y-67592335D01*
X79962452Y-67707544D01*
X79962455Y-67707547D01*
X80077664Y-67793793D01*
X80077671Y-67793797D01*
X80212517Y-67844091D01*
X80212516Y-67844091D01*
X80219444Y-67844835D01*
X80272127Y-67850500D01*
X82067872Y-67850499D01*
X82127483Y-67844091D01*
X82262331Y-67793796D01*
X82377546Y-67707546D01*
X82463796Y-67592331D01*
X82512810Y-67460916D01*
X82554681Y-67404984D01*
X82620145Y-67380566D01*
X82688418Y-67395417D01*
X82716673Y-67416569D01*
X82830213Y-67530109D01*
X83002179Y-67655048D01*
X83002181Y-67655049D01*
X83002184Y-67655051D01*
X83191588Y-67751557D01*
X83393757Y-67817246D01*
X83603713Y-67850500D01*
X83603714Y-67850500D01*
X83816286Y-67850500D01*
X83816287Y-67850500D01*
X84026243Y-67817246D01*
X84228412Y-67751557D01*
X84417816Y-67655051D01*
X84504138Y-67592335D01*
X84589786Y-67530109D01*
X84589788Y-67530106D01*
X84589792Y-67530104D01*
X84740104Y-67379792D01*
X84740106Y-67379788D01*
X84740109Y-67379786D01*
X84825890Y-67261717D01*
X84865051Y-67207816D01*
X84869793Y-67198508D01*
X84917763Y-67147711D01*
X84985583Y-67130911D01*
X85051719Y-67153445D01*
X85090763Y-67198500D01*
X85095373Y-67207547D01*
X85134728Y-67261716D01*
X85767037Y-66629408D01*
X85784075Y-66692993D01*
X85849901Y-66807007D01*
X85942993Y-66900099D01*
X86057007Y-66965925D01*
X86120590Y-66982962D01*
X85488282Y-67615269D01*
X85488282Y-67615270D01*
X85542449Y-67654624D01*
X85731782Y-67751095D01*
X85933870Y-67816757D01*
X86143754Y-67850000D01*
X86356246Y-67850000D01*
X86566127Y-67816757D01*
X86566130Y-67816757D01*
X86768217Y-67751095D01*
X86957554Y-67654622D01*
X87011716Y-67615270D01*
X87011717Y-67615270D01*
X86379408Y-66982962D01*
X86442993Y-66965925D01*
X86557007Y-66900099D01*
X86650099Y-66807007D01*
X86715925Y-66692993D01*
X86732962Y-66629409D01*
X87365270Y-67261717D01*
X87365270Y-67261716D01*
X87404622Y-67207555D01*
X87409232Y-67198507D01*
X87457205Y-67147709D01*
X87525025Y-67130912D01*
X87591161Y-67153447D01*
X87630204Y-67198504D01*
X87634949Y-67207817D01*
X87759890Y-67379786D01*
X87910213Y-67530109D01*
X88082179Y-67655048D01*
X88082181Y-67655049D01*
X88082184Y-67655051D01*
X88271588Y-67751557D01*
X88473757Y-67817246D01*
X88683713Y-67850500D01*
X88683714Y-67850500D01*
X88896286Y-67850500D01*
X88896287Y-67850500D01*
X89106243Y-67817246D01*
X89308412Y-67751557D01*
X89497816Y-67655051D01*
X89584138Y-67592335D01*
X89669786Y-67530109D01*
X89669788Y-67530106D01*
X89669792Y-67530104D01*
X89820104Y-67379792D01*
X89820106Y-67379788D01*
X89820109Y-67379786D01*
X89929086Y-67229789D01*
X89945051Y-67207816D01*
X90041557Y-67018412D01*
X90107246Y-66816243D01*
X90140500Y-66606287D01*
X90140500Y-66393713D01*
X90107246Y-66183757D01*
X90041557Y-65981588D01*
X89945051Y-65792184D01*
X89945049Y-65792181D01*
X89945048Y-65792179D01*
X89820109Y-65620213D01*
X89669786Y-65469890D01*
X89497820Y-65344951D01*
X89308414Y-65248444D01*
X89308413Y-65248443D01*
X89308412Y-65248443D01*
X89106243Y-65182754D01*
X89106241Y-65182753D01*
X89106240Y-65182753D01*
X88944957Y-65157208D01*
X88896287Y-65149500D01*
X88683713Y-65149500D01*
X88635042Y-65157208D01*
X88473760Y-65182753D01*
X88271585Y-65248444D01*
X88082179Y-65344951D01*
X87910213Y-65469890D01*
X87759890Y-65620213D01*
X87634949Y-65792182D01*
X87630202Y-65801499D01*
X87582227Y-65852293D01*
X87514405Y-65869087D01*
X87448271Y-65846548D01*
X87409234Y-65801495D01*
X87404626Y-65792452D01*
X87365270Y-65738282D01*
X87365269Y-65738282D01*
X86732962Y-66370590D01*
X86715925Y-66307007D01*
X86650099Y-66192993D01*
X86557007Y-66099901D01*
X86442993Y-66034075D01*
X86379409Y-66017037D01*
X87011716Y-65384728D01*
X86957550Y-65345375D01*
X86768217Y-65248904D01*
X86566129Y-65183242D01*
X86356246Y-65150000D01*
X86143754Y-65150000D01*
X85933872Y-65183242D01*
X85933869Y-65183242D01*
X85731782Y-65248904D01*
X85542439Y-65345380D01*
X85488282Y-65384727D01*
X85488282Y-65384728D01*
X86120591Y-66017037D01*
X86057007Y-66034075D01*
X85942993Y-66099901D01*
X85849901Y-66192993D01*
X85784075Y-66307007D01*
X85767037Y-66370591D01*
X85134728Y-65738282D01*
X85134727Y-65738282D01*
X85095380Y-65792440D01*
X85095376Y-65792446D01*
X85090760Y-65801505D01*
X85042781Y-65852297D01*
X84974959Y-65869087D01*
X84908826Y-65846543D01*
X84869794Y-65801493D01*
X84865051Y-65792184D01*
X84865049Y-65792181D01*
X84865048Y-65792179D01*
X84740109Y-65620213D01*
X84589786Y-65469890D01*
X84417820Y-65344951D01*
X84228414Y-65248444D01*
X84228413Y-65248443D01*
X84228412Y-65248443D01*
X84026243Y-65182754D01*
X84026241Y-65182753D01*
X84026240Y-65182753D01*
X83864957Y-65157208D01*
X83816287Y-65149500D01*
X83603713Y-65149500D01*
X83555042Y-65157208D01*
X83393760Y-65182753D01*
X83191585Y-65248444D01*
X83002179Y-65344951D01*
X82830215Y-65469889D01*
X82716673Y-65583431D01*
X82655350Y-65616915D01*
X82585658Y-65611931D01*
X82529725Y-65570059D01*
X82512810Y-65539082D01*
X82463797Y-65407671D01*
X82463793Y-65407664D01*
X82377547Y-65292455D01*
X82377544Y-65292452D01*
X82262335Y-65206206D01*
X82262328Y-65206202D01*
X82127482Y-65155908D01*
X82127483Y-65155908D01*
X82067883Y-65149501D01*
X82067881Y-65149500D01*
X82067873Y-65149500D01*
X82067864Y-65149500D01*
X80272129Y-65149500D01*
X80272123Y-65149501D01*
X80212516Y-65155908D01*
X80077671Y-65206202D01*
X80077664Y-65206206D01*
X79962455Y-65292452D01*
X79962452Y-65292455D01*
X79876206Y-65407664D01*
X79876202Y-65407671D01*
X79825908Y-65542517D01*
X79819501Y-65602116D01*
X79819500Y-65602135D01*
X74945500Y-65602135D01*
X74945500Y-65292452D01*
X74945500Y-64992572D01*
X101635000Y-64992572D01*
X101635000Y-65000000D01*
X102555440Y-65000000D01*
X102524755Y-65053147D01*
X102490000Y-65182857D01*
X102490000Y-65317143D01*
X102524755Y-65446853D01*
X102555440Y-65500000D01*
X101635000Y-65500000D01*
X101635000Y-65507427D01*
X101668611Y-65719639D01*
X101668611Y-65719642D01*
X101735003Y-65923975D01*
X101832547Y-66115416D01*
X101958838Y-66289240D01*
X102110759Y-66441161D01*
X102284583Y-66567452D01*
X102476024Y-66664996D01*
X102680359Y-66731388D01*
X102749999Y-66742418D01*
X102750000Y-66742418D01*
X102750000Y-65694560D01*
X102803147Y-65725245D01*
X102932857Y-65760000D01*
X103067143Y-65760000D01*
X103196853Y-65725245D01*
X103250000Y-65694560D01*
X103250000Y-66742418D01*
X103319638Y-66731388D01*
X103319641Y-66731388D01*
X103523975Y-66664996D01*
X103715416Y-66567452D01*
X103889240Y-66441161D01*
X104041161Y-66289240D01*
X104041166Y-66289234D01*
X104169373Y-66112773D01*
X104224703Y-66070107D01*
X104294316Y-66064128D01*
X104356111Y-66096734D01*
X104370009Y-66112772D01*
X104372119Y-66115676D01*
X104372120Y-66115678D01*
X104498455Y-66289563D01*
X104650437Y-66441545D01*
X104824322Y-66567880D01*
X104899698Y-66606286D01*
X105015829Y-66665458D01*
X105015832Y-66665459D01*
X105206494Y-66727408D01*
X105220245Y-66731876D01*
X105432533Y-66765500D01*
X105432534Y-66765500D01*
X105647466Y-66765500D01*
X105647467Y-66765500D01*
X105859755Y-66731876D01*
X105859758Y-66731875D01*
X105859759Y-66731875D01*
X106064167Y-66665459D01*
X106064170Y-66665458D01*
X106113618Y-66640263D01*
X106255678Y-66567880D01*
X106429563Y-66441545D01*
X106524092Y-66347015D01*
X106585411Y-66313533D01*
X106655103Y-66318517D01*
X106711037Y-66360388D01*
X106727952Y-66391366D01*
X106771202Y-66507328D01*
X106771206Y-66507335D01*
X106857452Y-66622544D01*
X106857455Y-66622547D01*
X106972664Y-66708793D01*
X106972671Y-66708797D01*
X107107517Y-66759091D01*
X107107516Y-66759091D01*
X107114444Y-66759835D01*
X107167127Y-66765500D01*
X108992872Y-66765499D01*
X109052483Y-66759091D01*
X109187331Y-66708796D01*
X109302546Y-66622546D01*
X109388796Y-66507331D01*
X109439091Y-66372483D01*
X109445500Y-66312873D01*
X109445499Y-64920943D01*
X116649500Y-64920943D01*
X116649500Y-65079057D01*
X116690030Y-65230315D01*
X116690423Y-65231783D01*
X116690426Y-65231790D01*
X116769475Y-65368709D01*
X116769479Y-65368714D01*
X116769480Y-65368716D01*
X116881284Y-65480520D01*
X116881286Y-65480521D01*
X116881290Y-65480524D01*
X116988667Y-65542517D01*
X117018216Y-65559577D01*
X117170943Y-65600500D01*
X117170945Y-65600500D01*
X117329055Y-65600500D01*
X117329057Y-65600500D01*
X117481784Y-65559577D01*
X117618716Y-65480520D01*
X117730520Y-65368716D01*
X117809577Y-65231784D01*
X117850500Y-65079057D01*
X117850500Y-64920943D01*
X118449500Y-64920943D01*
X118449500Y-65079057D01*
X118490030Y-65230315D01*
X118490423Y-65231783D01*
X118490426Y-65231790D01*
X118569475Y-65368709D01*
X118569479Y-65368714D01*
X118569480Y-65368716D01*
X118681284Y-65480520D01*
X118681286Y-65480521D01*
X118681290Y-65480524D01*
X118788667Y-65542517D01*
X118818216Y-65559577D01*
X118970943Y-65600500D01*
X118970945Y-65600500D01*
X119129055Y-65600500D01*
X119129057Y-65600500D01*
X119281784Y-65559577D01*
X119418716Y-65480520D01*
X119530520Y-65368716D01*
X119609577Y-65231784D01*
X119650500Y-65079057D01*
X119650500Y-64920943D01*
X119609577Y-64768216D01*
X119593287Y-64740000D01*
X119530524Y-64631290D01*
X119530518Y-64631282D01*
X119418717Y-64519481D01*
X119418709Y-64519475D01*
X119281790Y-64440426D01*
X119281786Y-64440424D01*
X119281784Y-64440423D01*
X119129057Y-64399500D01*
X118970943Y-64399500D01*
X118818216Y-64440423D01*
X118818209Y-64440426D01*
X118681290Y-64519475D01*
X118681282Y-64519481D01*
X118569481Y-64631282D01*
X118569475Y-64631290D01*
X118490426Y-64768209D01*
X118490423Y-64768216D01*
X118449500Y-64920943D01*
X117850500Y-64920943D01*
X117809577Y-64768216D01*
X117793287Y-64740000D01*
X117730524Y-64631290D01*
X117730518Y-64631282D01*
X117618717Y-64519481D01*
X117618709Y-64519475D01*
X117481790Y-64440426D01*
X117481786Y-64440424D01*
X117481784Y-64440423D01*
X117329057Y-64399500D01*
X117170943Y-64399500D01*
X117018216Y-64440423D01*
X117018209Y-64440426D01*
X116881290Y-64519475D01*
X116881282Y-64519481D01*
X116769481Y-64631282D01*
X116769475Y-64631290D01*
X116690426Y-64768209D01*
X116690423Y-64768216D01*
X116649500Y-64920943D01*
X109445499Y-64920943D01*
X109445499Y-64187128D01*
X109439091Y-64127517D01*
X109413475Y-64058838D01*
X109388797Y-63992671D01*
X109388793Y-63992664D01*
X109302547Y-63877455D01*
X109302544Y-63877452D01*
X109187335Y-63791206D01*
X109187328Y-63791202D01*
X109052482Y-63740908D01*
X109052483Y-63740908D01*
X108992883Y-63734501D01*
X108992881Y-63734500D01*
X108992873Y-63734500D01*
X108992864Y-63734500D01*
X107167129Y-63734500D01*
X107167123Y-63734501D01*
X107107516Y-63740908D01*
X106972671Y-63791202D01*
X106972664Y-63791206D01*
X106857455Y-63877452D01*
X106857452Y-63877455D01*
X106771206Y-63992664D01*
X106771202Y-63992671D01*
X106727952Y-64108633D01*
X106686081Y-64164567D01*
X106620617Y-64188984D01*
X106552344Y-64174133D01*
X106524089Y-64152981D01*
X106429565Y-64058457D01*
X106429563Y-64058455D01*
X106255678Y-63932120D01*
X106064170Y-63834541D01*
X106064167Y-63834540D01*
X105859757Y-63768124D01*
X105718229Y-63745708D01*
X105647467Y-63734500D01*
X105432533Y-63734500D01*
X105361770Y-63745708D01*
X105220243Y-63768124D01*
X105220240Y-63768124D01*
X105015832Y-63834540D01*
X105015829Y-63834541D01*
X104824321Y-63932120D01*
X104740981Y-63992671D01*
X104650437Y-64058455D01*
X104650435Y-64058457D01*
X104650434Y-64058457D01*
X104498457Y-64210434D01*
X104498457Y-64210435D01*
X104498455Y-64210437D01*
X104423589Y-64313480D01*
X104370009Y-64387227D01*
X104314679Y-64429892D01*
X104245065Y-64435871D01*
X104183270Y-64403265D01*
X104169373Y-64387227D01*
X104041161Y-64210759D01*
X103889240Y-64058838D01*
X103715416Y-63932547D01*
X103523975Y-63835003D01*
X103319635Y-63768610D01*
X103319636Y-63768610D01*
X103250000Y-63757581D01*
X103250000Y-64805439D01*
X103196853Y-64774755D01*
X103067143Y-64740000D01*
X102932857Y-64740000D01*
X102803147Y-64774755D01*
X102750000Y-64805439D01*
X102750000Y-63757581D01*
X102680364Y-63768610D01*
X102476024Y-63835003D01*
X102284583Y-63932547D01*
X102110759Y-64058838D01*
X101958838Y-64210759D01*
X101832547Y-64384583D01*
X101735003Y-64576024D01*
X101668611Y-64780357D01*
X101668611Y-64780360D01*
X101635000Y-64992572D01*
X74945500Y-64992572D01*
X74945500Y-64987700D01*
X74945499Y-64187129D01*
X74945498Y-64187123D01*
X74939091Y-64127516D01*
X74888797Y-63992671D01*
X74888793Y-63992664D01*
X74802547Y-63877455D01*
X74802544Y-63877452D01*
X74687335Y-63791206D01*
X74687328Y-63791202D01*
X74552482Y-63740908D01*
X74552483Y-63740908D01*
X74492883Y-63734501D01*
X74492881Y-63734500D01*
X74492873Y-63734500D01*
X74492864Y-63734500D01*
X72667129Y-63734500D01*
X72667123Y-63734501D01*
X72607516Y-63740908D01*
X72472671Y-63791202D01*
X72472664Y-63791206D01*
X72357455Y-63877452D01*
X72357452Y-63877455D01*
X72271206Y-63992664D01*
X72271202Y-63992671D01*
X72227952Y-64108633D01*
X72186081Y-64164567D01*
X72120617Y-64188984D01*
X72052344Y-64174133D01*
X72024089Y-64152981D01*
X71929565Y-64058457D01*
X71929563Y-64058455D01*
X71755678Y-63932120D01*
X71564170Y-63834541D01*
X71564167Y-63834540D01*
X71359757Y-63768124D01*
X71218229Y-63745708D01*
X71147467Y-63734500D01*
X70932533Y-63734500D01*
X70861770Y-63745708D01*
X70720243Y-63768124D01*
X70720240Y-63768124D01*
X70515832Y-63834540D01*
X70515829Y-63834541D01*
X70324321Y-63932120D01*
X70240981Y-63992671D01*
X70150437Y-64058455D01*
X70150435Y-64058457D01*
X70150434Y-64058457D01*
X69998457Y-64210434D01*
X69998457Y-64210435D01*
X69998455Y-64210437D01*
X69923589Y-64313480D01*
X69870009Y-64387227D01*
X69814679Y-64429892D01*
X69745065Y-64435871D01*
X69683270Y-64403265D01*
X69669373Y-64387227D01*
X69541161Y-64210759D01*
X69389240Y-64058838D01*
X69215416Y-63932547D01*
X69023975Y-63835003D01*
X68819635Y-63768610D01*
X68819636Y-63768610D01*
X68750000Y-63757581D01*
X68750000Y-64805439D01*
X68696853Y-64774755D01*
X68567143Y-64740000D01*
X68432857Y-64740000D01*
X68303147Y-64774755D01*
X68250000Y-64805439D01*
X68250000Y-63757581D01*
X68180364Y-63768610D01*
X67976024Y-63835003D01*
X67784583Y-63932547D01*
X67610759Y-64058838D01*
X67458838Y-64210759D01*
X67458838Y-64210760D01*
X67330626Y-64387227D01*
X67275296Y-64429892D01*
X67205682Y-64435871D01*
X67143887Y-64403265D01*
X67129990Y-64387226D01*
X67079079Y-64317153D01*
X67001545Y-64210437D01*
X66849563Y-64058455D01*
X66675678Y-63932120D01*
X66484170Y-63834541D01*
X66484167Y-63834540D01*
X66279757Y-63768124D01*
X66138229Y-63745708D01*
X66067467Y-63734500D01*
X65852533Y-63734500D01*
X65781770Y-63745708D01*
X65640243Y-63768124D01*
X65640240Y-63768124D01*
X65435832Y-63834540D01*
X65435829Y-63834541D01*
X65244321Y-63932120D01*
X65160981Y-63992671D01*
X65070437Y-64058455D01*
X65070435Y-64058457D01*
X65070434Y-64058457D01*
X64918457Y-64210434D01*
X64918457Y-64210435D01*
X64918455Y-64210437D01*
X64864198Y-64285114D01*
X64792120Y-64384321D01*
X64694541Y-64575829D01*
X64694540Y-64575832D01*
X64628124Y-64780240D01*
X64628124Y-64780243D01*
X64618359Y-64841898D01*
X64594500Y-64992533D01*
X41500000Y-64992533D01*
X41500000Y-52312135D01*
X49399500Y-52312135D01*
X49399500Y-54107870D01*
X49399501Y-54107876D01*
X49405908Y-54167483D01*
X49456202Y-54302328D01*
X49456206Y-54302335D01*
X49542452Y-54417544D01*
X49542455Y-54417547D01*
X49657664Y-54503793D01*
X49657671Y-54503797D01*
X49789082Y-54552810D01*
X49845016Y-54594681D01*
X49869433Y-54660145D01*
X49854582Y-54728418D01*
X49833431Y-54756673D01*
X49719889Y-54870215D01*
X49594951Y-55042179D01*
X49498444Y-55231585D01*
X49432753Y-55433760D01*
X49399500Y-55643713D01*
X49399500Y-55856286D01*
X49432753Y-56066239D01*
X49498444Y-56268414D01*
X49594951Y-56457820D01*
X49719890Y-56629786D01*
X49870213Y-56780109D01*
X50042182Y-56905050D01*
X50050946Y-56909516D01*
X50101742Y-56957491D01*
X50118536Y-57025312D01*
X50095998Y-57091447D01*
X50050946Y-57130484D01*
X50042182Y-57134949D01*
X49870213Y-57259890D01*
X49719890Y-57410213D01*
X49594951Y-57582179D01*
X49498444Y-57771585D01*
X49432753Y-57973760D01*
X49399500Y-58183713D01*
X49399500Y-58396286D01*
X49432753Y-58606239D01*
X49498444Y-58808414D01*
X49594951Y-58997820D01*
X49719890Y-59169786D01*
X49870213Y-59320109D01*
X50042182Y-59445050D01*
X50050946Y-59449516D01*
X50101742Y-59497491D01*
X50118536Y-59565312D01*
X50095998Y-59631447D01*
X50050946Y-59670484D01*
X50042182Y-59674949D01*
X49870213Y-59799890D01*
X49719890Y-59950213D01*
X49594951Y-60122179D01*
X49498444Y-60311585D01*
X49432753Y-60513760D01*
X49406606Y-60678846D01*
X49399500Y-60723713D01*
X49399500Y-60936287D01*
X49406294Y-60979185D01*
X49431702Y-61139606D01*
X49432754Y-61146243D01*
X49485766Y-61309397D01*
X49498444Y-61348414D01*
X49594951Y-61537820D01*
X49719890Y-61709786D01*
X49870213Y-61860109D01*
X50042179Y-61985048D01*
X50042181Y-61985049D01*
X50042184Y-61985051D01*
X50231588Y-62081557D01*
X50433757Y-62147246D01*
X50643713Y-62180500D01*
X50643714Y-62180500D01*
X50856286Y-62180500D01*
X50856287Y-62180500D01*
X51066243Y-62147246D01*
X51268412Y-62081557D01*
X51457816Y-61985051D01*
X51457825Y-61985044D01*
X51461644Y-61982704D01*
X51529088Y-61964452D01*
X51595692Y-61985560D01*
X51640312Y-62039327D01*
X51648780Y-62108682D01*
X51648063Y-62112615D01*
X51621700Y-62245153D01*
X51621700Y-62402846D01*
X51652461Y-62557489D01*
X51652464Y-62557501D01*
X51712802Y-62703172D01*
X51712809Y-62703185D01*
X51800410Y-62834288D01*
X51800413Y-62834292D01*
X51911907Y-62945786D01*
X51911911Y-62945789D01*
X52043014Y-63033390D01*
X52043027Y-63033397D01*
X52188698Y-63093735D01*
X52188703Y-63093737D01*
X52343353Y-63124499D01*
X52343356Y-63124500D01*
X52343358Y-63124500D01*
X52501044Y-63124500D01*
X52501045Y-63124499D01*
X52655697Y-63093737D01*
X52801379Y-63033394D01*
X52932489Y-62945789D01*
X53043989Y-62834289D01*
X53131594Y-62703179D01*
X53191937Y-62557497D01*
X53222700Y-62402842D01*
X53222700Y-62245158D01*
X53222700Y-62245155D01*
X53222699Y-62245153D01*
X53219321Y-62228172D01*
X53191937Y-62090503D01*
X53191935Y-62090498D01*
X53131597Y-61944827D01*
X53131590Y-61944814D01*
X53056849Y-61832957D01*
X53056848Y-61832955D01*
X53043992Y-61813715D01*
X53043986Y-61813707D01*
X53000432Y-61770153D01*
X57699500Y-61770153D01*
X57699500Y-61927846D01*
X57730261Y-62082489D01*
X57730264Y-62082501D01*
X57790602Y-62228172D01*
X57790609Y-62228185D01*
X57878210Y-62359288D01*
X57878213Y-62359292D01*
X57989707Y-62470786D01*
X57989711Y-62470789D01*
X58120814Y-62558390D01*
X58120827Y-62558397D01*
X58266498Y-62618735D01*
X58266503Y-62618737D01*
X58421153Y-62649499D01*
X58421156Y-62649500D01*
X58421158Y-62649500D01*
X58578844Y-62649500D01*
X58578845Y-62649499D01*
X58733497Y-62618737D01*
X58879179Y-62558394D01*
X59010289Y-62470789D01*
X59121789Y-62359289D01*
X59209394Y-62228179D01*
X59215471Y-62213509D01*
X59253209Y-62122400D01*
X59269737Y-62082497D01*
X59300500Y-61927842D01*
X59300500Y-61802153D01*
X81699500Y-61802153D01*
X81699500Y-61959846D01*
X81730261Y-62114489D01*
X81730264Y-62114501D01*
X81790602Y-62260172D01*
X81790609Y-62260185D01*
X81878210Y-62391288D01*
X81878213Y-62391292D01*
X81989707Y-62502786D01*
X81989711Y-62502789D01*
X82120814Y-62590390D01*
X82120827Y-62590397D01*
X82266498Y-62650735D01*
X82266503Y-62650737D01*
X82420726Y-62681414D01*
X82421153Y-62681499D01*
X82421156Y-62681500D01*
X82421158Y-62681500D01*
X82578844Y-62681500D01*
X82578845Y-62681499D01*
X82733497Y-62650737D01*
X82879179Y-62590394D01*
X83010289Y-62502789D01*
X83121789Y-62391289D01*
X83209394Y-62260179D01*
X83269737Y-62114497D01*
X83300500Y-61959842D01*
X83300500Y-61802158D01*
X83300500Y-61802155D01*
X83300499Y-61802153D01*
X96099500Y-61802153D01*
X96099500Y-61959846D01*
X96130261Y-62114489D01*
X96130264Y-62114501D01*
X96190602Y-62260172D01*
X96190609Y-62260185D01*
X96278210Y-62391288D01*
X96278213Y-62391292D01*
X96389707Y-62502786D01*
X96389711Y-62502789D01*
X96520814Y-62590390D01*
X96520827Y-62590397D01*
X96666498Y-62650735D01*
X96666503Y-62650737D01*
X96820726Y-62681414D01*
X96821153Y-62681499D01*
X96821156Y-62681500D01*
X96821158Y-62681500D01*
X96978844Y-62681500D01*
X96979717Y-62681414D01*
X96980171Y-62681500D01*
X96984934Y-62681500D01*
X96984934Y-62682403D01*
X97048364Y-62694430D01*
X97099076Y-62742493D01*
X97115753Y-62810343D01*
X97113494Y-62829006D01*
X97110500Y-62844058D01*
X97110500Y-63001746D01*
X97141261Y-63156389D01*
X97141264Y-63156401D01*
X97201602Y-63302072D01*
X97201609Y-63302085D01*
X97289210Y-63433188D01*
X97289213Y-63433192D01*
X97400707Y-63544686D01*
X97400711Y-63544689D01*
X97531814Y-63632290D01*
X97531827Y-63632297D01*
X97677498Y-63692635D01*
X97677503Y-63692637D01*
X97832153Y-63723399D01*
X97832156Y-63723400D01*
X97832158Y-63723400D01*
X97989844Y-63723400D01*
X97989845Y-63723399D01*
X98144497Y-63692637D01*
X98290179Y-63632294D01*
X98421289Y-63544689D01*
X98532789Y-63433189D01*
X98620394Y-63302079D01*
X98680737Y-63156397D01*
X98711500Y-63001742D01*
X98711500Y-62844058D01*
X98711500Y-62844055D01*
X98711499Y-62844053D01*
X98683477Y-62703179D01*
X98680737Y-62689403D01*
X98677838Y-62682403D01*
X98620397Y-62543727D01*
X98620390Y-62543714D01*
X98532789Y-62412611D01*
X98532786Y-62412607D01*
X98421292Y-62301113D01*
X98421288Y-62301110D01*
X98290185Y-62213509D01*
X98290172Y-62213502D01*
X98144501Y-62153164D01*
X98144489Y-62153161D01*
X97989845Y-62122400D01*
X97989842Y-62122400D01*
X97832158Y-62122400D01*
X97832147Y-62122400D01*
X97831263Y-62122487D01*
X97830805Y-62122400D01*
X97826066Y-62122400D01*
X97826066Y-62121500D01*
X97762618Y-62109460D01*
X97711913Y-62061390D01*
X97695247Y-61993537D01*
X97697506Y-61974892D01*
X97700500Y-61959842D01*
X97700500Y-61802158D01*
X97700500Y-61802155D01*
X97700499Y-61802153D01*
X97682126Y-61709786D01*
X97669737Y-61647503D01*
X97626114Y-61542188D01*
X97618646Y-61472722D01*
X97649921Y-61410242D01*
X97710010Y-61374590D01*
X97716468Y-61373124D01*
X97733497Y-61369737D01*
X97879179Y-61309394D01*
X98010289Y-61221789D01*
X98121789Y-61110289D01*
X98209394Y-60979179D01*
X98269737Y-60833497D01*
X98300500Y-60678842D01*
X98300500Y-60521158D01*
X98300500Y-60521155D01*
X98300499Y-60521153D01*
X98298338Y-60510288D01*
X98269737Y-60366503D01*
X98246991Y-60311588D01*
X98209397Y-60220827D01*
X98209390Y-60220814D01*
X98121789Y-60089711D01*
X98121786Y-60089707D01*
X98010292Y-59978213D01*
X98010288Y-59978210D01*
X97924897Y-59921153D01*
X101699500Y-59921153D01*
X101699500Y-60078846D01*
X101730261Y-60233489D01*
X101730264Y-60233501D01*
X101790602Y-60379172D01*
X101790609Y-60379185D01*
X101878210Y-60510288D01*
X101878213Y-60510292D01*
X101989707Y-60621786D01*
X101989711Y-60621789D01*
X102120814Y-60709390D01*
X102120827Y-60709397D01*
X102266498Y-60769735D01*
X102266503Y-60769737D01*
X102421153Y-60800499D01*
X102421156Y-60800500D01*
X102421158Y-60800500D01*
X102578844Y-60800500D01*
X102578845Y-60800499D01*
X102733497Y-60769737D01*
X102879179Y-60709394D01*
X103010289Y-60621789D01*
X103121789Y-60510289D01*
X103209394Y-60379179D01*
X103269737Y-60233497D01*
X103300500Y-60078842D01*
X103300500Y-59921158D01*
X103300500Y-59921155D01*
X103300499Y-59921153D01*
X103276378Y-59799890D01*
X103269737Y-59766503D01*
X103269735Y-59766498D01*
X103209397Y-59620827D01*
X103209390Y-59620814D01*
X103121789Y-59489711D01*
X103121786Y-59489707D01*
X103010292Y-59378213D01*
X103010288Y-59378210D01*
X102879185Y-59290609D01*
X102879172Y-59290602D01*
X102733501Y-59230264D01*
X102733489Y-59230261D01*
X102578845Y-59199500D01*
X102578842Y-59199500D01*
X102421158Y-59199500D01*
X102421155Y-59199500D01*
X102266510Y-59230261D01*
X102266498Y-59230264D01*
X102120827Y-59290602D01*
X102120814Y-59290609D01*
X101989711Y-59378210D01*
X101989707Y-59378213D01*
X101878213Y-59489707D01*
X101878210Y-59489711D01*
X101790609Y-59620814D01*
X101790602Y-59620827D01*
X101730264Y-59766498D01*
X101730261Y-59766510D01*
X101699500Y-59921153D01*
X97924897Y-59921153D01*
X97879185Y-59890609D01*
X97879172Y-59890602D01*
X97733501Y-59830264D01*
X97733489Y-59830261D01*
X97578845Y-59799500D01*
X97578842Y-59799500D01*
X97421158Y-59799500D01*
X97421155Y-59799500D01*
X97266510Y-59830261D01*
X97266498Y-59830264D01*
X97120827Y-59890602D01*
X97120814Y-59890609D01*
X96989711Y-59978210D01*
X96989707Y-59978213D01*
X96878213Y-60089707D01*
X96878210Y-60089711D01*
X96790609Y-60220814D01*
X96790602Y-60220827D01*
X96730264Y-60366498D01*
X96730261Y-60366510D01*
X96699500Y-60521153D01*
X96699500Y-60678846D01*
X96730261Y-60833489D01*
X96730264Y-60833501D01*
X96773884Y-60938809D01*
X96781353Y-61008278D01*
X96750078Y-61070757D01*
X96689989Y-61106409D01*
X96683518Y-61107878D01*
X96666504Y-61111262D01*
X96666498Y-61111264D01*
X96520827Y-61171602D01*
X96520814Y-61171609D01*
X96389711Y-61259210D01*
X96389707Y-61259213D01*
X96278213Y-61370707D01*
X96278210Y-61370711D01*
X96190609Y-61501814D01*
X96190602Y-61501827D01*
X96130264Y-61647498D01*
X96130261Y-61647510D01*
X96099500Y-61802153D01*
X83300499Y-61802153D01*
X83282126Y-61709786D01*
X83269737Y-61647503D01*
X83241346Y-61578960D01*
X83209397Y-61501827D01*
X83209390Y-61501814D01*
X83121789Y-61370711D01*
X83121786Y-61370707D01*
X83010292Y-61259213D01*
X83010288Y-61259210D01*
X82879185Y-61171609D01*
X82879172Y-61171602D01*
X82733501Y-61111264D01*
X82733489Y-61111261D01*
X82578845Y-61080500D01*
X82578842Y-61080500D01*
X82421158Y-61080500D01*
X82421155Y-61080500D01*
X82266510Y-61111261D01*
X82266498Y-61111264D01*
X82120827Y-61171602D01*
X82120814Y-61171609D01*
X81989711Y-61259210D01*
X81989707Y-61259213D01*
X81878213Y-61370707D01*
X81878210Y-61370711D01*
X81790609Y-61501814D01*
X81790602Y-61501827D01*
X81730264Y-61647498D01*
X81730261Y-61647510D01*
X81699500Y-61802153D01*
X59300500Y-61802153D01*
X59300500Y-61770158D01*
X59300500Y-61770155D01*
X59300499Y-61770153D01*
X59286984Y-61702210D01*
X59269737Y-61615503D01*
X59269367Y-61614609D01*
X59209397Y-61469827D01*
X59209390Y-61469814D01*
X59121789Y-61338711D01*
X59121786Y-61338707D01*
X59010292Y-61227213D01*
X59010288Y-61227210D01*
X58879185Y-61139609D01*
X58879172Y-61139602D01*
X58733501Y-61079264D01*
X58733489Y-61079261D01*
X58578845Y-61048500D01*
X58578842Y-61048500D01*
X58421158Y-61048500D01*
X58421155Y-61048500D01*
X58266510Y-61079261D01*
X58266498Y-61079264D01*
X58120827Y-61139602D01*
X58120814Y-61139609D01*
X57989711Y-61227210D01*
X57989707Y-61227213D01*
X57878213Y-61338707D01*
X57878210Y-61338711D01*
X57790609Y-61469814D01*
X57790602Y-61469827D01*
X57730264Y-61615498D01*
X57730261Y-61615510D01*
X57699500Y-61770153D01*
X53000432Y-61770153D01*
X52932492Y-61702213D01*
X52932488Y-61702210D01*
X52801385Y-61614609D01*
X52801372Y-61614602D01*
X52655701Y-61554264D01*
X52655689Y-61554261D01*
X52501045Y-61523500D01*
X52501042Y-61523500D01*
X52343358Y-61523500D01*
X52343355Y-61523500D01*
X52188710Y-61554261D01*
X52188703Y-61554263D01*
X52129078Y-61578960D01*
X52059609Y-61586428D01*
X51997130Y-61555152D01*
X51961478Y-61495063D01*
X51963973Y-61425238D01*
X51971143Y-61408102D01*
X51975017Y-61400500D01*
X52001557Y-61348412D01*
X52067246Y-61146243D01*
X52100500Y-60936287D01*
X52100500Y-60723713D01*
X52067246Y-60513757D01*
X52001557Y-60311588D01*
X51905051Y-60122184D01*
X51905049Y-60122181D01*
X51905048Y-60122179D01*
X51780109Y-59950213D01*
X51629786Y-59799890D01*
X51457820Y-59674951D01*
X51457115Y-59674591D01*
X51449054Y-59670485D01*
X51398259Y-59622512D01*
X51381463Y-59554692D01*
X51403999Y-59488556D01*
X51449054Y-59449515D01*
X51457816Y-59445051D01*
X51479789Y-59429086D01*
X51629786Y-59320109D01*
X51629788Y-59320106D01*
X51629792Y-59320104D01*
X51780104Y-59169792D01*
X51780106Y-59169788D01*
X51780109Y-59169786D01*
X51905048Y-58997820D01*
X51905047Y-58997820D01*
X51905051Y-58997816D01*
X52001557Y-58808412D01*
X52067246Y-58606243D01*
X52100500Y-58396287D01*
X52100500Y-58183713D01*
X52067246Y-57973757D01*
X52001557Y-57771588D01*
X51905051Y-57582184D01*
X51897868Y-57572298D01*
X51836588Y-57487951D01*
X51788057Y-57421153D01*
X69199500Y-57421153D01*
X69199500Y-57578846D01*
X69230261Y-57733489D01*
X69230264Y-57733501D01*
X69290602Y-57879172D01*
X69290609Y-57879185D01*
X69378210Y-58010288D01*
X69378213Y-58010292D01*
X69489707Y-58121786D01*
X69489711Y-58121789D01*
X69620814Y-58209390D01*
X69620827Y-58209397D01*
X69766498Y-58269735D01*
X69766503Y-58269737D01*
X69921153Y-58300499D01*
X69921156Y-58300500D01*
X69921158Y-58300500D01*
X70078844Y-58300500D01*
X70078845Y-58300499D01*
X70233497Y-58269737D01*
X70379179Y-58209394D01*
X70510289Y-58121789D01*
X70621789Y-58010289D01*
X70709394Y-57879179D01*
X70769737Y-57733497D01*
X70800500Y-57578842D01*
X70800500Y-57421158D01*
X70800500Y-57421155D01*
X70800499Y-57421153D01*
X96699500Y-57421153D01*
X96699500Y-57578846D01*
X96730261Y-57733489D01*
X96730264Y-57733501D01*
X96790602Y-57879172D01*
X96790609Y-57879185D01*
X96878210Y-58010288D01*
X96878213Y-58010292D01*
X96989707Y-58121786D01*
X96989711Y-58121789D01*
X97120814Y-58209390D01*
X97120827Y-58209397D01*
X97266498Y-58269735D01*
X97266503Y-58269737D01*
X97421153Y-58300499D01*
X97421156Y-58300500D01*
X97421158Y-58300500D01*
X97578844Y-58300500D01*
X97578845Y-58300499D01*
X97733497Y-58269737D01*
X97879179Y-58209394D01*
X98010289Y-58121789D01*
X98121789Y-58010289D01*
X98209394Y-57879179D01*
X98269737Y-57733497D01*
X98300500Y-57578842D01*
X98300500Y-57421158D01*
X98300500Y-57421155D01*
X98300499Y-57421153D01*
X116699500Y-57421153D01*
X116699500Y-57578846D01*
X116730261Y-57733489D01*
X116730264Y-57733501D01*
X116790602Y-57879172D01*
X116790609Y-57879185D01*
X116878210Y-58010288D01*
X116878213Y-58010292D01*
X116989707Y-58121786D01*
X116989711Y-58121789D01*
X117120814Y-58209390D01*
X117120827Y-58209397D01*
X117266498Y-58269735D01*
X117266503Y-58269737D01*
X117421153Y-58300499D01*
X117421156Y-58300500D01*
X117421158Y-58300500D01*
X117578844Y-58300500D01*
X117578845Y-58300499D01*
X117733497Y-58269737D01*
X117879179Y-58209394D01*
X118010289Y-58121789D01*
X118121789Y-58010289D01*
X118209394Y-57879179D01*
X118269737Y-57733497D01*
X118300500Y-57578842D01*
X118300500Y-57421158D01*
X118300500Y-57421155D01*
X118300499Y-57421153D01*
X118269738Y-57266510D01*
X118269737Y-57266503D01*
X118215246Y-57134949D01*
X118209397Y-57120827D01*
X118209390Y-57120814D01*
X118121789Y-56989711D01*
X118121786Y-56989707D01*
X118010292Y-56878213D01*
X118010288Y-56878210D01*
X117879185Y-56790609D01*
X117879172Y-56790602D01*
X117733501Y-56730264D01*
X117733489Y-56730261D01*
X117578845Y-56699500D01*
X117578842Y-56699500D01*
X117421158Y-56699500D01*
X117421155Y-56699500D01*
X117266510Y-56730261D01*
X117266498Y-56730264D01*
X117120827Y-56790602D01*
X117120814Y-56790609D01*
X116989711Y-56878210D01*
X116989707Y-56878213D01*
X116878213Y-56989707D01*
X116878210Y-56989711D01*
X116790609Y-57120814D01*
X116790602Y-57120827D01*
X116730264Y-57266498D01*
X116730261Y-57266510D01*
X116699500Y-57421153D01*
X98300499Y-57421153D01*
X98269738Y-57266510D01*
X98269737Y-57266503D01*
X98215246Y-57134949D01*
X98209397Y-57120827D01*
X98209390Y-57120814D01*
X98121789Y-56989711D01*
X98121786Y-56989707D01*
X98010292Y-56878213D01*
X98010288Y-56878210D01*
X97879185Y-56790609D01*
X97879172Y-56790602D01*
X97733501Y-56730264D01*
X97733489Y-56730261D01*
X97578845Y-56699500D01*
X97578842Y-56699500D01*
X97421158Y-56699500D01*
X97421155Y-56699500D01*
X97266510Y-56730261D01*
X97266498Y-56730264D01*
X97120827Y-56790602D01*
X97120814Y-56790609D01*
X96989711Y-56878210D01*
X96989707Y-56878213D01*
X96878213Y-56989707D01*
X96878210Y-56989711D01*
X96790609Y-57120814D01*
X96790602Y-57120827D01*
X96730264Y-57266498D01*
X96730261Y-57266510D01*
X96699500Y-57421153D01*
X70800499Y-57421153D01*
X70769738Y-57266510D01*
X70769737Y-57266503D01*
X70715246Y-57134949D01*
X70709397Y-57120827D01*
X70709390Y-57120814D01*
X70621789Y-56989711D01*
X70621786Y-56989707D01*
X70510292Y-56878213D01*
X70510288Y-56878210D01*
X70379185Y-56790609D01*
X70379172Y-56790602D01*
X70233501Y-56730264D01*
X70233489Y-56730261D01*
X70078845Y-56699500D01*
X70078842Y-56699500D01*
X69921158Y-56699500D01*
X69921155Y-56699500D01*
X69766510Y-56730261D01*
X69766498Y-56730264D01*
X69620827Y-56790602D01*
X69620814Y-56790609D01*
X69489711Y-56878210D01*
X69489707Y-56878213D01*
X69378213Y-56989707D01*
X69378210Y-56989711D01*
X69290609Y-57120814D01*
X69290602Y-57120827D01*
X69230264Y-57266498D01*
X69230261Y-57266510D01*
X69199500Y-57421153D01*
X51788057Y-57421153D01*
X51780109Y-57410213D01*
X51629786Y-57259890D01*
X51457820Y-57134951D01*
X51457115Y-57134591D01*
X51449054Y-57130485D01*
X51398259Y-57082512D01*
X51381463Y-57014692D01*
X51403999Y-56948556D01*
X51449054Y-56909515D01*
X51457816Y-56905051D01*
X51494760Y-56878210D01*
X51629786Y-56780109D01*
X51629788Y-56780106D01*
X51629792Y-56780104D01*
X51780104Y-56629792D01*
X51780106Y-56629788D01*
X51780109Y-56629786D01*
X51905048Y-56457820D01*
X51905047Y-56457820D01*
X51905051Y-56457816D01*
X52001557Y-56268412D01*
X52067246Y-56066243D01*
X52100500Y-55856287D01*
X52100500Y-55643713D01*
X52067246Y-55433757D01*
X52001557Y-55231588D01*
X51905051Y-55042184D01*
X51900830Y-55036374D01*
X51866376Y-54988951D01*
X51817845Y-54922153D01*
X87019200Y-54922153D01*
X87019200Y-55079846D01*
X87049961Y-55234489D01*
X87049964Y-55234501D01*
X87110302Y-55380172D01*
X87110309Y-55380185D01*
X87197910Y-55511288D01*
X87197913Y-55511292D01*
X87309407Y-55622786D01*
X87309411Y-55622789D01*
X87440514Y-55710390D01*
X87440527Y-55710397D01*
X87583784Y-55769735D01*
X87586203Y-55770737D01*
X87735826Y-55800499D01*
X87740853Y-55801499D01*
X87740856Y-55801500D01*
X87740858Y-55801500D01*
X87898544Y-55801500D01*
X87898545Y-55801499D01*
X88053197Y-55770737D01*
X88198879Y-55710394D01*
X88329989Y-55622789D01*
X88441489Y-55511289D01*
X88529094Y-55380179D01*
X88589437Y-55234497D01*
X88620200Y-55079842D01*
X88620200Y-54922158D01*
X88620200Y-54922157D01*
X88620200Y-54922155D01*
X88620199Y-54922153D01*
X91699500Y-54922153D01*
X91699500Y-55079846D01*
X91730261Y-55234489D01*
X91730264Y-55234501D01*
X91790602Y-55380172D01*
X91790609Y-55380185D01*
X91878210Y-55511288D01*
X91878213Y-55511292D01*
X91989707Y-55622786D01*
X91989711Y-55622789D01*
X92120814Y-55710390D01*
X92120827Y-55710397D01*
X92264084Y-55769735D01*
X92266503Y-55770737D01*
X92416126Y-55800499D01*
X92421153Y-55801499D01*
X92421156Y-55801500D01*
X92421158Y-55801500D01*
X92578844Y-55801500D01*
X92578845Y-55801499D01*
X92733497Y-55770737D01*
X92879179Y-55710394D01*
X93010289Y-55622789D01*
X93121789Y-55511289D01*
X93209394Y-55380179D01*
X93269737Y-55234497D01*
X93300500Y-55079842D01*
X93300500Y-54922158D01*
X93300500Y-54922157D01*
X93300499Y-54922151D01*
X93300300Y-54921153D01*
X104199500Y-54921153D01*
X104199500Y-55078846D01*
X104230261Y-55233489D01*
X104230264Y-55233501D01*
X104290602Y-55379172D01*
X104290609Y-55379185D01*
X104378210Y-55510288D01*
X104378213Y-55510292D01*
X104489707Y-55621786D01*
X104489711Y-55621789D01*
X104620814Y-55709390D01*
X104620827Y-55709397D01*
X104766498Y-55769735D01*
X104766503Y-55769737D01*
X104921153Y-55800499D01*
X104921156Y-55800500D01*
X104921158Y-55800500D01*
X105078844Y-55800500D01*
X105078845Y-55800499D01*
X105233497Y-55769737D01*
X105376765Y-55710394D01*
X105379172Y-55709397D01*
X105379172Y-55709396D01*
X105379179Y-55709394D01*
X105510289Y-55621789D01*
X105621789Y-55510289D01*
X105708726Y-55380179D01*
X105709390Y-55379185D01*
X105709390Y-55379184D01*
X105709394Y-55379179D01*
X105769737Y-55233497D01*
X105800500Y-55078842D01*
X105800500Y-54921158D01*
X105800500Y-54921155D01*
X105800499Y-54921153D01*
X105769738Y-54766510D01*
X105769737Y-54766503D01*
X105740265Y-54695350D01*
X105709397Y-54620827D01*
X105709390Y-54620814D01*
X105621789Y-54489711D01*
X105621786Y-54489707D01*
X105510292Y-54378213D01*
X105510288Y-54378210D01*
X105379185Y-54290609D01*
X105379172Y-54290602D01*
X105233501Y-54230264D01*
X105233489Y-54230261D01*
X105078845Y-54199500D01*
X105078842Y-54199500D01*
X104921158Y-54199500D01*
X104921155Y-54199500D01*
X104766510Y-54230261D01*
X104766498Y-54230264D01*
X104620827Y-54290602D01*
X104620814Y-54290609D01*
X104489711Y-54378210D01*
X104489707Y-54378213D01*
X104378213Y-54489707D01*
X104378210Y-54489711D01*
X104290609Y-54620814D01*
X104290602Y-54620827D01*
X104230264Y-54766498D01*
X104230261Y-54766510D01*
X104199500Y-54921153D01*
X93300300Y-54921153D01*
X93269738Y-54767510D01*
X93269737Y-54767503D01*
X93250018Y-54719896D01*
X93209397Y-54621827D01*
X93209390Y-54621814D01*
X93121789Y-54490711D01*
X93121786Y-54490707D01*
X93010292Y-54379213D01*
X93010288Y-54379210D01*
X92879185Y-54291609D01*
X92879172Y-54291602D01*
X92733501Y-54231264D01*
X92733489Y-54231261D01*
X92578845Y-54200500D01*
X92578842Y-54200500D01*
X92421158Y-54200500D01*
X92421155Y-54200500D01*
X92266510Y-54231261D01*
X92266498Y-54231264D01*
X92120827Y-54291602D01*
X92120814Y-54291609D01*
X91989711Y-54379210D01*
X91989707Y-54379213D01*
X91878213Y-54490707D01*
X91878210Y-54490711D01*
X91790609Y-54621814D01*
X91790602Y-54621827D01*
X91730264Y-54767498D01*
X91730261Y-54767510D01*
X91699500Y-54922153D01*
X88620199Y-54922153D01*
X88589438Y-54767510D01*
X88589437Y-54767503D01*
X88569718Y-54719896D01*
X88529097Y-54621827D01*
X88529090Y-54621814D01*
X88441489Y-54490711D01*
X88441486Y-54490707D01*
X88329992Y-54379213D01*
X88329988Y-54379210D01*
X88198885Y-54291609D01*
X88198872Y-54291602D01*
X88053201Y-54231264D01*
X88053189Y-54231261D01*
X87898545Y-54200500D01*
X87898542Y-54200500D01*
X87740858Y-54200500D01*
X87740855Y-54200500D01*
X87586210Y-54231261D01*
X87586198Y-54231264D01*
X87440527Y-54291602D01*
X87440514Y-54291609D01*
X87309411Y-54379210D01*
X87309407Y-54379213D01*
X87197913Y-54490707D01*
X87197910Y-54490711D01*
X87110309Y-54621814D01*
X87110302Y-54621827D01*
X87049964Y-54767498D01*
X87049961Y-54767510D01*
X87019200Y-54922153D01*
X51817845Y-54922153D01*
X51780109Y-54870213D01*
X51666569Y-54756673D01*
X51633084Y-54695350D01*
X51638068Y-54625658D01*
X51679940Y-54569725D01*
X51710915Y-54552810D01*
X51842331Y-54503796D01*
X51957546Y-54417546D01*
X52043796Y-54302331D01*
X52094091Y-54167483D01*
X52100500Y-54107873D01*
X52100499Y-52421153D01*
X59199500Y-52421153D01*
X59199500Y-52578846D01*
X59230261Y-52733489D01*
X59230264Y-52733501D01*
X59290602Y-52879172D01*
X59290609Y-52879185D01*
X59378210Y-53010288D01*
X59378213Y-53010292D01*
X59489707Y-53121786D01*
X59489711Y-53121789D01*
X59620814Y-53209390D01*
X59620827Y-53209397D01*
X59728271Y-53253901D01*
X59766503Y-53269737D01*
X59921153Y-53300499D01*
X59921156Y-53300500D01*
X59921158Y-53300500D01*
X60078844Y-53300500D01*
X60078845Y-53300499D01*
X60233497Y-53269737D01*
X60379179Y-53209394D01*
X60510289Y-53121789D01*
X60621789Y-53010289D01*
X60667717Y-52941553D01*
X95374300Y-52941553D01*
X95374300Y-53099246D01*
X95405061Y-53253889D01*
X95405064Y-53253901D01*
X95465402Y-53399572D01*
X95465409Y-53399585D01*
X95553010Y-53530688D01*
X95553013Y-53530692D01*
X95664507Y-53642186D01*
X95664511Y-53642189D01*
X95795614Y-53729790D01*
X95795627Y-53729797D01*
X95941298Y-53790135D01*
X95941303Y-53790137D01*
X96095953Y-53820899D01*
X96095956Y-53820900D01*
X96095958Y-53820900D01*
X96253644Y-53820900D01*
X96253645Y-53820899D01*
X96408297Y-53790137D01*
X96553979Y-53729794D01*
X96685089Y-53642189D01*
X96796589Y-53530689D01*
X96884194Y-53399579D01*
X96893571Y-53376942D01*
X96900765Y-53359573D01*
X96944537Y-53253897D01*
X96951428Y-53219253D01*
X99660200Y-53219253D01*
X99660200Y-53376946D01*
X99690961Y-53531589D01*
X99690964Y-53531601D01*
X99751302Y-53677272D01*
X99751309Y-53677285D01*
X99838910Y-53808388D01*
X99838913Y-53808392D01*
X99950407Y-53919886D01*
X99950411Y-53919889D01*
X100081514Y-54007490D01*
X100081527Y-54007497D01*
X100227198Y-54067835D01*
X100227203Y-54067837D01*
X100381853Y-54098599D01*
X100381856Y-54098600D01*
X100381858Y-54098600D01*
X100539544Y-54098600D01*
X100539545Y-54098599D01*
X100694197Y-54067837D01*
X100839879Y-54007494D01*
X100970989Y-53919889D01*
X101082489Y-53808389D01*
X101170094Y-53677279D01*
X101230437Y-53531597D01*
X101261200Y-53376942D01*
X101261200Y-53219258D01*
X101261200Y-53219255D01*
X101261199Y-53219253D01*
X101230437Y-53064603D01*
X101207939Y-53010288D01*
X101170097Y-52918927D01*
X101170090Y-52918914D01*
X101082489Y-52787811D01*
X101082486Y-52787807D01*
X100970992Y-52676313D01*
X100970988Y-52676310D01*
X100839885Y-52588709D01*
X100839872Y-52588702D01*
X100697249Y-52529627D01*
X100694197Y-52528363D01*
X100694189Y-52528361D01*
X100539545Y-52497600D01*
X100539542Y-52497600D01*
X100381858Y-52497600D01*
X100381855Y-52497600D01*
X100227210Y-52528361D01*
X100227198Y-52528364D01*
X100081527Y-52588702D01*
X100081514Y-52588709D01*
X99950411Y-52676310D01*
X99950407Y-52676313D01*
X99838913Y-52787807D01*
X99838910Y-52787811D01*
X99751309Y-52918914D01*
X99751302Y-52918927D01*
X99690964Y-53064598D01*
X99690961Y-53064610D01*
X99660200Y-53219253D01*
X96951428Y-53219253D01*
X96960278Y-53174761D01*
X96975300Y-53099244D01*
X96975300Y-52941555D01*
X96975299Y-52941553D01*
X96962893Y-52879185D01*
X96944537Y-52786903D01*
X96944535Y-52786898D01*
X96884197Y-52641227D01*
X96884190Y-52641214D01*
X96796589Y-52510111D01*
X96796586Y-52510107D01*
X96707632Y-52421153D01*
X111699500Y-52421153D01*
X111699500Y-52578846D01*
X111730261Y-52733489D01*
X111730264Y-52733501D01*
X111790602Y-52879172D01*
X111790609Y-52879185D01*
X111878210Y-53010288D01*
X111878213Y-53010292D01*
X111989707Y-53121786D01*
X111989711Y-53121789D01*
X112120814Y-53209390D01*
X112120827Y-53209397D01*
X112228271Y-53253901D01*
X112266503Y-53269737D01*
X112421153Y-53300499D01*
X112421156Y-53300500D01*
X112421158Y-53300500D01*
X112578844Y-53300500D01*
X112578845Y-53300499D01*
X112733497Y-53269737D01*
X112879179Y-53209394D01*
X113010289Y-53121789D01*
X113121789Y-53010289D01*
X113209394Y-52879179D01*
X113269737Y-52733497D01*
X113272234Y-52720943D01*
X116779500Y-52720943D01*
X116779500Y-52879057D01*
X116814665Y-53010292D01*
X116820423Y-53031783D01*
X116820426Y-53031790D01*
X116899475Y-53168709D01*
X116899479Y-53168714D01*
X116899480Y-53168716D01*
X117011284Y-53280520D01*
X117011286Y-53280521D01*
X117011290Y-53280524D01*
X117148209Y-53359573D01*
X117148216Y-53359577D01*
X117300943Y-53400500D01*
X117300945Y-53400500D01*
X117459055Y-53400500D01*
X117459057Y-53400500D01*
X117611784Y-53359577D01*
X117748716Y-53280520D01*
X117860520Y-53168716D01*
X117939577Y-53031784D01*
X117980500Y-52879057D01*
X117980500Y-52720943D01*
X118579500Y-52720943D01*
X118579500Y-52879057D01*
X118614665Y-53010292D01*
X118620423Y-53031783D01*
X118620426Y-53031790D01*
X118699475Y-53168709D01*
X118699479Y-53168714D01*
X118699480Y-53168716D01*
X118811284Y-53280520D01*
X118811286Y-53280521D01*
X118811290Y-53280524D01*
X118948209Y-53359573D01*
X118948216Y-53359577D01*
X119100943Y-53400500D01*
X119100945Y-53400500D01*
X119259055Y-53400500D01*
X119259057Y-53400500D01*
X119411784Y-53359577D01*
X119548716Y-53280520D01*
X119660520Y-53168716D01*
X119739577Y-53031784D01*
X119780500Y-52879057D01*
X119780500Y-52720943D01*
X119739577Y-52568216D01*
X119716567Y-52528361D01*
X119660524Y-52431290D01*
X119660518Y-52431282D01*
X119548717Y-52319481D01*
X119548709Y-52319475D01*
X119411790Y-52240426D01*
X119411786Y-52240424D01*
X119411784Y-52240423D01*
X119259057Y-52199500D01*
X119100943Y-52199500D01*
X118948216Y-52240423D01*
X118948209Y-52240426D01*
X118811290Y-52319475D01*
X118811282Y-52319481D01*
X118699481Y-52431282D01*
X118699475Y-52431290D01*
X118620426Y-52568209D01*
X118620423Y-52568216D01*
X118579500Y-52720943D01*
X117980500Y-52720943D01*
X117939577Y-52568216D01*
X117916567Y-52528361D01*
X117860524Y-52431290D01*
X117860518Y-52431282D01*
X117748717Y-52319481D01*
X117748709Y-52319475D01*
X117611790Y-52240426D01*
X117611786Y-52240424D01*
X117611784Y-52240423D01*
X117459057Y-52199500D01*
X117300943Y-52199500D01*
X117148216Y-52240423D01*
X117148209Y-52240426D01*
X117011290Y-52319475D01*
X117011282Y-52319481D01*
X116899481Y-52431282D01*
X116899475Y-52431290D01*
X116820426Y-52568209D01*
X116820423Y-52568216D01*
X116779500Y-52720943D01*
X113272234Y-52720943D01*
X113288092Y-52641221D01*
X113300500Y-52578844D01*
X113300500Y-52421155D01*
X113300499Y-52421153D01*
X113278814Y-52312135D01*
X113269737Y-52266503D01*
X113263944Y-52252517D01*
X113209397Y-52120827D01*
X113209390Y-52120814D01*
X113121789Y-51989711D01*
X113121786Y-51989707D01*
X113010292Y-51878213D01*
X113010288Y-51878210D01*
X112879185Y-51790609D01*
X112879172Y-51790602D01*
X112733501Y-51730264D01*
X112733489Y-51730261D01*
X112578845Y-51699500D01*
X112578842Y-51699500D01*
X112421158Y-51699500D01*
X112421155Y-51699500D01*
X112266510Y-51730261D01*
X112266498Y-51730264D01*
X112120827Y-51790602D01*
X112120814Y-51790609D01*
X111989711Y-51878210D01*
X111989707Y-51878213D01*
X111878213Y-51989707D01*
X111878210Y-51989711D01*
X111790609Y-52120814D01*
X111790602Y-52120827D01*
X111730264Y-52266498D01*
X111730261Y-52266510D01*
X111699500Y-52421153D01*
X96707632Y-52421153D01*
X96685092Y-52398613D01*
X96685088Y-52398610D01*
X96553985Y-52311009D01*
X96553972Y-52311002D01*
X96408301Y-52250664D01*
X96408289Y-52250661D01*
X96253645Y-52219900D01*
X96253642Y-52219900D01*
X96095958Y-52219900D01*
X96095955Y-52219900D01*
X95941310Y-52250661D01*
X95941298Y-52250664D01*
X95795627Y-52311002D01*
X95795614Y-52311009D01*
X95664511Y-52398610D01*
X95664507Y-52398613D01*
X95553013Y-52510107D01*
X95553010Y-52510111D01*
X95465409Y-52641214D01*
X95465402Y-52641227D01*
X95405064Y-52786898D01*
X95405061Y-52786910D01*
X95374300Y-52941553D01*
X60667717Y-52941553D01*
X60709394Y-52879179D01*
X60769737Y-52733497D01*
X60800500Y-52578842D01*
X60800500Y-52421158D01*
X60800500Y-52421155D01*
X60800499Y-52421153D01*
X60778814Y-52312135D01*
X60769737Y-52266503D01*
X60763944Y-52252517D01*
X60709397Y-52120827D01*
X60709390Y-52120814D01*
X60621789Y-51989711D01*
X60621786Y-51989707D01*
X60510292Y-51878213D01*
X60510288Y-51878210D01*
X60379185Y-51790609D01*
X60379172Y-51790602D01*
X60233501Y-51730264D01*
X60233489Y-51730261D01*
X60078845Y-51699500D01*
X60078842Y-51699500D01*
X59921158Y-51699500D01*
X59921155Y-51699500D01*
X59766510Y-51730261D01*
X59766498Y-51730264D01*
X59620827Y-51790602D01*
X59620814Y-51790609D01*
X59489711Y-51878210D01*
X59489707Y-51878213D01*
X59378213Y-51989707D01*
X59378210Y-51989711D01*
X59290609Y-52120814D01*
X59290602Y-52120827D01*
X59230264Y-52266498D01*
X59230261Y-52266510D01*
X59199500Y-52421153D01*
X52100499Y-52421153D01*
X52100499Y-52312128D01*
X52094091Y-52252517D01*
X52089581Y-52240426D01*
X52043797Y-52117671D01*
X52043793Y-52117664D01*
X51957547Y-52002455D01*
X51957544Y-52002452D01*
X51842335Y-51916206D01*
X51842328Y-51916202D01*
X51707482Y-51865908D01*
X51707483Y-51865908D01*
X51647883Y-51859501D01*
X51647881Y-51859500D01*
X51647873Y-51859500D01*
X51647864Y-51859500D01*
X49852129Y-51859500D01*
X49852123Y-51859501D01*
X49792516Y-51865908D01*
X49657671Y-51916202D01*
X49657664Y-51916206D01*
X49542455Y-52002452D01*
X49542452Y-52002455D01*
X49456206Y-52117664D01*
X49456202Y-52117671D01*
X49405908Y-52252517D01*
X49399620Y-52311009D01*
X49399501Y-52312123D01*
X49399500Y-52312135D01*
X41500000Y-52312135D01*
X41500000Y-47557918D01*
X114336265Y-47557918D01*
X114336265Y-47715611D01*
X114367026Y-47870254D01*
X114367029Y-47870266D01*
X114427367Y-48015937D01*
X114427374Y-48015950D01*
X114514975Y-48147053D01*
X114514978Y-48147057D01*
X114626472Y-48258551D01*
X114626476Y-48258554D01*
X114757579Y-48346155D01*
X114757592Y-48346162D01*
X114903263Y-48406500D01*
X114903268Y-48406502D01*
X115057918Y-48437264D01*
X115057921Y-48437265D01*
X115057923Y-48437265D01*
X115215609Y-48437265D01*
X115215610Y-48437264D01*
X115370262Y-48406502D01*
X115515944Y-48346159D01*
X115647054Y-48258554D01*
X115758554Y-48147054D01*
X115846159Y-48015944D01*
X115906502Y-47870262D01*
X115937265Y-47715607D01*
X115937265Y-47557923D01*
X115937265Y-47557920D01*
X115937264Y-47557918D01*
X115906503Y-47403275D01*
X115906502Y-47403268D01*
X115906500Y-47403263D01*
X115846162Y-47257592D01*
X115846155Y-47257579D01*
X115758554Y-47126476D01*
X115758551Y-47126472D01*
X115647057Y-47014978D01*
X115647053Y-47014975D01*
X115515950Y-46927374D01*
X115515937Y-46927367D01*
X115370266Y-46867029D01*
X115370254Y-46867026D01*
X115215610Y-46836265D01*
X115215607Y-46836265D01*
X115057923Y-46836265D01*
X115057920Y-46836265D01*
X114903275Y-46867026D01*
X114903263Y-46867029D01*
X114757592Y-46927367D01*
X114757579Y-46927374D01*
X114626476Y-47014975D01*
X114626472Y-47014978D01*
X114514978Y-47126472D01*
X114514975Y-47126476D01*
X114427374Y-47257579D01*
X114427367Y-47257592D01*
X114367029Y-47403263D01*
X114367026Y-47403275D01*
X114336265Y-47557918D01*
X41500000Y-47557918D01*
X41500000Y-46131153D01*
X93699500Y-46131153D01*
X93699500Y-46288846D01*
X93730261Y-46443489D01*
X93730264Y-46443501D01*
X93790602Y-46589172D01*
X93790609Y-46589185D01*
X93878210Y-46720288D01*
X93878213Y-46720292D01*
X93989707Y-46831786D01*
X93989711Y-46831789D01*
X94120814Y-46919390D01*
X94120827Y-46919397D01*
X94266498Y-46979735D01*
X94266503Y-46979737D01*
X94421153Y-47010499D01*
X94421156Y-47010500D01*
X94421158Y-47010500D01*
X94578844Y-47010500D01*
X94578845Y-47010499D01*
X94733497Y-46979737D01*
X94846166Y-46933067D01*
X94879172Y-46919397D01*
X94879172Y-46919396D01*
X94879179Y-46919394D01*
X94957549Y-46867029D01*
X95010875Y-46831398D01*
X95077553Y-46810520D01*
X95079766Y-46810500D01*
X96203331Y-46810500D01*
X96203347Y-46810501D01*
X96210943Y-46810501D01*
X96369054Y-46810501D01*
X96369057Y-46810501D01*
X96521785Y-46769577D01*
X96571904Y-46740639D01*
X96658716Y-46690520D01*
X96770520Y-46578716D01*
X96770520Y-46578714D01*
X96780728Y-46568507D01*
X96780729Y-46568504D01*
X97514662Y-45834572D01*
X97575983Y-45801089D01*
X97578150Y-45800638D01*
X97636085Y-45789113D01*
X97733497Y-45769737D01*
X97879179Y-45709394D01*
X98010289Y-45621789D01*
X98121789Y-45510289D01*
X98209394Y-45379179D01*
X98269737Y-45233497D01*
X98300500Y-45078842D01*
X98300500Y-44921158D01*
X98300500Y-44921155D01*
X98300499Y-44921153D01*
X109199500Y-44921153D01*
X109199500Y-45078846D01*
X109230261Y-45233489D01*
X109230264Y-45233501D01*
X109290602Y-45379172D01*
X109290609Y-45379185D01*
X109378210Y-45510288D01*
X109378213Y-45510292D01*
X109489707Y-45621786D01*
X109489711Y-45621789D01*
X109620814Y-45709390D01*
X109620827Y-45709397D01*
X109766498Y-45769735D01*
X109766503Y-45769737D01*
X109921153Y-45800499D01*
X109921156Y-45800500D01*
X109921158Y-45800500D01*
X110078844Y-45800500D01*
X110078845Y-45800499D01*
X110233497Y-45769737D01*
X110379179Y-45709394D01*
X110510289Y-45621789D01*
X110621789Y-45510289D01*
X110709394Y-45379179D01*
X110769737Y-45233497D01*
X110800500Y-45078842D01*
X110800500Y-44921158D01*
X110800500Y-44921155D01*
X110800499Y-44921153D01*
X110769738Y-44766510D01*
X110769738Y-44766508D01*
X110769737Y-44766503D01*
X110769735Y-44766498D01*
X110709397Y-44620827D01*
X110709390Y-44620814D01*
X110621789Y-44489711D01*
X110621786Y-44489707D01*
X110510292Y-44378213D01*
X110510288Y-44378210D01*
X110379185Y-44290609D01*
X110379172Y-44290602D01*
X110233501Y-44230264D01*
X110233489Y-44230261D01*
X110078845Y-44199500D01*
X110078842Y-44199500D01*
X109921158Y-44199500D01*
X109921155Y-44199500D01*
X109766510Y-44230261D01*
X109766498Y-44230264D01*
X109620827Y-44290602D01*
X109620814Y-44290609D01*
X109489711Y-44378210D01*
X109489707Y-44378213D01*
X109378213Y-44489707D01*
X109378210Y-44489711D01*
X109290609Y-44620814D01*
X109290602Y-44620827D01*
X109230264Y-44766498D01*
X109230261Y-44766510D01*
X109199500Y-44921153D01*
X98300499Y-44921153D01*
X98269738Y-44766510D01*
X98269738Y-44766508D01*
X98269737Y-44766503D01*
X98269735Y-44766498D01*
X98209397Y-44620827D01*
X98209390Y-44620814D01*
X98121789Y-44489711D01*
X98121786Y-44489707D01*
X98010292Y-44378213D01*
X98010288Y-44378210D01*
X97879185Y-44290609D01*
X97879172Y-44290602D01*
X97733501Y-44230264D01*
X97733489Y-44230261D01*
X97578845Y-44199500D01*
X97578842Y-44199500D01*
X97421158Y-44199500D01*
X97421155Y-44199500D01*
X97266510Y-44230261D01*
X97266498Y-44230264D01*
X97120827Y-44290602D01*
X97120814Y-44290609D01*
X96989711Y-44378210D01*
X96989707Y-44378213D01*
X96878213Y-44489707D01*
X96878210Y-44489711D01*
X96790609Y-44620814D01*
X96790602Y-44620827D01*
X96730264Y-44766498D01*
X96730261Y-44766508D01*
X96699361Y-44921850D01*
X96666976Y-44983761D01*
X96665425Y-44985339D01*
X96077584Y-45573181D01*
X96016261Y-45606666D01*
X95989903Y-45609500D01*
X95079766Y-45609500D01*
X95012727Y-45589815D01*
X95010875Y-45588602D01*
X94879185Y-45500609D01*
X94879172Y-45500602D01*
X94733501Y-45440264D01*
X94733489Y-45440261D01*
X94578845Y-45409500D01*
X94578842Y-45409500D01*
X94421158Y-45409500D01*
X94421155Y-45409500D01*
X94266510Y-45440261D01*
X94266498Y-45440264D01*
X94120827Y-45500602D01*
X94120814Y-45500609D01*
X93989711Y-45588210D01*
X93989707Y-45588213D01*
X93878213Y-45699707D01*
X93878210Y-45699711D01*
X93790609Y-45830814D01*
X93790602Y-45830827D01*
X93730264Y-45976498D01*
X93730261Y-45976510D01*
X93699500Y-46131153D01*
X41500000Y-46131153D01*
X41500000Y-43056153D01*
X116424500Y-43056153D01*
X116424500Y-43213846D01*
X116455261Y-43368489D01*
X116455264Y-43368501D01*
X116515602Y-43514172D01*
X116515609Y-43514185D01*
X116603210Y-43645288D01*
X116603213Y-43645292D01*
X116714707Y-43756786D01*
X116714711Y-43756789D01*
X116845814Y-43844390D01*
X116845827Y-43844397D01*
X116991498Y-43904735D01*
X116991503Y-43904737D01*
X117146153Y-43935499D01*
X117146156Y-43935500D01*
X117146158Y-43935500D01*
X117303844Y-43935500D01*
X117303845Y-43935499D01*
X117458497Y-43904737D01*
X117604179Y-43844394D01*
X117735289Y-43756789D01*
X117846789Y-43645289D01*
X117934394Y-43514179D01*
X117994737Y-43368497D01*
X118025500Y-43213842D01*
X118025500Y-43056158D01*
X118025500Y-43056155D01*
X118025499Y-43056153D01*
X117994738Y-42901510D01*
X117994737Y-42901503D01*
X117994735Y-42901498D01*
X117934397Y-42755827D01*
X117934390Y-42755814D01*
X117846789Y-42624711D01*
X117846786Y-42624707D01*
X117735292Y-42513213D01*
X117735288Y-42513210D01*
X117604185Y-42425609D01*
X117604172Y-42425602D01*
X117458501Y-42365264D01*
X117458489Y-42365261D01*
X117303845Y-42334500D01*
X117303842Y-42334500D01*
X117146158Y-42334500D01*
X117146155Y-42334500D01*
X116991510Y-42365261D01*
X116991498Y-42365264D01*
X116845827Y-42425602D01*
X116845814Y-42425609D01*
X116714711Y-42513210D01*
X116714707Y-42513213D01*
X116603213Y-42624707D01*
X116603210Y-42624711D01*
X116515609Y-42755814D01*
X116515602Y-42755827D01*
X116455264Y-42901498D01*
X116455261Y-42901510D01*
X116424500Y-43056153D01*
X41500000Y-43056153D01*
X41500000Y-42120000D01*
X61750000Y-42120000D01*
X109750000Y-42120000D01*
X109750000Y-32871153D01*
X111464500Y-32871153D01*
X111464500Y-33028846D01*
X111495261Y-33183489D01*
X111495264Y-33183501D01*
X111555602Y-33329172D01*
X111555609Y-33329185D01*
X111643210Y-33460288D01*
X111643213Y-33460292D01*
X111754707Y-33571786D01*
X111754711Y-33571789D01*
X111885814Y-33659390D01*
X111885827Y-33659397D01*
X111931592Y-33678353D01*
X112031503Y-33719737D01*
X112052572Y-33723928D01*
X112080964Y-33729576D01*
X112142875Y-33761961D01*
X112177449Y-33822677D01*
X112173710Y-33892446D01*
X112132843Y-33949118D01*
X112125664Y-33954295D01*
X111992537Y-34043248D01*
X111992533Y-34043251D01*
X111853251Y-34182533D01*
X111853248Y-34182537D01*
X111743814Y-34346315D01*
X111743807Y-34346328D01*
X111668430Y-34528307D01*
X111668430Y-34528309D01*
X111660138Y-34570000D01*
X112463012Y-34570000D01*
X112445795Y-34579940D01*
X112389940Y-34635795D01*
X112350444Y-34704204D01*
X112330000Y-34780504D01*
X112330000Y-34859496D01*
X112350444Y-34935796D01*
X112389940Y-35004205D01*
X112445795Y-35060060D01*
X112463012Y-35070000D01*
X111660138Y-35070000D01*
X111668430Y-35111690D01*
X111668430Y-35111692D01*
X111743807Y-35293671D01*
X111743814Y-35293684D01*
X111853248Y-35457462D01*
X111853251Y-35457466D01*
X111992533Y-35596748D01*
X111992537Y-35596751D01*
X112156315Y-35706185D01*
X112156328Y-35706192D01*
X112338306Y-35781569D01*
X112338318Y-35781572D01*
X112531504Y-35819999D01*
X112531508Y-35820000D01*
X112930000Y-35820000D01*
X112930000Y-35120000D01*
X113430000Y-35120000D01*
X113430000Y-35820000D01*
X113828492Y-35820000D01*
X113828495Y-35819999D01*
X114021681Y-35781572D01*
X114021693Y-35781569D01*
X114203671Y-35706192D01*
X114203684Y-35706185D01*
X114367462Y-35596751D01*
X114367466Y-35596748D01*
X114506748Y-35457466D01*
X114506751Y-35457462D01*
X114616185Y-35293684D01*
X114616192Y-35293671D01*
X114691569Y-35111692D01*
X114691569Y-35111690D01*
X114699862Y-35070000D01*
X113896988Y-35070000D01*
X113914205Y-35060060D01*
X113970060Y-35004205D01*
X114009556Y-34935796D01*
X114030000Y-34859496D01*
X114030000Y-34780504D01*
X114009556Y-34704204D01*
X113970060Y-34635795D01*
X113914205Y-34579940D01*
X113896988Y-34570000D01*
X114699862Y-34570000D01*
X116090138Y-34570000D01*
X116893012Y-34570000D01*
X116875795Y-34579940D01*
X116819940Y-34635795D01*
X116780444Y-34704204D01*
X116760000Y-34780504D01*
X116760000Y-34859496D01*
X116780444Y-34935796D01*
X116819940Y-35004205D01*
X116875795Y-35060060D01*
X116893012Y-35070000D01*
X116090138Y-35070000D01*
X116098430Y-35111690D01*
X116098430Y-35111692D01*
X116173807Y-35293671D01*
X116173814Y-35293684D01*
X116283248Y-35457462D01*
X116283251Y-35457466D01*
X116422533Y-35596748D01*
X116422537Y-35596751D01*
X116586315Y-35706185D01*
X116586328Y-35706192D01*
X116768306Y-35781569D01*
X116768318Y-35781572D01*
X116961504Y-35819999D01*
X116961508Y-35820000D01*
X117110000Y-35820000D01*
X117110000Y-35120000D01*
X117610000Y-35120000D01*
X117610000Y-35820000D01*
X117758492Y-35820000D01*
X117758495Y-35819999D01*
X117951681Y-35781572D01*
X117951693Y-35781569D01*
X118133671Y-35706192D01*
X118133684Y-35706185D01*
X118297462Y-35596751D01*
X118297466Y-35596748D01*
X118436748Y-35457466D01*
X118436751Y-35457462D01*
X118546185Y-35293684D01*
X118546192Y-35293671D01*
X118621569Y-35111692D01*
X118621569Y-35111690D01*
X118629862Y-35070000D01*
X117826988Y-35070000D01*
X117844205Y-35060060D01*
X117900060Y-35004205D01*
X117939556Y-34935796D01*
X117960000Y-34859496D01*
X117960000Y-34780504D01*
X117939556Y-34704204D01*
X117900060Y-34635795D01*
X117844205Y-34579940D01*
X117826988Y-34570000D01*
X118629862Y-34570000D01*
X118621569Y-34528309D01*
X118621569Y-34528307D01*
X118546192Y-34346328D01*
X118546185Y-34346315D01*
X118436751Y-34182537D01*
X118436748Y-34182533D01*
X118297466Y-34043251D01*
X118297462Y-34043248D01*
X118133684Y-33933814D01*
X118133671Y-33933807D01*
X117951693Y-33858430D01*
X117951681Y-33858427D01*
X117758495Y-33820000D01*
X117610000Y-33820000D01*
X117610000Y-34520000D01*
X117110000Y-34520000D01*
X117110000Y-33820000D01*
X116961504Y-33820000D01*
X116768318Y-33858427D01*
X116768306Y-33858430D01*
X116586328Y-33933807D01*
X116586315Y-33933814D01*
X116422537Y-34043248D01*
X116422533Y-34043251D01*
X116283251Y-34182533D01*
X116283248Y-34182537D01*
X116173814Y-34346315D01*
X116173807Y-34346328D01*
X116098430Y-34528307D01*
X116098430Y-34528309D01*
X116090138Y-34570000D01*
X114699862Y-34570000D01*
X114691569Y-34528309D01*
X114691569Y-34528307D01*
X114616192Y-34346328D01*
X114616185Y-34346315D01*
X114506751Y-34182537D01*
X114506748Y-34182533D01*
X114367466Y-34043251D01*
X114367462Y-34043248D01*
X114198613Y-33930426D01*
X114199568Y-33928996D01*
X114155568Y-33885777D01*
X114140105Y-33817640D01*
X114163934Y-33751960D01*
X114165702Y-33749913D01*
X114165568Y-33749811D01*
X114170507Y-33743372D01*
X114170515Y-33743365D01*
X114246281Y-33612135D01*
X114285500Y-33465766D01*
X114285500Y-33314234D01*
X114246281Y-33167865D01*
X114170515Y-33036635D01*
X114063365Y-32929485D01*
X114063362Y-32929483D01*
X114063358Y-32929480D01*
X114018379Y-32903511D01*
X113970164Y-32852944D01*
X113956942Y-32784336D01*
X113982910Y-32719472D01*
X114011490Y-32693023D01*
X114086682Y-32642780D01*
X114144289Y-32604289D01*
X114255789Y-32492789D01*
X114343394Y-32361679D01*
X114403737Y-32215997D01*
X114434500Y-32061342D01*
X114434500Y-31903658D01*
X114434500Y-31903655D01*
X114434499Y-31903653D01*
X114403738Y-31749010D01*
X114403737Y-31749003D01*
X114403735Y-31748998D01*
X114343397Y-31603327D01*
X114343390Y-31603314D01*
X114255789Y-31472211D01*
X114255786Y-31472207D01*
X114144292Y-31360713D01*
X114144288Y-31360710D01*
X114013185Y-31273109D01*
X114013172Y-31273102D01*
X113867501Y-31212764D01*
X113867489Y-31212761D01*
X113712845Y-31182000D01*
X113712842Y-31182000D01*
X113555158Y-31182000D01*
X113555155Y-31182000D01*
X113400510Y-31212761D01*
X113400498Y-31212764D01*
X113254827Y-31273102D01*
X113254814Y-31273109D01*
X113123711Y-31360710D01*
X113123707Y-31360713D01*
X113012213Y-31472207D01*
X113012210Y-31472211D01*
X112924609Y-31603314D01*
X112924602Y-31603327D01*
X112864264Y-31748998D01*
X112864261Y-31749010D01*
X112833500Y-31903653D01*
X112833500Y-32061346D01*
X112845239Y-32120363D01*
X112839012Y-32189955D01*
X112796148Y-32245132D01*
X112730258Y-32268376D01*
X112662262Y-32252308D01*
X112654731Y-32247656D01*
X112644185Y-32240609D01*
X112644172Y-32240602D01*
X112498501Y-32180264D01*
X112498489Y-32180261D01*
X112343845Y-32149500D01*
X112343842Y-32149500D01*
X112186158Y-32149500D01*
X112186155Y-32149500D01*
X112031510Y-32180261D01*
X112031498Y-32180264D01*
X111885827Y-32240602D01*
X111885814Y-32240609D01*
X111754711Y-32328210D01*
X111754707Y-32328213D01*
X111643213Y-32439707D01*
X111643210Y-32439711D01*
X111555609Y-32570814D01*
X111555602Y-32570827D01*
X111495264Y-32716498D01*
X111495261Y-32716510D01*
X111464500Y-32871153D01*
X109750000Y-32871153D01*
X109750000Y-29921153D01*
X112833500Y-29921153D01*
X112833500Y-30078846D01*
X112864261Y-30233489D01*
X112864264Y-30233501D01*
X112924602Y-30379172D01*
X112924609Y-30379185D01*
X113012210Y-30510288D01*
X113012213Y-30510292D01*
X113123707Y-30621786D01*
X113123711Y-30621789D01*
X113254814Y-30709390D01*
X113254827Y-30709397D01*
X113400498Y-30769735D01*
X113400503Y-30769737D01*
X113555153Y-30800499D01*
X113555156Y-30800500D01*
X113555158Y-30800500D01*
X113712844Y-30800500D01*
X113712845Y-30800499D01*
X113867497Y-30769737D01*
X114013179Y-30709394D01*
X114144289Y-30621789D01*
X114146072Y-30620006D01*
X114229319Y-30536760D01*
X114290642Y-30503275D01*
X114360334Y-30508259D01*
X114404681Y-30536760D01*
X114489707Y-30621786D01*
X114489711Y-30621789D01*
X114620814Y-30709390D01*
X114620827Y-30709397D01*
X114766498Y-30769735D01*
X114766503Y-30769737D01*
X114921153Y-30800499D01*
X114921156Y-30800500D01*
X114921158Y-30800500D01*
X115078844Y-30800500D01*
X115078845Y-30800499D01*
X115233497Y-30769737D01*
X115379179Y-30709394D01*
X115510289Y-30621789D01*
X115621789Y-30510289D01*
X115709394Y-30379179D01*
X115769737Y-30233497D01*
X115800500Y-30078842D01*
X115800500Y-29921158D01*
X115800500Y-29921155D01*
X115800499Y-29921153D01*
X115769738Y-29766510D01*
X115769737Y-29766503D01*
X115742078Y-29699727D01*
X115709397Y-29620827D01*
X115709390Y-29620814D01*
X115621789Y-29489711D01*
X115621786Y-29489707D01*
X115510292Y-29378213D01*
X115510288Y-29378210D01*
X115379185Y-29290609D01*
X115379172Y-29290602D01*
X115233501Y-29230264D01*
X115233489Y-29230261D01*
X115078845Y-29199500D01*
X115078842Y-29199500D01*
X114921158Y-29199500D01*
X114921155Y-29199500D01*
X114766510Y-29230261D01*
X114766498Y-29230264D01*
X114620827Y-29290602D01*
X114620814Y-29290609D01*
X114489711Y-29378210D01*
X114489707Y-29378213D01*
X114404681Y-29463240D01*
X114343358Y-29496725D01*
X114273666Y-29491741D01*
X114229319Y-29463240D01*
X114144292Y-29378213D01*
X114144288Y-29378210D01*
X114013185Y-29290609D01*
X114013172Y-29290602D01*
X113867501Y-29230264D01*
X113867489Y-29230261D01*
X113712845Y-29199500D01*
X113712842Y-29199500D01*
X113555158Y-29199500D01*
X113555155Y-29199500D01*
X113400510Y-29230261D01*
X113400498Y-29230264D01*
X113254827Y-29290602D01*
X113254814Y-29290609D01*
X113123711Y-29378210D01*
X113123707Y-29378213D01*
X113012213Y-29489707D01*
X113012210Y-29489711D01*
X112924609Y-29620814D01*
X112924602Y-29620827D01*
X112864264Y-29766498D01*
X112864261Y-29766510D01*
X112833500Y-29921153D01*
X109750000Y-29921153D01*
X109750000Y-25930000D01*
X111660138Y-25930000D01*
X112463012Y-25930000D01*
X112445795Y-25939940D01*
X112389940Y-25995795D01*
X112350444Y-26064204D01*
X112330000Y-26140504D01*
X112330000Y-26219496D01*
X112350444Y-26295796D01*
X112389940Y-26364205D01*
X112445795Y-26420060D01*
X112463012Y-26430000D01*
X111660138Y-26430000D01*
X111668430Y-26471690D01*
X111668430Y-26471692D01*
X111743807Y-26653671D01*
X111743814Y-26653684D01*
X111853248Y-26817462D01*
X111853251Y-26817466D01*
X111992533Y-26956748D01*
X111992537Y-26956751D01*
X112156315Y-27066185D01*
X112156328Y-27066192D01*
X112338306Y-27141569D01*
X112338318Y-27141572D01*
X112531504Y-27179999D01*
X112531508Y-27180000D01*
X112930000Y-27180000D01*
X112930000Y-26480000D01*
X113430000Y-26480000D01*
X113430000Y-27035536D01*
X113410315Y-27102575D01*
X113368002Y-27142922D01*
X113356638Y-27149483D01*
X113356632Y-27149487D01*
X113249487Y-27256632D01*
X113249485Y-27256635D01*
X113173719Y-27387863D01*
X113134500Y-27534234D01*
X113134500Y-27685765D01*
X113173719Y-27832136D01*
X113182805Y-27847873D01*
X113249485Y-27963365D01*
X113356635Y-28070515D01*
X113487865Y-28146281D01*
X113634234Y-28185500D01*
X113634236Y-28185500D01*
X113785764Y-28185500D01*
X113785766Y-28185500D01*
X113932135Y-28146281D01*
X114063365Y-28070515D01*
X114170515Y-27963365D01*
X114246281Y-27832135D01*
X114285500Y-27685766D01*
X114285500Y-27534234D01*
X114246281Y-27387865D01*
X114170515Y-27256635D01*
X114170510Y-27256630D01*
X114165568Y-27250189D01*
X114168386Y-27248026D01*
X114142697Y-27200979D01*
X114147681Y-27131287D01*
X114189553Y-27075354D01*
X114198620Y-27069585D01*
X114198613Y-27069574D01*
X114367462Y-26956751D01*
X114367466Y-26956748D01*
X114506748Y-26817466D01*
X114506751Y-26817462D01*
X114616185Y-26653684D01*
X114616192Y-26653671D01*
X114691569Y-26471692D01*
X114691569Y-26471690D01*
X114699862Y-26430000D01*
X113896988Y-26430000D01*
X113914205Y-26420060D01*
X113970060Y-26364205D01*
X114009556Y-26295796D01*
X114030000Y-26219496D01*
X114030000Y-26140504D01*
X114009556Y-26064204D01*
X113970060Y-25995795D01*
X113914205Y-25939940D01*
X113896988Y-25930000D01*
X114699862Y-25930000D01*
X116090138Y-25930000D01*
X116893012Y-25930000D01*
X116875795Y-25939940D01*
X116819940Y-25995795D01*
X116780444Y-26064204D01*
X116760000Y-26140504D01*
X116760000Y-26219496D01*
X116780444Y-26295796D01*
X116819940Y-26364205D01*
X116875795Y-26420060D01*
X116893012Y-26430000D01*
X116090138Y-26430000D01*
X116098430Y-26471690D01*
X116098430Y-26471692D01*
X116173807Y-26653671D01*
X116173814Y-26653684D01*
X116283248Y-26817462D01*
X116283251Y-26817466D01*
X116422533Y-26956748D01*
X116422537Y-26956751D01*
X116586315Y-27066185D01*
X116586328Y-27066192D01*
X116768306Y-27141569D01*
X116768318Y-27141572D01*
X116961504Y-27179999D01*
X116961508Y-27180000D01*
X117110000Y-27180000D01*
X117110000Y-26480000D01*
X117610000Y-26480000D01*
X117610000Y-27180000D01*
X117758492Y-27180000D01*
X117758495Y-27179999D01*
X117951681Y-27141572D01*
X117951693Y-27141569D01*
X118133671Y-27066192D01*
X118133684Y-27066185D01*
X118297462Y-26956751D01*
X118297466Y-26956748D01*
X118436748Y-26817466D01*
X118436751Y-26817462D01*
X118546185Y-26653684D01*
X118546192Y-26653671D01*
X118621569Y-26471692D01*
X118621569Y-26471690D01*
X118629862Y-26430000D01*
X117826988Y-26430000D01*
X117844205Y-26420060D01*
X117900060Y-26364205D01*
X117939556Y-26295796D01*
X117960000Y-26219496D01*
X117960000Y-26140504D01*
X117939556Y-26064204D01*
X117900060Y-25995795D01*
X117844205Y-25939940D01*
X117826988Y-25930000D01*
X118629862Y-25930000D01*
X118621569Y-25888309D01*
X118621569Y-25888307D01*
X118546192Y-25706328D01*
X118546185Y-25706315D01*
X118436751Y-25542537D01*
X118436748Y-25542533D01*
X118297466Y-25403251D01*
X118297462Y-25403248D01*
X118133684Y-25293814D01*
X118133671Y-25293807D01*
X117951693Y-25218430D01*
X117951681Y-25218427D01*
X117758495Y-25180000D01*
X117610000Y-25180000D01*
X117610000Y-25880000D01*
X117110000Y-25880000D01*
X117110000Y-25180000D01*
X116961504Y-25180000D01*
X116768318Y-25218427D01*
X116768306Y-25218430D01*
X116586328Y-25293807D01*
X116586315Y-25293814D01*
X116422537Y-25403248D01*
X116422533Y-25403251D01*
X116283251Y-25542533D01*
X116283248Y-25542537D01*
X116173814Y-25706315D01*
X116173807Y-25706328D01*
X116098430Y-25888307D01*
X116098430Y-25888309D01*
X116090138Y-25930000D01*
X114699862Y-25930000D01*
X114691569Y-25888309D01*
X114691569Y-25888307D01*
X114616192Y-25706328D01*
X114616185Y-25706315D01*
X114506751Y-25542537D01*
X114506748Y-25542533D01*
X114367466Y-25403251D01*
X114367462Y-25403248D01*
X114203684Y-25293814D01*
X114203671Y-25293807D01*
X114021693Y-25218430D01*
X114021681Y-25218427D01*
X113828495Y-25180000D01*
X113430000Y-25180000D01*
X113430000Y-25880000D01*
X112930000Y-25880000D01*
X112930000Y-25180000D01*
X112531504Y-25180000D01*
X112338318Y-25218427D01*
X112338306Y-25218430D01*
X112156328Y-25293807D01*
X112156315Y-25293814D01*
X111992537Y-25403248D01*
X111992533Y-25403251D01*
X111853251Y-25542533D01*
X111853248Y-25542537D01*
X111743814Y-25706315D01*
X111743807Y-25706328D01*
X111668430Y-25888307D01*
X111668430Y-25888309D01*
X111660138Y-25930000D01*
X109750000Y-25930000D01*
X109750000Y-21180000D01*
X61750000Y-21180000D01*
X61750000Y-42120000D01*
X41500000Y-42120000D01*
X41500000Y-31081995D01*
X52699500Y-31081995D01*
X52699500Y-31318004D01*
X52699501Y-31318020D01*
X52730306Y-31552010D01*
X52791394Y-31779993D01*
X52881714Y-31998045D01*
X52881719Y-31998056D01*
X52952334Y-32120363D01*
X52999727Y-32202450D01*
X52999729Y-32202453D01*
X52999730Y-32202454D01*
X53143406Y-32389697D01*
X53143412Y-32389704D01*
X53310295Y-32556587D01*
X53310302Y-32556593D01*
X53328852Y-32570827D01*
X53497550Y-32700273D01*
X53628918Y-32776118D01*
X53701943Y-32818280D01*
X53701948Y-32818282D01*
X53701951Y-32818284D01*
X53920007Y-32908606D01*
X54147986Y-32969693D01*
X54381989Y-33000500D01*
X54381996Y-33000500D01*
X54618004Y-33000500D01*
X54618011Y-33000500D01*
X54852014Y-32969693D01*
X55079993Y-32908606D01*
X55298049Y-32818284D01*
X55502450Y-32700273D01*
X55689699Y-32556592D01*
X55856592Y-32389699D01*
X56000273Y-32202450D01*
X56118284Y-31998049D01*
X56208606Y-31779993D01*
X56269693Y-31552014D01*
X56300500Y-31318011D01*
X56300500Y-31081989D01*
X56269693Y-30847986D01*
X56208606Y-30620007D01*
X56118284Y-30401951D01*
X56118282Y-30401948D01*
X56118280Y-30401943D01*
X56021029Y-30233501D01*
X56000273Y-30197550D01*
X55856592Y-30010301D01*
X55856587Y-30010295D01*
X55689704Y-29843412D01*
X55689697Y-29843406D01*
X55502454Y-29699730D01*
X55502453Y-29699729D01*
X55502450Y-29699727D01*
X55420957Y-29652677D01*
X55298056Y-29581719D01*
X55298045Y-29581714D01*
X55079993Y-29491394D01*
X54852010Y-29430306D01*
X54618020Y-29399501D01*
X54618017Y-29399500D01*
X54618011Y-29399500D01*
X54381989Y-29399500D01*
X54381983Y-29399500D01*
X54381979Y-29399501D01*
X54147989Y-29430306D01*
X53920006Y-29491394D01*
X53701954Y-29581714D01*
X53701943Y-29581719D01*
X53497545Y-29699730D01*
X53310302Y-29843406D01*
X53310295Y-29843412D01*
X53143412Y-30010295D01*
X53143406Y-30010302D01*
X52999730Y-30197545D01*
X52881719Y-30401943D01*
X52881714Y-30401954D01*
X52791394Y-30620006D01*
X52730306Y-30847989D01*
X52699501Y-31081979D01*
X52699500Y-31081995D01*
X41500000Y-31081995D01*
X41500000Y-26382014D01*
X49700000Y-26382014D01*
X49700000Y-26617985D01*
X49730799Y-26851914D01*
X49791870Y-27079837D01*
X49882160Y-27297819D01*
X49882165Y-27297828D01*
X50000144Y-27502171D01*
X50000145Y-27502172D01*
X50062721Y-27583723D01*
X50784152Y-26862292D01*
X50791049Y-26878942D01*
X50878599Y-27009970D01*
X50990030Y-27121401D01*
X51121058Y-27208951D01*
X51137706Y-27215846D01*
X50416275Y-27937277D01*
X50497827Y-27999854D01*
X50497828Y-27999855D01*
X50702171Y-28117834D01*
X50702180Y-28117839D01*
X50920163Y-28208129D01*
X50920161Y-28208129D01*
X51148085Y-28269200D01*
X51382014Y-28299999D01*
X51382029Y-28300000D01*
X51617971Y-28300000D01*
X51617985Y-28299999D01*
X51851914Y-28269200D01*
X52079837Y-28208129D01*
X52297819Y-28117839D01*
X52297828Y-28117834D01*
X52502181Y-27999850D01*
X52583723Y-27937279D01*
X52583723Y-27937276D01*
X51862293Y-27215847D01*
X51878942Y-27208951D01*
X52009970Y-27121401D01*
X52121401Y-27009970D01*
X52208951Y-26878942D01*
X52215847Y-26862293D01*
X52937276Y-27583723D01*
X52937279Y-27583723D01*
X52999850Y-27502181D01*
X53117834Y-27297828D01*
X53117839Y-27297819D01*
X53208129Y-27079837D01*
X53269200Y-26851914D01*
X53299999Y-26617985D01*
X53300000Y-26617971D01*
X53300000Y-26382028D01*
X53299999Y-26382014D01*
X53269200Y-26148085D01*
X53208129Y-25920162D01*
X53117839Y-25702180D01*
X53117834Y-25702171D01*
X52999855Y-25497828D01*
X52999854Y-25497827D01*
X52937277Y-25416275D01*
X52215846Y-26137705D01*
X52208951Y-26121058D01*
X52121401Y-25990030D01*
X52009970Y-25878599D01*
X51878942Y-25791049D01*
X51862293Y-25784152D01*
X52494309Y-25152135D01*
X55699500Y-25152135D01*
X55699500Y-27847870D01*
X55699501Y-27847876D01*
X55705908Y-27907483D01*
X55756202Y-28042328D01*
X55756206Y-28042335D01*
X55842452Y-28157544D01*
X55842455Y-28157547D01*
X55957664Y-28243793D01*
X55957671Y-28243797D01*
X56092517Y-28294091D01*
X56092516Y-28294091D01*
X56099444Y-28294835D01*
X56152127Y-28300500D01*
X58847872Y-28300499D01*
X58907483Y-28294091D01*
X59042331Y-28243796D01*
X59157546Y-28157546D01*
X59243796Y-28042331D01*
X59294091Y-27907483D01*
X59300500Y-27847873D01*
X59300499Y-25152128D01*
X59294091Y-25092517D01*
X59282977Y-25062720D01*
X59243797Y-24957671D01*
X59243793Y-24957664D01*
X59157547Y-24842455D01*
X59157544Y-24842452D01*
X59042335Y-24756206D01*
X59042328Y-24756202D01*
X58907482Y-24705908D01*
X58907483Y-24705908D01*
X58847883Y-24699501D01*
X58847881Y-24699500D01*
X58847873Y-24699500D01*
X58847864Y-24699500D01*
X56152129Y-24699500D01*
X56152123Y-24699501D01*
X56092516Y-24705908D01*
X55957671Y-24756202D01*
X55957664Y-24756206D01*
X55842455Y-24842452D01*
X55842452Y-24842455D01*
X55756206Y-24957664D01*
X55756202Y-24957671D01*
X55705908Y-25092517D01*
X55699501Y-25152116D01*
X55699501Y-25152123D01*
X55699500Y-25152135D01*
X52494309Y-25152135D01*
X52583723Y-25062721D01*
X52502172Y-25000145D01*
X52502171Y-25000144D01*
X52297828Y-24882165D01*
X52297819Y-24882160D01*
X52079836Y-24791870D01*
X52079838Y-24791870D01*
X51851914Y-24730799D01*
X51617985Y-24700000D01*
X51382014Y-24700000D01*
X51148085Y-24730799D01*
X50920162Y-24791870D01*
X50702180Y-24882160D01*
X50702171Y-24882165D01*
X50497828Y-25000144D01*
X50497818Y-25000150D01*
X50416275Y-25062720D01*
X50416275Y-25062721D01*
X51137706Y-25784152D01*
X51121058Y-25791049D01*
X50990030Y-25878599D01*
X50878599Y-25990030D01*
X50791049Y-26121058D01*
X50784153Y-26137706D01*
X50062721Y-25416275D01*
X50062720Y-25416275D01*
X50000150Y-25497818D01*
X50000144Y-25497828D01*
X49882165Y-25702171D01*
X49882160Y-25702180D01*
X49791870Y-25920162D01*
X49730799Y-26148085D01*
X49700000Y-26382014D01*
X41500000Y-26382014D01*
X41500000Y-20624000D01*
X41519685Y-20556961D01*
X41572489Y-20511206D01*
X41624000Y-20500000D01*
X125126000Y-20500000D01*
X125193039Y-20519685D01*
G37*
%TD.AperFunction*%
%TD*%
M02*
