%TF.GenerationSoftware,KiCad,Pcbnew,9.0.2*%
%TF.CreationDate,2025-07-02T17:03:22+05:30*%
%TF.ProjectId,ESP32-RoboCore V1,45535033-322d-4526-9f62-6f436f726520,rev?*%
%TF.SameCoordinates,Original*%
%TF.FileFunction,Soldermask,Top*%
%TF.FilePolarity,Negative*%
%FSLAX46Y46*%
G04 Gerber Fmt 4.6, Leading zero omitted, Abs format (unit mm)*
G04 Created by KiCad (PCBNEW 9.0.2) date 2025-07-02 17:03:22*
%MOMM*%
%LPD*%
G01*
G04 APERTURE LIST*
G04 Aperture macros list*
%AMRoundRect*
0 Rectangle with rounded corners*
0 $1 Rounding radius*
0 $2 $3 $4 $5 $6 $7 $8 $9 X,Y pos of 4 corners*
0 Add a 4 corners polygon primitive as box body*
4,1,4,$2,$3,$4,$5,$6,$7,$8,$9,$2,$3,0*
0 Add four circle primitives for the rounded corners*
1,1,$1+$1,$2,$3*
1,1,$1+$1,$4,$5*
1,1,$1+$1,$6,$7*
1,1,$1+$1,$8,$9*
0 Add four rect primitives between the rounded corners*
20,1,$1+$1,$2,$3,$4,$5,0*
20,1,$1+$1,$4,$5,$6,$7,0*
20,1,$1+$1,$6,$7,$8,$9,0*
20,1,$1+$1,$8,$9,$2,$3,0*%
G04 Aperture macros list end*
%ADD10C,0.600000*%
%ADD11R,4.200000X4.200000*%
%ADD12R,1.500000X0.900000*%
%ADD13R,0.900000X1.500000*%
%ADD14RoundRect,0.250000X-0.325000X-0.650000X0.325000X-0.650000X0.325000X0.650000X-0.325000X0.650000X0*%
%ADD15R,1.730000X2.030000*%
%ADD16O,1.730000X2.030000*%
%ADD17RoundRect,0.250000X0.262500X0.450000X-0.262500X0.450000X-0.262500X-0.450000X0.262500X-0.450000X0*%
%ADD18RoundRect,0.250000X-0.300000X2.050000X-0.300000X-2.050000X0.300000X-2.050000X0.300000X2.050000X0*%
%ADD19RoundRect,0.250002X-5.149998X4.449998X-5.149998X-4.449998X5.149998X-4.449998X5.149998X4.449998X0*%
%ADD20R,1.700000X1.700000*%
%ADD21C,1.700000*%
%ADD22RoundRect,0.250000X-0.262500X-0.450000X0.262500X-0.450000X0.262500X0.450000X-0.262500X0.450000X0*%
%ADD23C,0.700000*%
%ADD24RoundRect,0.250000X-0.275000X0.450000X-0.275000X-0.450000X0.275000X-0.450000X0.275000X0.450000X0*%
%ADD25RoundRect,0.150000X0.825000X0.150000X-0.825000X0.150000X-0.825000X-0.150000X0.825000X-0.150000X0*%
%ADD26RoundRect,0.243750X0.243750X0.456250X-0.243750X0.456250X-0.243750X-0.456250X0.243750X-0.456250X0*%
%ADD27RoundRect,0.250000X-0.450000X0.262500X-0.450000X-0.262500X0.450000X-0.262500X0.450000X0.262500X0*%
%ADD28C,0.650000*%
%ADD29R,1.450000X0.600000*%
%ADD30R,1.450000X0.300000*%
%ADD31O,2.100000X1.000000*%
%ADD32O,1.600000X1.000000*%
%ADD33R,2.600000X2.600000*%
%ADD34C,2.600000*%
%ADD35RoundRect,0.250000X-0.650000X0.325000X-0.650000X-0.325000X0.650000X-0.325000X0.650000X0.325000X0*%
%ADD36RoundRect,0.250000X0.450000X-0.262500X0.450000X0.262500X-0.450000X0.262500X-0.450000X-0.262500X0*%
%ADD37C,1.100000*%
%ADD38RoundRect,0.375000X0.625000X0.375000X-0.625000X0.375000X-0.625000X-0.375000X0.625000X-0.375000X0*%
%ADD39RoundRect,0.500000X0.500000X1.400000X-0.500000X1.400000X-0.500000X-1.400000X0.500000X-1.400000X0*%
G04 APERTURE END LIST*
D10*
%TO.C,U1*%
X86595000Y-51772500D03*
X86595000Y-50247500D03*
X85832500Y-52535000D03*
X85832500Y-51010000D03*
X85832500Y-49485000D03*
X85070000Y-51772500D03*
D11*
X85070000Y-51010000D03*
D10*
X85070000Y-50247500D03*
X84307500Y-52535000D03*
X84307500Y-51010000D03*
X84307500Y-49485000D03*
X83545000Y-51772500D03*
X83545000Y-50247500D03*
D12*
X94500000Y-43670000D03*
X94500000Y-44940000D03*
X94500000Y-46210000D03*
X94500000Y-47480000D03*
X94500000Y-48750000D03*
X94500000Y-50020000D03*
X94500000Y-51290000D03*
X94500000Y-52560000D03*
X94500000Y-53830000D03*
X94500000Y-55100000D03*
X94500000Y-56370000D03*
X94500000Y-57640000D03*
X94500000Y-58910000D03*
X94500000Y-60180000D03*
D13*
X91470000Y-61430000D03*
X90200000Y-61430000D03*
X88930000Y-61430000D03*
X87660000Y-61430000D03*
X86390000Y-61430000D03*
X85120000Y-61430000D03*
X83850000Y-61430000D03*
X82580000Y-61430000D03*
X81310000Y-61430000D03*
X80040000Y-61430000D03*
D12*
X77000000Y-60180000D03*
X77000000Y-58910000D03*
X77000000Y-57640000D03*
X77000000Y-56370000D03*
X77000000Y-55100000D03*
X77000000Y-53830000D03*
X77000000Y-52560000D03*
X77000000Y-51290000D03*
X77000000Y-50020000D03*
X77000000Y-48750000D03*
X77000000Y-47480000D03*
X77000000Y-46210000D03*
X77000000Y-44940000D03*
X77000000Y-43670000D03*
%TD*%
D14*
%TO.C,C4*%
X99275000Y-56000000D03*
X102225000Y-56000000D03*
%TD*%
D15*
%TO.C,J3*%
X108080000Y-65250000D03*
D16*
X105540000Y-65250000D03*
X103000000Y-65250000D03*
%TD*%
D17*
%TO.C,R6*%
X113075000Y-23000000D03*
X111250000Y-23000000D03*
%TD*%
D18*
%TO.C,U3*%
X55625000Y-35775000D03*
X53925000Y-35775000D03*
X52225000Y-35775000D03*
D19*
X52225000Y-44925000D03*
D18*
X50525000Y-35775000D03*
X48825000Y-35775000D03*
%TD*%
D14*
%TO.C,C3*%
X54000000Y-62500000D03*
X56950000Y-62500000D03*
%TD*%
D20*
%TO.C,J6*%
X60370000Y-66750000D03*
D21*
X57830000Y-66750000D03*
X55290000Y-66750000D03*
X52750000Y-66750000D03*
%TD*%
D22*
%TO.C,R2*%
X109425000Y-59000000D03*
X111250000Y-59000000D03*
%TD*%
D23*
%TO.C,SW2*%
X119050000Y-65000000D03*
X117250000Y-65000000D03*
D24*
X118870000Y-63200000D03*
X118870000Y-66800000D03*
X117430000Y-63200000D03*
X117430000Y-66800000D03*
%TD*%
D25*
%TO.C,U4*%
X117225000Y-46945000D03*
X117225000Y-45675000D03*
X117225000Y-44405000D03*
X117225000Y-43135000D03*
X117225000Y-41865000D03*
X117225000Y-40595000D03*
X117225000Y-39325000D03*
X117225000Y-38055000D03*
X112275000Y-38055000D03*
X112275000Y-39325000D03*
X112275000Y-40595000D03*
X112275000Y-41865000D03*
X112275000Y-43135000D03*
X112275000Y-44405000D03*
X112275000Y-45675000D03*
X112275000Y-46945000D03*
%TD*%
D26*
%TO.C,D2*%
X118250000Y-59250000D03*
X116375000Y-59250000D03*
%TD*%
D27*
%TO.C,R3*%
X106250000Y-56000000D03*
X106250000Y-57825000D03*
%TD*%
D28*
%TO.C,J1*%
X113710000Y-33390000D03*
X113710000Y-27610000D03*
D29*
X112265000Y-33750000D03*
X112265000Y-32950000D03*
D30*
X112265000Y-31750000D03*
X112265000Y-30750000D03*
X112265000Y-30250000D03*
X112265000Y-29250000D03*
D29*
X112265000Y-28050000D03*
X112265000Y-27250000D03*
X112265000Y-27250000D03*
X112265000Y-28050000D03*
D30*
X112265000Y-28750000D03*
X112265000Y-29750000D03*
X112265000Y-31250000D03*
X112265000Y-32250000D03*
D29*
X112265000Y-32950000D03*
X112265000Y-33750000D03*
D31*
X113180000Y-34820000D03*
D32*
X117360000Y-34820000D03*
D31*
X113180000Y-26180000D03*
D32*
X117360000Y-26180000D03*
%TD*%
D33*
%TO.C,J2*%
X57500000Y-26500000D03*
D34*
X51500000Y-26500000D03*
X54500000Y-31200000D03*
%TD*%
D20*
%TO.C,J5*%
X50750000Y-53210000D03*
D21*
X50750000Y-55750000D03*
X50750000Y-58290000D03*
X50750000Y-60830000D03*
%TD*%
D22*
%TO.C,R7*%
X115925000Y-23000000D03*
X117750000Y-23000000D03*
%TD*%
D23*
%TO.C,SW1*%
X119180000Y-52800000D03*
X117380000Y-52800000D03*
D24*
X119000000Y-51000000D03*
X119000000Y-54600000D03*
X117560000Y-51000000D03*
X117560000Y-54600000D03*
%TD*%
D35*
%TO.C,C1*%
X59750000Y-35750000D03*
X59750000Y-38700000D03*
%TD*%
D36*
%TO.C,R4*%
X93250000Y-66912500D03*
X93250000Y-65087500D03*
%TD*%
D37*
%TO.C,J4*%
X68500000Y-67410000D03*
D15*
X73580000Y-65250000D03*
D16*
X71040000Y-65250000D03*
X68500000Y-65250000D03*
X65960000Y-65250000D03*
%TD*%
D20*
%TO.C,J7*%
X81170000Y-66500000D03*
D21*
X83710000Y-66500000D03*
X86250000Y-66500000D03*
X88790000Y-66500000D03*
%TD*%
D38*
%TO.C,U2*%
X66800000Y-50300000D03*
X66800000Y-48000000D03*
D39*
X60500000Y-48000000D03*
D38*
X66800000Y-45700000D03*
%TD*%
D14*
%TO.C,C2*%
X70000000Y-45500000D03*
X72950000Y-45500000D03*
%TD*%
D22*
%TO.C,R1*%
X60500000Y-62250000D03*
X62325000Y-62250000D03*
%TD*%
D17*
%TO.C,R5*%
X99412500Y-52250000D03*
X97587500Y-52250000D03*
%TD*%
M02*
